<?xml version="1.0" standalone="no"?>
<!DOCTYPE svg PUBLIC "-//W3C//DTD SVG 1.1//EN" "http://www.w3.org/Graphics/SVG/1.1/DTD/svg11.dtd" >
<svg xmlns="http://www.w3.org/2000/svg">
<metadata></metadata>
<defs>
<font id="juniusregular" horiz-adv-x="837" >
<font-face units-per-em="2048" ascent="1638" descent="-410" />
<missing-glyph horiz-adv-x="559" />
<glyph horiz-adv-x="0" />
<glyph unicode="&#xd;" horiz-adv-x="559" />
<glyph unicode=" "  horiz-adv-x="559" />
<glyph unicode="&#x09;" horiz-adv-x="559" />
<glyph unicode="&#xa0;" horiz-adv-x="559" />
<glyph unicode="!" horiz-adv-x="520" d="M139 96q0 37 27 70q35 45 102 45q45 0 80 -34t35 -89q0 -49 -34 -81t-81 -32q-45 0 -82 25q-47 33 -47 96zM166 1278q0 49 28.5 85t69.5 36q109 0 103 -121q-35 -324 -74 -842q0 -16 -31 -16q-35 0 -35 16q-2 109 -32 463q-29 346 -29 379z" />
<glyph unicode="&#x22;" horiz-adv-x="757" d="M121 1395q0 86 96 86q94 0 94 -84q0 -29 -28.5 -213.5t-30.5 -239.5h-70q-2 55 -31.5 239.5t-29.5 211.5zM449 1395q0 86 94 86q96 0 96 -84q0 -29 -29.5 -213.5t-31.5 -239.5h-68q-2 55 -31.5 239.5t-29.5 211.5z" />
<glyph unicode="#" horiz-adv-x="1019" d="M-2 1022q4 0 37 -10.5t53 -10.5q27 0 43 13l86 65q18 14 -4 27q-55 35 -190 102q-14 6 -15 25q0 18 14.5 34.5t28.5 10.5q88 -35 236 -115q23 -12 41 2l307 246q2 2 6 2q14 0 96 -94q14 -16 15 -23q0 -4 -7 -4q-6 0 -46 11.5t-64 11.5q-29 0 -45 -15l-203 -165 q-20 -16 -2 -29q178 -109 260 -172q141 -111 217 -240q82 -141 82 -258q0 -197 -106 -323q-115 -135 -314 -136q-186 0 -315 132.5t-129 324.5q0 172 133 304t299 132q31 0 6 23q-90 82 -207 154q-18 10 -37 -5l-188 -151q-10 -8 -84 106q-16 25 -4 25zM254 430 q0 -176 88 -289q78 -98 180 -98q92 0 166 100q82 113 82 287q0 168 -88 283q-76 98 -162 98q-94 0 -174 -96q-92 -111 -92 -285z" />
<glyph unicode="$" horiz-adv-x="909" d="M-92 946q0 12 16 12q6 0 22.5 -2t26.5 -2q31 0 50 13l120 77q31 20 31 62v12q0 94 -12 133q-20 59 -82 60q-16 0 -17 28q0 27 17 27q29 0 110 41q76 39 107 66q14 12 27 12q12 0 12 -15v-2q-8 -217 -8 -260q0 -31 16 -30q6 0 18 8l234 151q10 6 49 -49q18 -27 19 -37 q0 -10 -17 -10q-6 0 -29.5 3t-35.5 3q-27 0 -41 -10l-193 -133q-20 -14 -20 -39v-268q0 -23 12 -23q8 0 20 12q74 84 166 84q133 0 222 -90q94 -96 94 -260q0 -236 -185 -395q-145 -129 -299 -145q-31 -4 -30 -31v-367q0 -57 -58 -78l-176 -61q-10 -4 -20.5 9t-10.5 28 q0 12 9 16l80 53q23 14 22 58v1341q0 41 -33 21l-164 -105q-4 -2 -8 -2q-14 0 -45 49q-16 27 -16 35zM328 90q0 -45 39 -37q125 23 213 150t88 272q0 135 -39 223q-43 98 -127 99q-78 0 -150 -117q-25 -39 -24 -94v-496z" />
<glyph unicode="%" horiz-adv-x="1144" d="M47 606q0 102 121 187q113 78 219 77q123 0 182 -84q12 -18 23 -18q2 0 31 23q100 80 208 79q100 0 179 -36q86 -41 86 -103q0 -39 -35 -53l-416 -172q-35 -14 -35 -90q0 -106 60 -201q74 -121 202 -121q102 0 197 76q4 4 10 4q29 0 29 -31q0 -6 -2 -10 q-115 -156 -330 -156q-147 0 -239 142q-12 18 -17 18q-6 0 -18 -16q-104 -131 -219 -131q-217 0 -217 170q0 125 104 200q41 31 192 93q104 43 105 88v108q0 143 -135 144q-102 0 -137 -52q-6 -49 -21 -123q-20 -66 -68 -65q-59 0 -59 53zM219 180q0 -106 115 -106 q33 0 75 34.5t66 71.5q19 29 17 39q-12 63 -27 170q-4 35 -21 35q-8 0 -22 -6q-203 -88 -203 -238zM578 975q0 12 4 22l206 467q10 23 41 23q35 0 67 -21.5t32 -46.5q0 -10 -6 -18l-271 -434q-16 -27 -41 -27q-33 0 -32 35zM629 606q-4 -18 4 -26q8 -4 24 2l269 108 q32 13 32 33q0 35 -45 60.5t-82 25.5q-76 0 -133 -66q-49 -55 -69 -137z" />
<glyph unicode="&#x26;" horiz-adv-x="847" d="M27 723q14 33 41 117q20 63 30 104q4 10 21 10q43 0 37 -24q-2 -12 -2 -21q0 -59 69 -59q334 0 451 20q23 4 37 4h2q39 -2 37 -49q0 -25 -5 -98q-4 -55 -4 -100v-881q0 -145 -68.5 -223t-193.5 -78q-63 0 -211 29q-12 2 -12 24q0 49 23 45q63 -10 114 -10q115 0 160 64 q33 51 33 157v977q0 37 -37 37h-379q-61 0 -88 -61q-4 -10 -16 -11q-14 0 -27.5 9.5t-11.5 17.5z" />
<glyph unicode="'" horiz-adv-x="421" d="M117 1395q0 86 96 86q94 0 94 -84q0 -29 -28.5 -213.5t-30.5 -239.5h-70q-2 55 -31.5 239.5t-29.5 211.5z" />
<glyph unicode="(" horiz-adv-x="675" d="M160 588q0 262 137 559q92 199 270 369q14 14 39 14q12 0 26.5 -10.5t14.5 -18.5q0 -18 -18 -37q-330 -344 -330 -876q0 -537 332 -875q16 -17 16 -37q0 -8 -14.5 -19t-26.5 -11q-20 0 -39 16q-195 176 -288 369q-119 244 -119 557z" />
<glyph unicode=")" horiz-adv-x="675" d="M29 -324q0 16 18 35q330 342 330 877q0 532 -332 874q-16 16 -16 39q0 8 14 18.5t27 10.5q23 0 39 -14q197 -182 288 -371q119 -244 119 -557q0 -262 -137 -559q-94 -203 -270 -367q-18 -16 -39 -16q-12 0 -26.5 11t-14.5 19z" />
<glyph unicode="*" horiz-adv-x="1884" d="M-137 33q0 41 16 41q78 0 125 35q39 29 80 100l604 1073q16 31 17 49q0 43 -89 43q-14 0 -14 41t14 41q154 -6 338 -6q238 0 409 3t259 3q47 0 59.5 -6t12.5 -29v-342q0 -18 -39 -18q-41 0 -41 18q0 147 -105 230q-80 66 -176 67l-289 6q-43 0 -43 -43v-577q0 -37 37 -37 h228q109 0 108 100v101q0 16 37 16t37 -16q-6 -61 -6 -236q0 -162 6 -223q0 -14 -37 -14t-37 14v90q0 94 -108 94h-228q-37 0 -37 -37v-292q0 -102 43 -177q49 -82 136 -79l256 8q84 2 161 65q104 84 105 230q0 18 41 18q39 0 39 -18v-349q0 -29 -107 -28q-12 0 -259 4 t-515 4q-90 0 -254 -8q-14 0 -14 41t14 41q84 0 123 16q59 27 59 100v424q0 37 -36 37h-340q-29 0 -43 -26l-226 -445q-12 -25 -12 -43q0 -63 162 -63q16 0 16 -41t-16 -41q-82 8 -244 8q-129 0 -211 -8q-16 0 -16 41zM485 756q-16 -31 19 -31h289q36 0 36 37v514 q0 29 -22 29q-18 0 -31 -23zM893 1692q0 47 27 47h636q27 0 27 -43q0 -51 -31 -51h-632q-27 0 -27 47z" />
<glyph unicode="+" horiz-adv-x="706" d="M78 252q0 14 24 14q25 0 25 -14q0 -25 28.5 -73t53.5 -73q70 -68 162 -67q61 0 111 37t50 104q0 72 -43 114t-155 75q-242 70 -242 258q0 104 85 173.5t202 69.5q139 0 217 -36q33 -90 31 -181q0 -14 -23 -14t-24 14q-10 53 -64 101q-61 55 -151 55q-63 0 -110.5 -36 t-47.5 -99q0 -78 61 -117q31 -20 135 -51q123 -35 179 -86q67 -63 67 -174q0 -123 -89 -197t-222 -74q-156 0 -240 60q-25 76 -20 217z" />
<glyph unicode="," horiz-adv-x="520" d="M102 -344q0 4 2 6q47 51 95 102q74 92 73 179q0 47 -34 61q-117 45 -117 135q0 41 30.5 69t84.5 28q61 0 116 -50q62 -59 62 -147q0 -145 -111 -272q-76 -86 -170 -136q-8 -4 -19.5 5.5t-11.5 19.5z" />
<glyph unicode="-" horiz-adv-x="827" d="M100 545q0 57 15 57h592q16 0 14 -57q0 -57 -16 -58h-590q-14 0 -15 58z" />
<glyph unicode="." horiz-adv-x="520" d="M139 96q0 39 25 70q35 45 102 45q47 0 81 -34t34 -89q0 -49 -33 -81t-82 -32q-45 0 -80 25q-47 33 -47 96z" />
<glyph unicode="/" horiz-adv-x="716" d="M4 33l610 1440q2 6 15 6q25 0 58.5 -17.5t27.5 -31.5l-613 -1442q-2 -6 -12 -6q-23 0 -57.5 19t-28.5 32z" />
<glyph unicode="0" horiz-adv-x="1052" d="M113 424q0 186 128 317t310 131t310 -131t128 -317t-128 -317.5t-310 -131.5t-310 131.5t-128 317.5zM238 420q0 -147 93 -252t220 -105t220 105t93 252t-93 253.5t-220 106.5t-220 -106.5t-93 -253.5z" />
<glyph unicode="1" horiz-adv-x="651" d="M125 20q0 29 14 29q117 0 117 78v596q0 80 -117 80q-14 0 -14 26q0 27 14 27q61 -6 203 -6q127 0 188 6q16 0 17 -27q0 -27 -17 -26q-119 0 -118 -80v-596q0 -78 118 -78q16 0 17 -29q-1 -28 -17 -28q-82 8 -188 8q-121 0 -203 -8q-14 0 -14 28z" />
<glyph unicode="2" horiz-adv-x="966" d="M102 631q70 127 103 160q84 80 237 79q88 0 158 -47q82 -53 82 -145q0 -150 -119 -287q-61 -66 -194 -219q-20 -25 -21 -35q0 -18 51 -18h346q80 0 154 145q4 8 16 8q16 0 29.5 -9t9.5 -19q-66 -141 -102 -252q-41 4 -125 8h-416q-70 0 -168 -8q-39 -4 -39 26q0 14 19 27 q143 98 293 289q111 141 110 237q0 82 -43 131.5t-102 49.5q-92 0 -145 -43q-37 -29 -80 -101q-4 -8 -17 -8q-14 0 -28.5 10.5t-8.5 20.5z" />
<glyph unicode="3" horiz-adv-x="778" d="M70 -309q0 59 51 59q18 0 48 -12t52 -12q104 0 189 88q94 100 94 258q0 98 -45 166q-53 76 -152 75q-27 0 -117 -53q-10 -6 -23 10.5t-13 32.5q0 8 6 12q162 88 198 119q113 86 113 189q0 147 -154 147q-96 0 -182 -106q-2 -4 -8 -5q-10 0 -21.5 10.5t-7.5 18.5 q29 66 111 121q90 61 184 61q92 0 156 -45q76 -57 76 -163q0 -100 -140 -199q-45 -33 -45 -45q0 -6 13 -10q213 -71 213 -261q0 -197 -177 -352q-84 -74 -188 -125q-94 -47 -145 -47q-86 0 -86 68z" />
<glyph unicode="4" horiz-adv-x="966" d="M41 70q-8 14 0 24l633 776q12 16 28 17q25 0 25 -23v-657q0 -41 5 -48t36 -7h172q16 0 16 -54q0 -45 -16 -45h-172q-31 0 -36 -6t-5 -43v-371q0 -25 -76 -24q-80 0 -80 24v371q0 37 -5 43t-36 6h-471q-12 0 -18 17zM207 170q0 -18 31 -18h292q31 0 36 7t5 48v389 q0 27 -8 27t-22 -19l-326 -411q-8 -12 -8 -23z" />
<glyph unicode="5" horiz-adv-x="772" d="M111 500q0 129 125 309q31 45 81 45h400q16 0 16 -23q0 -29 -21.5 -62.5t-45.5 -33.5h-310q-68 0 -108.5 -42t-40.5 -93q0 -55 43 -82q184 -115 262 -229q72 -106 72 -246q0 -133 -117 -302t-264 -243q-12 -6 -26.5 6.5t-14.5 24.5q0 6 4 10q131 127 166 176 q98 137 98 293q0 139 -98 242q-86 74 -174 147q-47 43 -47 103z" />
<glyph unicode="6" horiz-adv-x="1019" d="M115 430q0 98 45 229q59 170 166 285q127 137 266 216t362 145q27 8 27 -25q0 -14 -12 -18q-436 -160 -625 -566q-14 -33 8 -32q10 0 25 12q90 78 194 78q133 0 230 -90q106 -104 106 -283q0 -135 -88 -254q-117 -158 -336 -158q-201 0 -297 158q-72 119 -71 303z M270 358q0 -111 62 -204q76 -117 209 -117q66 0 121 49q90 74 90 238q0 123 -58 215q-63 102 -162 102q-119 0 -192 -88q-70 -80 -70 -195z" />
<glyph unicode="7" horiz-adv-x="843" d="M51 637q37 96 43 180q4 37 51 37h605q51 0 51 -39q0 -6 -4 -14l-561 -1194q-4 -8 -17 -8q-20 0 -43.5 15t-17.5 26l489 1030q8 16 8 28q0 37 -45 37h-356q-59 0 -92 -28q-18 -16 -60 -91q-4 -6 -14 -6q-12 0 -26.5 9.5t-10.5 17.5z" />
<glyph unicode="8" horiz-adv-x="815" d="M76 256q0 115 98 217q29 29 152 123q-238 180 -238 354q0 113 82 207q98 115 268 115q113 0 201 -72q94 -78 94 -196q0 -227 -223 -353q131 -111 145 -127q84 -100 84 -243q0 -141 -96 -230q-88 -82 -209 -82q-164 0 -261 79t-97 208zM231 281q0 -125 62 -193 q51 -55 119 -55q172 0 172 207q0 180 -209 317q-143 -106 -144 -276zM242 987q0 -86 71 -174q57 -74 144 -123q123 111 123 301q0 72 -29 133q-41 86 -125 86q-74 0 -129 -63.5t-55 -159.5z" />
<glyph unicode="9" horiz-adv-x="972" d="M80 -436q0 12 12 18q307 137 481 400q92 137 93 178q0 14 -13 14q-12 0 -26 -12q-90 -78 -195 -78q-133 0 -229 92q-106 102 -107 281q0 135 88 254q117 158 336 157q203 0 297 -155q72 -121 72 -305q0 -98 -45 -230q-59 -170 -166 -284q-127 -135 -248 -209t-326 -146 q-25 -8 -24 25zM252 514q0 -123 57 -215q63 -102 162 -102q119 0 193 88q67 81 67 196q0 121 -59 211q-74 109 -209 109q-59 0 -121 -53q-90 -80 -90 -234z" />
<glyph unicode=":" horiz-adv-x="593" d="M215 96q0 39 25 70q33 45 100 45q47 0 82 -34t35 -89q0 -49 -34 -81t-83 -32q-43 0 -78 25q-47 33 -47 96zM215 737q0 39 25 70q33 45 100 45q47 0 82 -34t35 -89q0 -49 -34 -81t-83 -32q-43 0 -78 25q-47 33 -47 96z" />
<glyph unicode=";" horiz-adv-x="593" d="M174 -342q0 2 2 4q170 113 170 281q0 47 -33 61q-53 23 -67 33q-51 37 -51 102q0 41 30.5 69t85.5 28q61 0 115 -50q61 -59 61 -147q0 -125 -61 -223q-45 -72 -125 -129q-45 -29 -92 -60q-8 -4 -21.5 8.5t-13.5 22.5zM182 737q0 37 27 70q37 45 102 45q45 0 79 -34 t34 -89q0 -49 -33 -81t-80 -32t-82 25q-47 33 -47 96z" />
<glyph unicode="&#x3c;" horiz-adv-x="673" d="M111 522l438 899h108l-440 -899l440 -899h-108z" />
<glyph unicode="=" horiz-adv-x="552" d="M70 20q0 29 14 29q117 0 117 78v565q0 20 -23 21h-86q-14 0 -14 28q0 27 14 27q33 0 66 31q43 43 43 125q0 254 135 401q147 162 336 162q78 0 132 -29t54 -84q0 -35 -29.5 -62.5t-56.5 -27.5q-59 0 -106 59q-39 49 -95 50q-96 0 -153 -74q-49 -63 -60 -191 q-4 -43 -4 -227v-774q0 -78 144 -78q16 0 16 -29t-16 -28q-82 8 -213 8q-119 0 -201 -8q-14 0 -14 28z" />
<glyph unicode="&#x3e;" horiz-adv-x="673" d="M25 -377l438 899l-438 899h108l438 -899l-438 -899h-108z" />
<glyph unicode="?" horiz-adv-x="751" d="M211 1280q0 82 84 82q129 0 244 -131q118 -137 118 -301q0 -145 -82 -189l-165 -88q-74 -39 -74 -90q0 -53 20 -125q2 -14 -18 -18q-23 -4 -27 6q-76 139 -75 211q0 90 114 151l105 56q117 61 116 151q0 82 -49 129q-72 70 -243 70q-18 0 -43 25.5t-25 60.5zM221 86 q0 53 34 90t85 37q53 0 86 -37t33 -90q0 -49 -33 -83t-86 -34q-49 0 -84 33t-35 84z" />
<glyph unicode="@" horiz-adv-x="1144" d="M47 606q0 102 121 187q113 78 219 77q123 0 182 -84q12 -18 23 -18q2 0 31 23q100 80 208 79q100 0 179 -36q86 -41 86 -103q0 -39 -35 -53l-416 -172q-35 -14 -35 -90q0 -106 60 -201q74 -121 202 -121q102 0 197 76q4 4 10 4q29 0 29 -31q0 -6 -2 -10 q-115 -156 -330 -156q-147 0 -239 142q-12 18 -17 18q-6 0 -18 -16q-104 -131 -219 -131q-217 0 -217 170q0 125 104 200q41 31 192 93q104 43 105 88v108q0 143 -135 144q-102 0 -137 -52q-6 -49 -21 -123q-20 -66 -68 -65q-59 0 -59 53zM219 180q0 -106 115 -106 q33 0 75 34.5t66 71.5q19 29 17 39q-12 63 -27 170q-4 35 -21 35q-8 0 -22 -6q-203 -88 -203 -238zM350 1096q0 47 27 47h450q27 0 27 -45q0 -49 -31 -49h-446q-27 0 -27 47zM629 606q-4 -18 4 -26q8 -4 24 2l269 108q32 13 32 33q0 35 -45 60.5t-82 25.5q-76 0 -133 -66 q-49 -55 -69 -137z" />
<glyph unicode="A" horiz-adv-x="1499" d="M-6 33q0 41 16 41q90 0 133 27.5t76 113.5l404 1059q14 39 -3.5 56.5t-17.5 23.5q0 8 27 22q57 27 143 92q25 18 41 19q25 0 37 -47q27 -98 53 -178l357 -1063q41 -125 206 -125q16 0 17 -41q-1 -41 -17 -41q-82 8 -249 8q-164 0 -246 -8q-14 0 -15 41q0 41 15 41 q108 0 108 72q0 24 -10 53l-108 336q-10 34 -46 34h-2h-436q-31 0 -43 -37l-121 -337q-8 -25 -8 -43q0 -78 160 -78q16 0 16 -41t-16 -41q-82 8 -229 8q-143 0 -226 -8q-16 0 -16 41zM483 672q-2 -7 -2 -12q0 -17 25 -17h385q26 0 26 19q0 5 -2 10l-182 571q-6 20 -18 21 q-12 0 -21 -21z" />
<glyph unicode="B" horiz-adv-x="1341" d="M74 1415q0 41 14 41q154 -6 274 -6q43 0 157 3t155 3q201 0 315 -86q121 -92 121 -260q0 -211 -209 -311q-16 -8 -16 -15q0 -6 16 -12q119 -39 201 -123q108 -110 108 -270q0 -180 -135 -293q-113 -94 -401 -94q-59 0 -145.5 4t-149.5 4q-76 0 -281 -8q-14 0 -14 41 t14 41q193 0 193 125v1058q0 117 -203 117q-14 0 -14 41zM463 297q0 -236 196 -236q357 0 357 338q0 225 -238 310q-84 31 -278 32q-37 0 -37 -32v-412zM463 846q0 -41 84 -41q379 0 379 301q0 285 -408 285q-55 0 -55 -72v-473z" />
<glyph unicode="C" horiz-adv-x="1273" d="M74 1415q0 41 14 41q154 -6 285 -6q262 0 469 3l195 3h-1q35 0 39 -8q2 0 2 -27v-211q0 -14 -45 -14q-47 0 -47 14q0 139 -130 151.5t-349 12.5q-43 0 -43 -49v-1010q0 -249 188 -249h2h164q78 0 166 69q115 90 115 234q0 16 45 16t45 -16v-342q0 -25 -13.5 -30t-76.5 -5 q-8 0 -238.5 4t-486.5 4q-66 0 -271 -8q-14 0 -14 41t14 41q188 0 189 116v1067q0 117 -203 117q-14 0 -14 41z" />
<glyph unicode="D" horiz-adv-x="1636" d="M74 1415q0 41 14 41q154 -6 283 -6q113 0 212 3t171 3q334 0 551 -174q231 -187 231 -500q0 -375 -215 -589q-201 -201 -516 -201q-68 0 -187.5 4t-261.5 4q-53 0 -258 -8q-14 0 -14 41t14 41q193 0 193 125v1058q0 117 -203 117q-14 0 -14 41zM463 319q0 -172 82 -227 q51 -35 186 -35q254 0 420 179q180 194 180 532q0 250 -170 428q-188 195 -495 195q-106 0 -138 -11q-66 -25 -65 -114v-947z" />
<glyph unicode="E" horiz-adv-x="1351" d="M96 715q0 315 200 542.5t488 227.5q104 0 226 -37q137 -41 213 -111q49 -45 49 -92q0 -37 -29 -60.5t-67 -23.5q-45 0 -72 31q-98 117 -143 151q-82 66 -183 66q-209 0 -348 -192q-98 -137 -123 -349v-7q0 -38 41 -38h856q16 0 17 -41q0 -41 -17 -41h-856q-41 0 -41 -41 q0 -276 168 -456q137 -147 324 -148q127 0 221 33q84 29 203 107q4 4 10 4q37 0 37 -43q0 -11 -8 -17q-123 -102 -218 -147q-123 -61 -264 -62q-233 0 -422 146q-262 199 -262 598z" />
<glyph unicode="F" horiz-adv-x="1255" d="M76 1415q0 41 14 41q154 -6 283 -6q268 0 501.5 3t235.5 3q43 0 49 -2q29 -4 29 -31v-340q0 -18 -41 -18t-41 18q0 268 -277 281q-139 6 -323 10q-43 0 -43 -43v-530q0 -33 29 -33h176q84 0 108 43q16 27 17 96v125q0 16 38 17q37 0 37 -17q-8 -82 -8 -305q0 -221 8 -303 q0 -14 -37 -14q-39 0 -38 14v125q0 68 -17 96q-27 41 -108 41h-179q-27 0 -26 -27v-460q0 -125 201 -125q16 0 16 -41t-16 -41q-82 8 -285 8q-199 0 -281 -8q-14 0 -14 41t14 41q193 0 193 125v1058q0 117 -201 117q-14 0 -14 41z" />
<glyph unicode="G" horiz-adv-x="1439" d="M76 1415q0 41 14 41q154 -6 283 -6q260 0 491.5 3t237.5 3q55 0 70.5 -7t15.5 -28v-211q0 -18 -45 -18t-45 18q0 150 -135 150q-117 12 -453 12q-47 0 -47 -51v-1024q0 -109 49 -169t137 -60h166q88 0 143.5 54t55.5 142v436q0 20 -2 41v25q0 14 12 14l28 -3q29 -3 58 -3 q172 0 233 6q16 0 17 -39q-1 -41 -17 -41q-143 0 -143 -116v-557q0 -35 -82 -35q-6 0 -242.5 4t-502.5 4q-70 0 -275 -8q-14 0 -14 41t14 41q193 0 193 116v1067q0 117 -201 117q-14 0 -14 41z" />
<glyph unicode="H" horiz-adv-x="1415" d="M74 1372q0 41 14 41q109 0 285 62q29 10 45 10q40 0 40 -41q0 -6 -1 -12q-8 -78 -8 -175v-94q0 -25 14 -24q8 0 20 10q115 102 312 102q203 0 360 -139q176 -160 176 -418q0 -346 -201 -547q-153 -155 -309 -155h-2q-37 0 -100.5 79t-79.5 79q-49 0 -107 -242 q-2 -12 -26 -12q-50 0 -50 24q0 3 1 6q37 176 63 240q53 129 144 129q66 0 142.5 -97.5t100.5 -97.5q74 0 144 164q75 176 75 406v6q0 193 -98 332q-112 161 -303 161h-2q-131 0 -250 -151q-25 -31 -24 -78v-408q0 -197 -80 -329q-51 -86 -189 -207q-4 -4 -10 -4 q-20 0 -47 31.5t-27 54.5q0 10 6 14q66 55 120 153.5t54 172.5v768q0 72 -65 112q-53 33 -123 33q-14 0 -14 41z" />
<glyph unicode="I" horiz-adv-x="733" d="M74 1421q0 41 14 41q61 -6 291 -6q215 0 276 6q16 0 17 -41q0 -41 -17 -41q-109 0 -150.5 -25.5t-41.5 -97.5v-1058q0 -125 192 -125q16 0 17 -41q-1 -41 -17 -41q-82 8 -276 8q-197 0 -279 -8q-14 0 -14 41t14 41q190 0 191 125v1058q0 123 -203 123q-14 0 -14 41z" />
<glyph unicode="J" horiz-adv-x="768" d="M-104 -330q0 45 32.5 72t81.5 27q53 0 99.5 -31t62.5 -78q74 25 111 129q23 66 30 264q5 106 5 257q0 50 -1 106q-3 277 -4 277v-13v577q0 61 -59 92t-145 31q-14 0 -15 41q0 41 15 41q61 -6 292 -6q227 0 289 6q16 0 17 -41q-1 -41 -17 -41q-205 0 -205 -123v-577 q0 -156 -5 -333t-5 -175q0 -231 -57 -342q-63 -121 -162 -197q-106 -82 -221 -82q-41 0 -84 25q-55 35 -55 94z" />
<glyph unicode="K" horiz-adv-x="1431" d="M74 1421q0 41 14 41q61 -6 291 -6q223 0 285 6q16 0 16 -41t-16 -41q-201 0 -201 -123v-469q0 -31 22 -22q51 18 119 102l314 392q43 55 43 83q0 37 -70 37q-14 0 -14 41t14 41q61 -6 207 -6q121 0 182 6q16 0 16 -41t-16 -41q-61 0 -124.5 -26.5t-94.5 -65.5l-383 -465 q-14 -16 0 -32l491 -605q91 -112 260 -112h3q16 0 16 -41t-16 -41q-82 8 -293 8q-199 0 -281 -8q-14 0 -14 41t14 41q102 0 103 63q0 27 -27 62l-289 379q-76 100 -160 114q-23 4 -22 -24v-469q0 -125 192 -125q16 0 17 -41q0 -41 -17 -41q-82 8 -276 8q-199 0 -281 -8 q-14 0 -14 41t14 41q76 0 129 28q63 33 64 97v1058q0 123 -203 123q-14 0 -14 41z" />
<glyph unicode="L" horiz-adv-x="1441" d="M74 1421q0 41 14 41q61 -6 291 -6q209 0 270 6q16 0 17 -41q0 -41 -17 -41q-186 0 -186 -123v-960q0 -106 52 -171q48 -60 126 -60h12l336 14q113 4 193 82q90 90 90 244q0 16 43 16q41 0 41 -16v-377q0 -12 -4 -19q-10 -18 -84 -18q-8 0 -322.5 4t-572.5 4 q-106 0 -271 -8q-14 0 -14 37q0 45 21 45q182 0 182 116v1067q0 123 -203 123q-14 0 -14 41z" />
<glyph unicode="M" horiz-adv-x="2080" d="M98 764q0 281 159 501t378 220q125 0 233 -68q63 -41 174 -151q20 -20 35 -21q12 0 27 17q197 225 393 225q238 0 371 -232q112 -200 112 -487q0 -375 -245 -608q-154 -145 -199 -146q-41 0 -48 76t-32 76q-55 0 -117 -252q-2 -8 -18 -8q-20 0 -40.5 8t-18.5 18 q90 403 190 404q37 0 92 -64q20 -23 39 -65q14 -33 25 -33q45 0 104 180q63 197 64 414q0 231 -84 403q-94 188 -242 189q-96 0 -174 -53q-41 -29 -117 -109q-35 -37 -35 -104v-779q0 -68 -6 -176t-6 -125.5t-74 -17.5t-74 17q0 27 -6 127q-6 108 -6 175v676 q0 131 -123.5 264.5t-248.5 133.5q-88 0 -160 -97q-117 -160 -117 -530q0 -221 90 -402q63 -131 150 -200q12 -10 32 -10q16 0 48 7t45 7q23 0 22 -14q0 -34 -41 -100q-35 -55 -56 -56q-4 0 -7 2q-236 131 -346 283q-141 193 -142 485z" />
<glyph unicode="N" horiz-adv-x="1589" d="M59 1421q0 41 15 41q61 -6 147 -6h119q70 -8 104 -53l813 -1047q10 -14 23 -14q27 0 27 35v878q0 125 -183 125q-14 0 -14 41t14 41q61 -6 222 -6q119 0 180 6q16 0 16 -41t-16 -41q-78 0 -112 -26.5t-34 -98.5v-1224q0 -53 -20 -54q-16 0 -43 33l-930 1174 q-12 16 -22 16q-12 0 -13 -22v-979q0 -125 170 -125q16 0 17 -41q0 -41 -17 -41q-82 8 -205 8q-139 0 -221 -8q-14 0 -14 41t14 41q180 0 180 125v991q0 109 -47 149.5t-155 40.5q-14 0 -15 41z" />
<glyph unicode="O" horiz-adv-x="1566" d="M98 715q0 276 176 510q197 260 519 260q252 0 430 -164q260 -239 260 -610q0 -238 -144 -449q-199 -291 -551 -291q-227 0 -411 135q-113 82 -189 228q-90 174 -90 381zM303 778q0 -358 191 -565q147 -162 309 -162q266 0 391 254q84 172 84 389q0 311 -170 527 q-150 188 -322 188q-182 0 -301 -123q-88 -90 -137 -239q-45 -133 -45 -269z" />
<glyph unicode="P" horiz-adv-x="1249" d="M74 1419q0 37 14 37q154 -6 285 -6q66 0 158 3t159 3q215 0 354 -102q152 -109 152 -299q0 -197 -139 -306.5t-373 -109.5q-127 0 -186 6q-35 4 -35 -35v-411q0 -125 199 -125q16 0 16 -41t-16 -41q-82 8 -283 8q-197 0 -279 -8q-14 0 -14 41t14 41q190 0 191 125v1058 q0 123 -203 123q-14 0 -14 39zM463 758q0 -37 35 -43q68 -10 120 -10q394 0 394 350q0 139 -107 233q-113 100 -297 101q-102 0 -96 0q-49 -4 -49 -33v-598z" />
<glyph unicode="Q" horiz-adv-x="1581" d="M98 715q0 276 176 510q197 260 519 260q252 0 430 -164q260 -240 260 -610q0 -238 -144 -449q-102 -152 -243 -221q-18 -10 -19 -25q0 -14 15 -24q90 -68 247 -144q207 -98 428 -153q16 -4 17 -31q0 -50 -24 -50q-2 0 -5 1q-451 88 -1218 395q-39 14 -160 96 q-113 76 -191 226q-88 174 -88 383zM303 778q0 -358 191 -565q147 -162 309 -162q266 0 391 254q84 172 84 389q0 311 -170 527q-150 188 -322 188q-182 0 -301 -123q-88 -90 -137 -239q-45 -133 -45 -269z" />
<glyph unicode="R" horiz-adv-x="1507" d="M74 1415q0 41 14 41q154 -6 285 -6q78 0 173 3t144 3q246 0 386.5 -103.5t140.5 -297.5q0 -293 -285 -373q-16 -4 -17 -20q0 -16 17 -41q156 -272 385 -492q119 -113 199 -113q16 0 16 -18q0 -19 -16 -21q-39 -2 -74 -2q-170 0 -256 56q-137 90 -254 254 q-80 119 -160 237q-70 88 -90 102.5t-79.5 14.5t-113.5 6q-27 2 -26 -24v-422q0 -125 207 -125q16 0 16 -41t-16 -41q-82 8 -291 8q-199 0 -281 -8q-14 0 -14 41t14 41q193 0 193 125v1058q0 117 -203 117q-14 0 -14 41zM463 756q0 -33 29 -39q68 -12 126 -12q414 0 414 350 q0 141 -108 233q-117 100 -316 101q-102 0 -96 0q-49 -4 -49 -33v-600z" />
<glyph unicode="S" horiz-adv-x="1118" d="M113 358q0 227 258 344q33 14 -4 35q-78 43 -117 84q-102 104 -103 305q0 139 129 263q100 96 287 96q109 0 221 -25q82 -18 103 -18h4q29 -102 41 -277q2 -25 -41 -24q-31 0 -33 14q-20 115 -106 193q-71 65 -205 65h-4q-125 0 -191 -80q-55 -68 -55 -159 q0 -123 61 -185q72 -72 234 -123q135 -43 190 -67q90 -43 140 -103q90 -110 90 -278q0 -190 -107 -314q-117 -133 -311 -133q-236 0 -371 138q-111 111 -110 249zM301 348q0 -92 80 -184q98 -113 244 -113q78 0 151 60q88 75 88 198q0 143 -96 232q-72 66 -219 114l-31 11 q-14 4 -26 4q-17 0 -31 -8q-160 -94 -160 -314z" />
<glyph unicode="T" horiz-adv-x="1699" d="M37 1079v342q0 27 33 33q6 2 53 2q6 0 237.5 -3t487.5 -3q260 0 492.5 3t238.5 3q53 0 68.5 -7t15.5 -28v-342q0 -18 -41 -18t-41 18q0 272 -285 285q-119 4 -305 10h-4q-51 0 -51 -49v-1126q0 -125 203 -125q16 0 16 -41t-16 -41q-82 8 -285 8q-219 0 -301 -8 q-14 0 -14 41t14 41q74 0 135 28q76 35 76 97v1126q0 49 -51 49q-143 -2 -310 -10q-284 -12 -284 -283q0 -20 -41 -20t-41 18z" />
<glyph unicode="U" horiz-adv-x="1605" d="M61 1421q0 41 15 41q61 -6 289 -6q244 0 305 6q16 0 16 -41t-16 -41q-129 0 -175 -28.5t-46 -94.5v-520q0 -63 6 -157q6 -106 6 -123q4 -168 65 -258q100 -147 326 -148q199 0 305.5 110.5t106.5 360.5v735q0 123 -201 123q-14 0 -14 41t14 41q61 -6 260 -6q190 0 252 6 q16 0 16 -41t-16 -41q-193 0 -193 -123v-303q0 -301 -12 -467q-18 -258 -170 -393q-137 -123 -387 -123q-168 0 -274 43q-176 72 -228 273q-35 135 -35 291v679q0 123 -200 123q-14 0 -15 41z" />
<glyph unicode="V" horiz-adv-x="1380" d="M20 1421q0 41 15 41q61 -6 246 -6q184 0 245 6q16 0 17 -41q0 -41 -17 -41q-153 0 -153 -76q0 -21 8 -47l326 -944q8 -23 18 -22q12 0 20 24l342 932q10 27 11 49q0 84 -109 84q-14 0 -14 41t14 41q61 -6 207 -6q147 0 209 6q16 0 16 -41t-16 -41q-164 0 -201 -92 l-510 -1302q-10 -27 -28 -27t-35 47l-438 1251q-43 123 -158 123q-14 0 -15 41z" />
<glyph unicode="W" horiz-adv-x="1193" d="M31 1415q0 41 14 41q154 -6 287 -6q111 0 422 3t395 3q72 0 72 -59q-1 -13 -7 -23l-708 -1171q-61 -102 -68 -115q-20 -45 -20 -106v-265q0 -63 -90 -143q-23 -20 -170 -129q-4 -2 -8 -2q-20 0 -46 31.5t-26 56.5q0 10 6 14q162 127 162 215v1497q0 117 -201 117 q-14 0 -14 41zM418 285q0 -27 16 -27q14 0 25 18l661 1072q4 6 4 11q0 4 -2 7q-6 10 -18 10q-43 -2 -651 -2q-35 0 -35 -39v-1050z" />
<glyph unicode="X" horiz-adv-x="1427" d="M-47 33q0 41 16 41q172 0 242 92l401 532q16 23 -4 54l-348 512q-45 66 -96 91t-144 25q-14 0 -14 41t14 41q61 -6 293 -6q244 0 305 6q16 0 17 -41q0 -41 -17 -41q-151 0 -151 -62q0 -26 25 -63l225 -350q23 -35 49 0l258 342q39 53 39 84q0 49 -92 49q-14 0 -15 41 q0 41 15 41q61 -6 217 -6q150 0 211 6q16 0 16 -41t-16 -41q-106 0 -171 -40t-163 -169l-258 -337q-12 -15 -12 -31q0 -14 10 -29l371 -575q80 -125 258 -125q16 0 16 -41t-16 -41q-82 8 -277 8q-193 0 -274 -8q-14 0 -15 41q0 41 15 41q121 0 121 57q0 31 -29 74l-283 420 q-23 33 -45 0l-219 -301q-102 -141 -102 -197q0 -53 129 -53q16 0 16 -41t-16 -41q-82 8 -250 8q-154 0 -236 -8q-16 0 -16 41z" />
<glyph unicode="Y" horiz-adv-x="1325" d="M-31 1421q0 41 17 41q61 -6 254 -6q195 0 256 6q16 0 16 -41t-16 -41q-129 0 -129 -61q0 -25 22 -62l301 -507q16 -29 35 0l319 497q29 45 29 76q0 57 -119 57q-14 0 -14 41t14 41q61 -6 217 -6q145 0 207 6q16 0 17 -41q-1 -41 -17 -41q-94 0 -150.5 -44t-158.5 -201 l-248 -379q-59 -92 -70.5 -124t-11.5 -108v-325q0 -125 176 -125q16 0 17 -41q0 -41 -17 -41q-82 8 -258 8q-184 0 -266 -8q-14 0 -14 41t14 41q94 0 135 25.5t41 99.5v323q0 78 -9 106.5t-66 123.5l-304 505q-74 123 -202 123q-16 0 -17 41z" />
<glyph unicode="Z" horiz-adv-x="1331" d="M92 31q0 12 8 24l938 1284q8 10 9 21q0 25 -33 24h-594q-41 0 -81 -31.5t-91 -140t-60 -165.5q-2 -10 -28 -7q-27 4 -25 15q8 61 25 200q2 63 10 189q3 21 36 21q13 0 30 -3q82 -12 647 -12q76 0 199.5 6t195.5 6q27 0 27 -18q0 -12 -15 -31l-925 -1286q-8 -12 -9 -25 q0 -29 31 -28q391 0 686 14q70 4 146 125q57 90 79 164q2 10 29 2q25 -8 25 -18l-35 -183q-6 -78 -14 -186q-2 -27 -19 -27q-4 0 -24.5 5t-34.5 7q-166 23 -707 23h-391q-35 0 -35 31z" />
<glyph unicode="[" horiz-adv-x="724" d="M287 -332v1843q0 18 20 19h365q20 0 20 -33q0 -45 -26 -45h-220q-20 0 -20 -22v-1678q0 -29 14 -28h246q23 0 23 -39t-23 -39h-377q-23 0 -22 22z" />
<glyph unicode="\" horiz-adv-x="716" d="M4 1432q-6 16 25.5 32.5t58.5 16.5q16 0 18 -6l607 -1450q4 -12 -28 -27.5t-56 -15.5q-14 0 -17 6z" />
<glyph unicode="]" horiz-adv-x="724" d="M16 -313q0 37 21 37h250q12 0 12 24v1682q0 23 -18 22h-224q-25 0 -24 43q0 35 20 35h365q20 0 20 -19v-1843q0 -23 -22 -22h-377q-23 0 -23 41z" />
<glyph unicode="^" horiz-adv-x="1884" d="M-137 33q0 41 16 41q78 0 125 35q39 29 80 100l604 1073q16 31 17 49q0 43 -89 43q-14 0 -14 41t14 41q154 -6 338 -6q238 0 409 3t259 3q47 0 59.5 -6t12.5 -29v-342q0 -18 -39 -18q-41 0 -41 18q0 147 -105 230q-80 66 -176 67l-289 6q-43 0 -43 -43v-577q0 -37 37 -37 h228q109 0 108 100v101q0 16 37 16t37 -16q-6 -61 -6 -236q0 -162 6 -223q0 -14 -37 -14t-37 14v90q0 94 -108 94h-228q-37 0 -37 -37v-292q0 -102 43 -177q49 -82 136 -79l256 8q84 2 161 65q104 84 105 230q0 18 41 18q39 0 39 -18v-349q0 -29 -107 -28q-12 0 -259 4 t-515 4q-90 0 -254 -8q-14 0 -14 41t14 41q84 0 123 16q59 27 59 100v424q0 37 -36 37h-340q-29 0 -43 -26l-226 -445q-12 -25 -12 -43q0 -63 162 -63q16 0 16 -41t-16 -41q-82 8 -244 8q-129 0 -211 -8q-16 0 -16 41zM485 756q-16 -31 19 -31h289q36 0 36 37v514 q0 29 -22 29q-18 0 -31 -23zM948 1624q0 23 23 39l411 299q8 6 19 6q27 0 55.5 -32.5t28.5 -61.5q-1 -23 -19 -33l-450 -242q-16 -8 -31 -8q-37 0 -37 33z" />
<glyph unicode="_" horiz-adv-x="1024" d="M0 -154h1024v-102h-1024v102z" />
<glyph unicode="`" horiz-adv-x="569" d="M113 1419q0 25 32.5 46.5t67.5 21.5q31 0 41 -23l207 -467q4 -10 4 -20q0 -37 -35 -37q-25 0 -41 27l-270 434q-6 8 -6 18z" />
<glyph unicode="a" horiz-adv-x="796" d="M74 604q0 47 34.5 106.5t75.5 84.5q121 75 243 75h3q74 0 139.5 -39.5t65.5 -99.5v-532q0 -115 67 -115q33 0 72 37q8 9 24 -7q12 -11 13 -20q0 -3 -2 -6q-31 -53 -47 -68q-45 -43 -121 -43q-106 0 -143 136q-76 -76 -109 -97q-59 -39 -139 -39q-76 0 -121 52.5 t-45 132.5q0 104 145 203q117 63 232 129q20 12 20 43v170q0 88 -133 88q-100 0 -135 -50q-10 -14 -12 -55q-4 -49 -8 -69q-18 -68 -62 -68q-57 0 -57 51zM264 115q31 -37 84 -37q45 0 89 41t44 80v215q0 22 -14 22h-4q-4 -2 -10 -4q-102 -51 -142 -86q-73 -65 -73 -156 q0 -45 26 -75z" />
<glyph unicode="b" horiz-adv-x="1001" d="M51 1339q0 27 15 27q29 0 106.5 41t106.5 66q14 12 24 12q16 0 14 -25q-6 -129 -6 -176v-448q0 -27 15 -27q2 0 70.5 30.5t123.5 30.5q178 0 297 -135q113 -129 113 -305q0 -190 -92 -311q-106 -141 -314 -142q-47 0 -111.5 28t-101.5 28q-23 0 -53 -23q-20 -16 -41 -33 q-3 -2 -8 -2q-9 -1 -27 7q-28 12 -28 18q4 66 4 260v918q0 133 -92 133q-14 0 -15 28zM311 301q0 -84 72 -170q80 -94 180 -94q94 0 146 117q47 102 47 264q0 147 -72 256q-78 117 -203 117q-88 0 -147 -50q-23 -18 -23 -94v-346z" />
<glyph unicode="c" horiz-adv-x="817" d="M86 385q0 195 119 336q124 149 305 149h2q205 0 244 -73q6 -17 6 -32q0 -32 -25 -60q-20 -23 -37 -23q-14 0 -26 14q-51 57 -62 66q-51 41 -118 41q-88 0 -162 -96q-84 -109 -84 -271q0 -154 96 -256q86 -90 188 -90q84 0 140 25q35 16 67 35q12 6 26.5 -11.5t14.5 -32.5 q0 -8 -4 -10q-53 -35 -104 -69q-98 -49 -223 -50q-147 0 -255 118t-108 290z" />
<glyph unicode="d" horiz-adv-x="997" d="M39 938q0 100 176 188q2 1 4 1q9 0 19 -13q12 -16 12 -29q0 -2 -49 -33.5t-49 -78.5q0 -82 167 -96q68 -6 189 -7q205 0 315 -129q103 -120 103 -327q0 -180 -123 -308.5t-301 -128.5q-172 0 -289 101q-129 111 -129 297q0 195 182 315q14 8 15 19q0 10 -25 12 q-109 10 -166 80q-51 59 -51 137zM297 174q74 -133 225 -133q141 0 219 133q64 112 64 262q0 133 -84 207t-215 74h-43q-37 0 -60 -15q-157 -103 -157 -304q0 -128 51 -224z" />
<glyph unicode="e" d="M84 436q0 174 115 307q113 127 252 127q141 0 239 -108q78 -86 78 -158q0 -55 -51 -55h-449q-31 0 -30 -66q0 -160 73 -268q80 -121 215 -121q61 0 137 31t74 31q29 0 29 -29q0 -6 -4 -10q-154 -139 -320 -140q-145 0 -251.5 138.5t-106.5 320.5zM262 629q2 -12 23 -13 h321q15 1 15 17q0 45 -50 108q-55 70 -118 70q-127 0 -189 -166q-3 -7 -3 -12q0 -2 1 -4z" />
<glyph unicode="f" horiz-adv-x="849" d="M63 -520q0 12 9 16l80 53q23 14 22 58v903q0 96 -6 123q-14 69 -76 69h-2q-14 0 -14 29q0 27 14 27q63 0 199 110q16 14 26 15q18 0 17 -37q-4 -55 -4 -150q0 -39 20 -39q10 0 21 13q72 86 162 143t155 57q61 0 105 -30q53 -39 53 -113q0 -47 -25.5 -81t-70.5 -34 q-59 0 -92 52.5t-70 52.5q-92 0 -180 -105q-78 -94 -78 -168v-303q0 -35 8 -44t43 -9h330q27 0 26 -43q0 -45 -26 -45h-330q-51 0 -51 -51v-367q0 -57 -58 -78l-176 -61q-2 -1 -5 -1q-7 0 -15 10q-11 13 -11 28z" />
<glyph unicode="g" horiz-adv-x="933" d="M51 -180q0 111 116 212t253 118q12 2 14 8q0 8 -12 16q-117 70 -152 98q-76 61 -75 125q0 88 262 332q29 27 -11 27h-366q-18 0 -19 14q0 14 39 86q10 25 23.5 54.5t30.5 29.5q45 0 39 -25q-6 -23 -7 -36q0 -39 68 -43q-4 0 252 0q139 0 405 14q25 2 25 -51 q0 -43 -23 -43h-299q-37 0 -61 -29q-197 -227 -197 -317q0 -84 176 -195q133 -78 265 -154q131 -90 131 -235q0 -168 -124 -275.5t-302 -107.5q-166 0 -312 127q-139 121 -139 250zM213 -180q0 -109 84 -209q92 -109 207 -109q106 0 188 115q72 105 72 209t-72 180 q-80 88 -215 88q-131 0 -205 -98q-59 -78 -59 -176z" />
<glyph unicode="h" horiz-adv-x="1093" d="M66 20q0 29 14 29q121 0 121 78v1047q0 139 -92 139q-14 0 -15 28q0 27 15 27q33 0 110 43q70 37 105 66q12 10 22 10q14 0 14 -17q-6 -147 -6 -219v-460q0 -18 11 -25q12 -4 22 8q92 96 248 96q143 0 223 -120q63 -92 64 -201v-422q0 -78 127 -78q16 0 16 -29 q0 -28 -16 -28q-82 8 -203 8q-109 0 -191 -8q-14 0 -14 28q0 29 14 29q113 0 113 78v420q0 84 -51 155q-57 78 -142 78q-92 0 -161 -55q-59 -47 -60 -96v-502q0 -78 111 -78q16 0 16 -29q0 -28 -15 -28h-1q-82 8 -191 8q-113 0 -194 -8q-14 0 -14 28z" />
<glyph unicode="i" horiz-adv-x="524" d="M74 20q0 29 14 29q113 0 113 78v405q0 84 -8 111q-16 59 -76 59q-14 0 -15 29q0 27 15 27q57 0 202 114q12 10 23 11q20 0 18 -21q-6 -80 -6 -215v-520q0 -78 111 -78q16 0 16 -29q0 -28 -16 -28q-82 8 -180 8q-115 0 -197 -8q-14 0 -14 28z" />
<glyph unicode="j" horiz-adv-x="518" d="M-125 -459q0 29 23.5 49.5t54.5 20.5q45 0 88 -39t65 -39q98 0 99 213v786q0 170 -88 170q-14 0 -15 29q0 27 15 27q31 0 102 41q59 35 98 65q23 18 33 19q17 0 17 -22l-9 -269v-463q0 -195 -10 -272q-23 -172 -100 -281q-95 -131 -243 -131h-17q-37 2 -72 27 q-41 31 -41 69zM150 1319q0 45 30.5 75.5t75.5 30.5t77 -30.5t32 -75.5t-31 -77t-78 -32q-45 0 -75.5 32t-30.5 77z" />
<glyph unicode="k" horiz-adv-x="1007" d="M72 20q0 29 14 29q115 0 115 78v1044q0 139 -92 140q-14 0 -15 28q0 27 15 27q31 0 114 45q76 41 105 66q12 10 18 10q14 0 14 -19q-6 -152 -6 -221v-725q0 -41 33 -43q7 -1 14 -1q46 0 66 24l197 221q27 29 26 47q0 33 -96 33q-14 0 -14 26q0 27 14 27q61 -6 180 -6 q123 0 184 6q16 0 17 -27q0 -27 -17 -26q-94 0 -163 -68l-213 -205q-18 -18 -19 -34q0 -16 17 -35l321 -367q39 -45 129 -45q16 0 17 -29q0 -28 -16 -28h-1q-82 8 -203 8q-119 0 -200 -8q-14 0 -15 28q0 29 15 29q82 0 82 29q0 14 -31 49l-221 254q-28 31 -73 31h-11 q-18 -2 -19 -43v-242q0 -78 119 -78q16 0 16 -29q0 -28 -15 -28h-1q-82 8 -188 8q-117 0 -199 -8q-14 0 -14 28z" />
<glyph unicode="l" horiz-adv-x="524" d="M70 20q0 29 14 29q117 0 117 78v1044q0 139 -92 140q-14 0 -15 28q0 27 15 27q31 0 108.5 41t112.5 70q10 8 18 8q14 0 12 -15q-6 -63 -6 -172v-1171q0 -78 119 -78q16 0 16 -29q0 -28 -16 -28q-82 8 -188 8q-119 0 -201 -8q-14 0 -14 28z" />
<glyph unicode="m" horiz-adv-x="1609" d="M66 20q0 29 14 29q121 0 121 78v401q0 100 -15 134q-16 40 -66 40h-3q-14 0 -15 29q0 27 15 27q29 0 100 45q59 35 94 63q18 16 33 17q16 0 14 -27q-4 -61 -4 -84q0 -16 11 -20q8 -2 18 8q103 110 249 110h3q143 0 217 -122q10 -16 18 -17q6 0 21 14q113 125 274 125 q113 0 176 -61q55 -63 64 -80q35 -61 35 -164v-438q0 -78 116 -78q16 0 17 -29q-1 -28 -17 -28q-82 8 -194 8q-104 0 -186 -8q-14 0 -15 28q0 29 15 29q111 0 110 78v453q0 119 -55 159.5t-144 40.5q-86 0 -138 -79.5t-52 -223.5v-350q0 -78 115 -78q16 0 16 -29 q0 -28 -15 -28h-1q-82 8 -195 8q-102 0 -184 -8q-14 0 -15 28q0 29 15 29q111 0 110 78v405q0 172 -57 222q-30 26 -118 26h-7q-51 0 -123 -53q-84 -61 -84 -137v-463q0 -78 107 -78q16 0 16 -29q0 -28 -15 -28h-1q-82 8 -189 8q-111 0 -192 -8q-14 0 -14 28z" />
<glyph unicode="n" horiz-adv-x="1069" d="M72 20q0 29 14 29q115 0 115 78v401q0 98 -13 131q-16 43 -71 43q-14 0 -15 29q0 27 15 27q57 0 188 104q25 20 37 21q14 0 14 -31q-2 -68 -2 -74q0 -12 8 -18q10 -6 21 4q106 106 254 106q158 0 227 -147q33 -68 33 -248v-348q0 -78 115 -78q16 0 16 -29q0 -28 -16 -28 q-82 8 -183 8q-115 0 -196 -8q-14 0 -15 28q0 29 15 29q111 0 110 78v403q0 174 -55 224q-30 26 -118 26h-7q-53 0 -125 -53q-84 -61 -84 -137v-463q0 -78 107 -78q16 0 16 -29q0 -28 -15 -28h-1q-82 8 -185 8q-109 0 -190 -8q-14 0 -14 28z" />
<glyph unicode="o" horiz-adv-x="995" d="M84 424q0 172 125 309t295 137q178 0 301 -139q119 -131 119 -305q0 -180 -105 -307q-117 -141 -313 -142q-172 0 -299 142q-123 135 -123 305zM246 420q0 -172 86 -281q76 -96 172 -96t172 96q84 109 84 281q0 176 -84 291q-76 100 -170 100q-96 0 -172 -100 q-88 -115 -88 -291z" />
<glyph unicode="p" horiz-adv-x="970" d="M45 -530q0 27 33 32q57 10 63 13q33 16 33 67v946q0 82 -8 113q-18 63 -78 64q-14 0 -14 28q0 27 14 27q29 0 94 37q57 31 94 61q29 25 43 25t13 -33l-4 -63v1q0 -20 18 -20q8 0 16 8q86 94 187 94q154 0 256 -112q96 -106 96 -260q0 -281 -106 -406q-96 -115 -293 -115 q-94 0 -137 19q-6 2 -13 2q-25 0 -24 -33v-381q0 -86 151 -86q16 0 17 -28q0 -29 -17 -29q-82 8 -225 8q-113 0 -195 -8q-14 0 -14 29zM328 205q0 -164 204 -164q88 0 146 129q49 111 49 250q0 368 -218 368h-1q-84 0 -160 -100q-20 -27 -20 -94v-389z" />
<glyph unicode="q" horiz-adv-x="931" d="M84 498q0 156 98.5 264t253.5 108q129 0 244 -59l119 55q12 6 27.5 -8t15.5 -27q0 -6 -4 -10q-27 -25 -27 -299v-940q0 -84 133 -84q16 0 17 -28q-1 -29 -17 -29q-82 8 -207 8q-131 0 -213 -8q-14 0 -14 29t14 28q133 0 133 86v379q0 37 -22 37q-4 0 -10 -2 q-59 -20 -142 -21q-199 0 -293 111q-106 125 -106 410zM258 420q0 -139 49 -250q57 -129 146 -129q204 0 204 164v418q0 39 -14 59q-86 106 -166 106q-219 0 -219 -368z" />
<glyph unicode="r" horiz-adv-x="1021" d="M63 -520q0 12 9 16l80 53q23 14 22 58v921q0 92 -10 125q-16 49 -74 49q-14 0 -14 29q0 27 14 27q66 0 189 104q23 20 36 21q18 0 17 -29q-4 -59 -4 -66q0 -29 18 -28q10 0 21 10q109 100 243 100q158 0 230 -151q30 -61 30 -233v-11v-256q0 -98 48 -98q14 0 38 8 q8 4 20.5 -15.5t12.5 -33.5q0 -10 -6 -12q-33 -10 -174 -62q-111 -43 -164 -76q-10 -4 -21.5 13.5t-11.5 33.5q0 10 6 13q57 25 78 52.5t21 84.5v403q0 172 -53 222q-30 28 -117 28h-6q-57 0 -129 -53q-84 -61 -84 -137v-1008q0 -57 -58 -78l-176 -61q-2 -1 -5 -1 q-7 0 -15 10q-10 13 -11 28z" />
<glyph unicode="s" horiz-adv-x="690" d="M63 -520q0 12 9 16l80 53q23 14 22 58v891q0 121 -10 155q-16 49 -74 49q-14 0 -14 29q0 27 14 27q29 0 98 41q59 35 86 59.5t41 24.5q20 0 17 -29q-4 -33 -4 -94q0 -31 16 -31q12 0 25 19q87 122 211 122h2q43 0 76.5 -28.5t33.5 -71.5t-27.5 -71.5t-60.5 -28.5 q-25 0 -58.5 24.5t-72.5 24.5q-61 0 -103 -62.5t-42 -162.5v-912q0 -57 -58 -78l-176 -61q-2 -1 -5 -1q-7 0 -15 10q-10 13 -11 28z" />
<glyph unicode="t" horiz-adv-x="917" d="M20 768q0 23 33 86q10 25 24.5 54.5t31.5 29.5q43 0 37 -25t-7 -41q0 -38 39 -38h2q62 -1 129.5 -1t139.5 1q145 2 258 6q47 4 120 10h2q21 0 21 -53q-1 -43 -21 -43h-337q-41 0 -72 -43q-80 -109 -80 -285q0 -125 58.5 -221t142.5 -96q119 0 225 200q2 6 12 6 q12 0 27.5 -10t11.5 -20q-59 -139 -98 -189q-90 -119 -232 -119q-127 0 -218 117t-91 283q0 207 135 340q12 12 13 20q0 16 -31 17h-262q-12 0 -13 14z" />
<glyph unicode="u" horiz-adv-x="1036" d="M49 809q0 27 14 27q102 0 168 9t91 9q16 0 14 -20q-8 -113 -8 -158v-342q0 -102 32 -170q41 -90 125 -90q92 0 160 52t68 126v381q0 147 -111 147q-14 0 -14 29q0 27 14 27q119 0 178.5 9t69.5 9q25 0 22 -27q-6 -78 -6 -139v-432q0 -86 8 -115q16 -59 72 -59q20 0 45 6 t25 -39q0 -16 -8 -18q-43 -8 -142 -29q-53 -14 -131 -33h-3q-20 0 -19 47v41q0 23 -13 23q-10 0 -26 -14q-96 -88 -234 -89q-113 0 -194 121q-72 102 -72 203v332q0 147 -111 147q-14 0 -14 29z" />
<glyph unicode="v" d="M-4 829q0 27 16 27q61 -6 172 -6q121 0 183 6q16 0 16 -27t-16 -26q-80 0 -80 -55q0 -12 6 -29l160 -490q6 -18 14 -18t14 18l170 498q4 12 4 23q0 53 -96 53q-14 0 -14 26q0 27 14 27q61 -6 146 -6q82 0 143 6q16 0 16 -27t-16 -26q-96 0 -121 -72l-250 -715 q-14 -39 -45 -39q-27 0 -37 27l-280 727q-29 72 -103 72q-16 0 -16 26z" />
<glyph unicode="w" horiz-adv-x="892" d="M63 -520q0 12 9 16l80 53q23 14 22 58v891q0 115 -8 143q-14 61 -76 61q-14 0 -14 29q0 27 14 27q29 0 100 43q59 37 89 61q23 20 36 21q20 0 17 -29q-4 -23 -4 -57q0 -20 14 -21q8 0 18 10q74 84 166 84q133 0 222 -90q94 -96 94 -260q0 -236 -185 -395 q-145 -129 -299 -145q-31 -4 -30 -31v-367q0 -57 -58 -78l-176 -61q-2 -1 -5 -1q-7 0 -15 10q-10 13 -11 28zM328 90q0 -38 28 -38q5 0 11 1q125 23 213 150t88 272q0 135 -39 223q-43 98 -127 99q-78 0 -150 -117q-25 -39 -24 -94v-496z" />
<glyph unicode="x" horiz-adv-x="917" d="M8 20q0 29 15 29q94 0 147 68l225 282q16 20 0 45l-207 289q-49 70 -98 70q-14 0 -14 26q0 27 14 27q61 -6 168 -6q113 0 174 6q16 0 17 -27q0 -27 -17 -26q-76 0 -76 -39q0 -16 17 -43l110 -176q18 -29 39 0l121 160q27 35 27 57q0 41 -82 41q-14 0 -15 26q0 27 15 27 q61 -6 157 -6q76 0 138 6q16 0 16 -27t-16 -26q-66 0 -125 -72l-195 -237q-23 -29 -4 -56l211 -305q57 -84 148 -84q16 0 16 -29q0 -28 -15 -28h-1q-82 8 -183 8q-129 0 -211 -8q-14 0 -14 28q0 29 14 29q96 0 97 31q0 14 -23 49l-137 215q-16 25 -33 0l-143 -199 q-35 -47 -35 -67q0 -29 67 -29q16 0 17 -29q0 -28 -16 -28h-1q-82 8 -151 8q-61 0 -143 -8q-14 0 -15 28z" />
<glyph unicode="y" d="M-55 829q0 27 16 27q61 -6 182 -6q127 0 189 6q16 0 16 -27t-16 -26q-98 0 -99 -55q0 -14 7 -29l174 -504q10 -31 24 -31q16 0 29 33l195 502q6 14 6 26q0 49 -72 52.5t-72 31.5q0 27 15 27q61 -6 168 -6q98 0 159 6q16 0 17 -27q0 -27 -17 -26q-98 0 -125 -72 l-442 -1149q-23 -61 -73 -98t-105 -37q-33 0 -61.5 24.5t-28.5 51.5q0 76 88 76q100 0 127 63l96 240q8 18 8 39q0 24 -10 51l-258 739q-25 72 -121 72q-16 0 -16 26zM319 1350q0 39 28 65.5t65 26.5t63.5 -26.5t26.5 -65.5q0 -37 -26.5 -63.5t-63.5 -26.5t-65 26.5 t-28 63.5z" />
<glyph unicode="z" horiz-adv-x="735" d="M57 23l398 729q23 41 -21 41h-158q-61 0 -116 -82q-20 -33 -76 -148q-2 -4 -8 -4q-14 0 -15 10l37 267q4 34 22 34h1q4 0 61.5 -10t118.5 -10h346q23 0 10 -23l-397 -723q-6 -10 -6 -20q0 -18 29 -21q45 -2 139 -2q109 2 170 72q31 37 80 152q4 10 22 6q19 -5 19 -15 q-31 -229 -31 -276q0 -27 -27 -27q-12 0 -68.5 13.5t-94.5 13.5h-420q-6 0 -12 7q-4 4 -5 9q0 4 2 7z" />
<glyph unicode="{" horiz-adv-x="1067" d="M90 20q0 29 14 29q117 0 117 76v563q0 25 -24 25h-82q-16 0 -17 28q0 27 17 27q33 0 63 31q43 43 43 125q0 217 131 364q143 162 340 162q111 0 185 -94q137 131 309 131q78 0 132 -29t54 -84q0 -35 -29.5 -62.5t-56.5 -27.5q-59 0 -106 59q-39 49 -95 50q-98 0 -155 -74 q-47 -61 -60 -191q-2 -35 -2 -227v-774q0 -78 142 -78q16 0 16 -29t-16 -28q-82 8 -215 8q-115 0 -197 -8q-14 0 -14 28q0 29 14 29q117 0 117 76v565q0 23 -25 23h-84q-16 0 -16 28q0 27 16 27q33 0 66 31q43 43 43 125q0 188 69 305q-63 127 -192 127q-98 0 -158 -74 q-49 -61 -59 -172v-209v-774q0 -78 117 -78q16 0 16 -29t-16 -28q-82 8 -195 8q-111 0 -193 -8q-14 0 -14 28z" />
<glyph unicode="|" horiz-adv-x="1069" d="M72 20q0 29 14 29q117 0 117 76v563q0 25 -25 25h-82q-14 0 -14 28q0 27 14 27q45 0 76 47t31 109q0 254 135 401q147 162 356 162q74 0 142 -37q55 35 57 35q14 0 12 -15q-6 -63 -6 -172v-1171q0 -78 119 -78q16 0 16 -29t-16 -28q-82 8 -189 8q-119 0 -200 -8 q-14 0 -15 28q0 29 15 29q117 0 116 78v1053q0 129 -36 174q-31 39 -115 39q-117 0 -174 -74q-49 -63 -60 -191q-4 -43 -4 -227v-774q0 -78 117 -78q16 0 16 -29t-16 -28q-82 8 -194 8q-111 0 -193 -8q-14 0 -14 28z" />
<glyph unicode="}" horiz-adv-x="1615" d="M88 20q0 29 14 29q117 0 117 76v555q0 33 -31 33h-75q-16 0 -17 28q0 27 17 27q33 0 63 31q43 43 43 125q0 254 135 401q147 162 336 162q184 0 184 -129v-563q0 -27 15 -27q10 0 22 12q88 90 244 90q145 0 225 -120q63 -92 64 -201v-422q0 -78 127 -78q16 0 16 -29 q0 -28 -16 -28q-82 8 -193 8q-121 0 -202 -8q-14 0 -15 28q0 29 15 29q115 0 114 78v420q0 84 -55 158.5t-139 74.5q-92 0 -157 -52t-65 -99v-502q0 -78 113 -78q16 0 17 -29q0 -29 -17 -28q-82 8 -180 8q-117 0 -199 -8q-14 0 -14 28q0 29 14 29q113 0 113 76v1049 q0 219 -131 219q-96 0 -154 -74q-49 -63 -59 -191q-4 -43 -4 -227v-774q0 -78 116 -78q16 0 17 -29q0 -29 -17 -28q-82 8 -188 8q-117 0 -199 -8q-14 0 -14 28z" />
<glyph unicode="~" horiz-adv-x="1519" d="M88 20q0 29 14 29q117 0 117 76v561q0 27 -26 27h-80q-16 0 -17 28q0 27 17 27q33 0 63 31q43 43 43 125q0 254 135 401q147 162 336 162q78 0 131 -30t53 -83v-852q0 -41 33 -43q57 -4 82 23l195 217q25 29 24 47q0 37 -94 37q-14 0 -14 26q0 27 14 27q61 -6 182 -6 q123 0 185 6q16 0 16 -27t-16 -26q-88 0 -164 -72l-217 -205q-16 -16 -17 -30q0 -14 17 -35l313 -367q39 -45 129 -45q16 0 17 -29q0 -29 -17 -28q-82 8 -203 8q-119 0 -200 -8q-14 0 -15 28q0 29 15 29q82 0 82 29q0 12 -31 49l-213 254q-33 41 -84 31q-18 -4 -19 -43v-242 q0 -78 119 -78q16 0 17 -29q0 -29 -17 -28q-82 8 -186 8q-121 0 -203 -8q-14 0 -14 28q0 29 14 29q117 0 117 76v1178q0 63 -47 81q-23 8 -84 9q-96 0 -154 -74q-49 -63 -59 -193q-4 -41 -4 -227v-772q0 -78 116 -78q16 0 17 -29q0 -29 -17 -28q-82 8 -186 8q-119 0 -201 -8 q-14 0 -14 28z" />
<glyph unicode="&#xad;" horiz-adv-x="827" d="M100 545q0 57 15 57h592q16 0 14 -57q0 -57 -16 -58h-590q-14 0 -15 58z" />
<glyph unicode="&#xae;" horiz-adv-x="1351" d="M422 1692q0 47 27 47h636q27 0 27 -43q0 -51 -31 -51h-632q-27 0 -27 47z" />
<glyph unicode="&#xaf;" horiz-adv-x="608" d="M51 1096q0 47 27 47h450q27 0 27 -45q0 -49 -31 -49h-446q-27 0 -27 47z" />
<glyph unicode="&#xb3;" horiz-adv-x="1351" d="M682 1624q0 23 23 39l411 299q8 6 19 6q27 0 55.5 -32.5t28.5 -61.5q-1 -23 -19 -33l-450 -242q-16 -8 -31 -8q-37 0 -37 33z" />
<glyph unicode="&#xb4;" horiz-adv-x="569" d="M147 975q0 12 5 22l206 467q10 23 41 23q35 0 67 -21.5t32 -46.5q0 -10 -6 -18l-271 -434q-16 -27 -41 -27q-33 0 -33 35z" />
<glyph unicode="&#xb6;" horiz-adv-x="559" d="M139 96q0 39 25 70q35 45 102 45q47 0 81 -34t34 -89q0 -49 -33 -81t-82 -32q-45 0 -80 25q-47 33 -47 96zM154 705q0 41 29.5 64.5t70.5 23.5q37 0 74 -33t65 -33q68 0 123 94q25 41 68 152q2 8 22 0q19 -7 17 -17q-74 -393 -304 -393q-72 0 -120 47q-45 41 -45 95z" />
<glyph unicode="&#xb7;" horiz-adv-x="520" d="M139 522q0 39 25 70q35 45 102 45q47 0 81 -34t34 -89q0 -49 -33 -82t-82 -33q-45 0 -80 25q-47 35 -47 98z" />
<glyph unicode="&#xb8;" horiz-adv-x="1050" d="M139 96q0 39 25 70q35 45 102 45q47 0 81 -34t34 -89q0 -49 -33 -81t-82 -32q-45 0 -80 25q-47 33 -47 96zM139 737q0 39 25 70q35 45 102 45q47 0 81 -34t34 -89q0 -49 -33 -81t-82 -32q-45 0 -80 25q-47 33 -47 96zM666 440q0 39 24 70q35 45 103 45q47 0 81.5 -34 t34.5 -89q0 -49 -33.5 -81t-82.5 -32q-45 0 -80 25q-47 33 -47 96z" />
<glyph unicode="&#xb9;" d="M-55 829q0 27 16 27q61 -6 182 -6q127 0 189 6q16 0 16 -27t-16 -26q-98 0 -99 -55q0 -14 7 -29l174 -504q10 -31 24 -31q16 0 29 33l195 502q6 14 6 26q0 49 -72 52.5t-72 31.5q0 27 15 27q61 -6 168 -6q98 0 159 6q16 0 17 -27q0 -27 -17 -26q-98 0 -125 -72 l-442 -1149q-23 -61 -73 -98t-105 -37q-33 0 -61.5 24.5t-28.5 51.5q0 76 88 76q100 0 127 63l96 240q16 39 -2 90l-258 739q-25 72 -121 72q-16 0 -16 26z" />
<glyph unicode="&#xba;" horiz-adv-x="524" d="M74 20q0 29 14 29q113 0 113 78v405q0 84 -8 111q-16 59 -76 59q-14 0 -15 29q0 27 15 27q57 0 202 114q12 10 23 11q20 0 18 -21q-6 -80 -6 -215v-520q0 -78 111 -78q16 0 16 -29q0 -28 -16 -28q-82 8 -180 8q-115 0 -197 -8q-14 0 -14 28zM150 1319q0 45 30.5 75.5 t75.5 30.5t77 -30.5t32 -75.5t-31 -77t-78 -32q-45 0 -75.5 32t-30.5 77z" />
<glyph unicode="&#xc1;" horiz-adv-x="1521" d="M-6 33q0 41 16 41q90 0 133 27.5t76 113.5l404 1059q14 39 -3.5 56.5t-17.5 23.5q0 8 27 22q57 27 143 92q25 18 41 19q25 0 37 -47q27 -98 53 -178l357 -1063q41 -125 206 -125q16 0 17 -41q-1 -41 -17 -41q-82 8 -249 8q-164 0 -246 -8q-14 0 -15 41q0 41 15 41 q109 0 108 73q0 23 -10 52l-108 336q-10 35 -48 34h-436q-31 0 -43 -37l-121 -337q-8 -25 -8 -43q0 -78 160 -78q16 0 16 -41t-16 -41q-82 8 -229 8q-143 0 -226 -8q-16 0 -16 41zM483 672q-10 -29 23 -29h385q32 0 24 29l-182 571q-6 20 -18 21q-12 0 -21 -21zM641 1624 q0 23 23 39l411 299q8 6 19 6q27 0 55.5 -32.5t28.5 -61.5q-1 -23 -19 -33l-450 -242q-16 -8 -31 -8q-37 0 -37 33z" />
<glyph unicode="&#xc2;" horiz-adv-x="1884" d="M-137 33q0 41 16 41q78 0 125 35q39 29 80 100l604 1073q16 31 17 49q0 43 -89 43q-14 0 -14 41t14 41q154 -6 338 -6q238 0 409 3t259 3q47 0 59.5 -6t12.5 -29v-342q0 -18 -39 -18q-41 0 -41 18q0 147 -105 230q-80 66 -176 67l-289 6q-43 0 -43 -43v-577q0 -37 37 -37 h228q109 0 108 100v101q0 16 37 16t37 -16q-6 -61 -6 -236q0 -162 6 -223q0 -14 -37 -14t-37 14v90q0 94 -108 94h-228q-37 0 -37 -37v-292q0 -102 43 -177q49 -82 136 -79l256 8q84 2 161 65q104 84 105 230q0 18 41 18q39 0 39 -18v-349q0 -29 -107 -28q-12 0 -259 4 t-515 4q-90 0 -254 -8q-14 0 -14 41t14 41q84 0 123 16q59 27 59 100v424q0 37 -36 37h-340q-29 0 -43 -26l-226 -445q-12 -25 -12 -43q0 -63 162 -63q16 0 16 -41t-16 -41q-82 8 -244 8q-129 0 -211 -8q-16 0 -16 41zM485 756q-16 -31 19 -31h289q36 0 36 37v514 q0 29 -22 29q-18 0 -31 -23zM948 1624q0 23 23 39l411 299q8 6 19 6q27 0 55.5 -32.5t28.5 -61.5q-1 -23 -19 -33l-450 -242q-16 -8 -31 -8q-37 0 -37 33z" />
<glyph unicode="&#xc4;" horiz-adv-x="1521" d="M-6 33q0 41 16 41q90 0 133 27.5t76 113.5l404 1059q14 39 -3.5 56.5t-17.5 23.5q0 8 27 22q57 27 143 92q25 18 41 19q25 0 37 -47q27 -98 53 -178l357 -1063q41 -125 206 -125q16 0 17 -41q-1 -41 -17 -41q-82 8 -249 8q-164 0 -246 -8q-14 0 -15 41q0 41 15 41 q109 0 108 73q0 23 -10 52l-108 336q-10 35 -48 34h-436q-31 0 -43 -37l-121 -337q-8 -25 -8 -43q0 -78 160 -78q16 0 16 -41t-16 -41q-82 8 -229 8q-143 0 -226 -8q-16 0 -16 41zM442 1692q0 47 27 47h637q27 0 27 -43q0 -51 -31 -51h-633q-27 0 -27 47zM483 672 q-10 -29 23 -29h385q32 0 24 29l-182 571q-6 20 -18 21q-12 0 -21 -21z" />
<glyph unicode="&#xc5;" horiz-adv-x="1884" d="M-137 33q0 41 16 41q78 0 125 35q39 29 80 100l604 1073q16 31 17 49q0 43 -89 43q-14 0 -14 41t14 41q154 -6 338 -6q238 0 409 3t259 3q47 0 59.5 -6t12.5 -29v-342q0 -18 -39 -18q-41 0 -41 18q0 147 -105 230q-80 66 -176 67l-289 6q-43 0 -43 -43v-577q0 -37 37 -37 h228q109 0 108 100v101q0 16 37 16t37 -16q-6 -61 -6 -236q0 -162 6 -223q0 -14 -37 -14t-37 14v90q0 94 -108 94h-228q-37 0 -37 -37v-292q0 -102 43 -177q49 -82 136 -79l256 8q84 2 161 65q104 84 105 230q0 18 41 18q39 0 39 -18v-349q0 -29 -107 -28q-12 0 -259 4 t-515 4q-90 0 -254 -8q-14 0 -14 41t14 41q84 0 123 16q59 27 59 100v424q0 37 -36 37h-340q-29 0 -43 -26l-226 -445q-12 -25 -12 -43q0 -63 162 -63q16 0 16 -41t-16 -41q-82 8 -244 8q-129 0 -211 -8q-16 0 -16 41zM485 756q-16 -31 19 -31h289q36 0 36 37v514 q0 29 -22 29q-18 0 -31 -23zM893 1692q0 47 27 47h636q27 0 27 -43q0 -51 -31 -51h-632q-27 0 -27 47z" />
<glyph unicode="&#xc6;" horiz-adv-x="1867" d="M-137 33q0 41 16 41q78 0 125 35q39 29 80 100l604 1073q16 31 17 49q0 43 -89 43q-14 0 -14 41t14 41q154 -6 338 -6q238 0 409 3t259 3q47 0 59.5 -6t12.5 -29v-342q0 -18 -39 -18q-41 0 -41 18q0 147 -105 230q-80 66 -176 67l-289 6q-43 0 -43 -43v-577q0 -37 37 -37 h228q109 0 108 100v101q0 16 37 16t37 -16q-6 -61 -6 -236q0 -162 6 -223q0 -14 -37 -14t-37 14v90q0 94 -108 94h-228q-37 0 -37 -37v-292q0 -102 43 -177q49 -82 136 -79l256 8q84 2 161 65q104 84 105 230q0 18 41 18q39 0 39 -18v-349q0 -29 -107 -28q-12 0 -259 4 t-515 4q-90 0 -254 -8q-14 0 -14 41t14 41q84 0 123 16q59 27 59 100v424q0 37 -36 37h-340q-29 0 -43 -26l-226 -445q-12 -25 -12 -43q0 -63 162 -63q16 0 16 -41t-16 -41q-82 8 -244 8q-129 0 -211 -8q-16 0 -16 41zM485 756q-16 -31 19 -31h289q36 0 36 37v514 q0 29 -22 29q-18 0 -31 -23z" />
<glyph unicode="&#xc9;" horiz-adv-x="1351" d="M96 715q0 315 200 542.5t488 227.5q104 0 226 -37q137 -41 213 -111q49 -45 49 -92q0 -37 -29 -60.5t-67 -23.5q-45 0 -72 31q-98 117 -143 151q-82 66 -183 66q-209 0 -348 -192q-98 -137 -123 -349q-4 -45 41 -45h856q16 0 17 -41q0 -41 -17 -41h-856q-43 0 -41 -45 q12 -285 168 -452q137 -147 324 -148q127 0 221 33q84 29 203 107q4 4 10 4q37 0 37 -43q0 -11 -8 -17q-123 -102 -218 -147q-123 -61 -264 -62q-233 0 -422 146q-262 199 -262 598zM682 1624q0 23 23 39l411 299q8 6 19 6q27 0 55.5 -32.5t28.5 -61.5q-1 -23 -19 -33 l-450 -242q-16 -8 -31 -8q-37 0 -37 33z" />
<glyph unicode="&#xcb;" horiz-adv-x="1351" d="M96 715q0 315 200 542.5t488 227.5q104 0 226 -37q137 -41 213 -111q49 -45 49 -92q0 -37 -29 -60.5t-67 -23.5q-45 0 -72 31q-98 117 -143 151q-82 66 -183 66q-209 0 -348 -192q-98 -137 -123 -349q-4 -45 41 -45h856q16 0 17 -41q0 -41 -17 -41h-856q-43 0 -41 -45 q12 -285 168 -452q137 -147 324 -148q127 0 221 33q84 29 203 107q4 4 10 4q37 0 37 -43q0 -11 -8 -17q-123 -102 -218 -147q-123 -61 -264 -62q-233 0 -422 146q-262 199 -262 598zM422 1692q0 47 27 47h636q27 0 27 -43q0 -51 -31 -51h-632q-27 0 -27 47z" />
<glyph unicode="&#xcd;" horiz-adv-x="749" d="M74 1421q0 41 14 41q61 -6 291 -6q215 0 276 6q16 0 17 -41q0 -41 -17 -41q-109 0 -150.5 -25.5t-41.5 -97.5v-1058q0 -125 192 -125q16 0 17 -41q-1 -41 -17 -41q-82 8 -276 8q-197 0 -279 -8q-14 0 -14 41t14 41q190 0 191 125v1058q0 123 -203 123q-14 0 -14 41z M252 1624q0 23 22 39l412 299q8 6 19 6q27 0 55 -32.5t28 -61.5q0 -23 -18 -33l-451 -242q-16 -8 -30 -8q-37 0 -37 33z" />
<glyph unicode="&#xcf;" horiz-adv-x="749" d="M33 1692q0 47 26 47h637q27 0 27 -43q0 -51 -31 -51h-633q-27 0 -26 47zM74 1421q0 41 14 41q61 -6 291 -6q215 0 276 6q16 0 17 -41q0 -41 -17 -41q-109 0 -150.5 -25.5t-41.5 -97.5v-1058q0 -125 192 -125q16 0 17 -41q-1 -41 -17 -41q-82 8 -276 8q-197 0 -279 -8 q-14 0 -14 41t14 41q190 0 191 125v1058q0 123 -203 123q-14 0 -14 41z" />
<glyph unicode="&#xd0;" horiz-adv-x="1636" d="M55 721q0 41 15 41h184q37 0 37 37v458q0 117 -203 117q-14 0 -14 41t14 41q154 -6 283 -6q113 0 212 3t171 3q334 0 551 -174q231 -187 231 -500q0 -375 -215 -589q-201 -201 -516 -201q-74 0 -193.5 4t-238.5 4q-70 0 -275 -8q-14 0 -14 41t14 41q70 0 125 28 q68 35 68 97v444q0 37 -37 37h-184q-14 0 -15 41zM463 319q0 -172 82 -227q51 -35 186 -35q254 0 420 179q180 194 180 532q0 250 -170 428q-188 195 -495 195q-106 0 -138 -11q-66 -25 -65 -114v-467q0 -37 37 -37h237q14 0 15 -41q0 -41 -15 -41h-237q-37 0 -37 -37v-324z " />
<glyph unicode="&#xd3;" horiz-adv-x="1566" d="M98 715q0 276 176 510q197 260 519 260q252 0 430 -164q260 -239 260 -610q0 -238 -144 -449q-199 -291 -551 -291q-227 0 -411 135q-113 82 -189 228q-90 174 -90 381zM303 778q0 -358 191 -565q147 -162 309 -162q266 0 391 254q84 172 84 389q0 311 -170 527 q-150 188 -322 188q-182 0 -301 -123q-88 -90 -137 -239q-45 -133 -45 -269zM662 1624q0 23 22 39l412 299q8 6 18 6q27 0 55.5 -32.5t28.5 -61.5q0 -23 -18 -33l-451 -242q-16 -8 -31 -8q-37 0 -36 33z" />
<glyph unicode="&#xd6;" horiz-adv-x="1566" d="M98 715q0 276 176 510q197 260 519 260q252 0 430 -164q260 -239 260 -610q0 -238 -144 -449q-199 -291 -551 -291q-227 0 -411 135q-113 82 -189 228q-90 174 -90 381zM303 778q0 -358 191 -565q147 -162 309 -162q266 0 391 254q84 172 84 389q0 311 -170 527 q-150 188 -322 188q-182 0 -301 -123q-88 -90 -137 -239q-45 -133 -45 -269zM442 1692q0 47 27 47h637q27 0 27 -43q0 -51 -31 -51h-633q-27 0 -27 47z" />
<glyph unicode="&#xda;" horiz-adv-x="1622" d="M61 1421q0 41 15 41q61 -6 289 -6q244 0 305 6q16 0 16 -41t-16 -41q-129 0 -175 -28.5t-46 -94.5v-520q0 -63 6 -157q6 -106 6 -123q4 -168 65 -258q100 -147 326 -148q199 0 305.5 110.5t106.5 360.5v735q0 123 -201 123q-14 0 -14 41t14 41q61 -6 260 -6q190 0 252 6 q16 0 16 -41t-16 -41q-193 0 -193 -123v-303q0 -301 -12 -467q-18 -258 -170 -393q-137 -123 -387 -123q-168 0 -274 43q-176 72 -228 273q-35 135 -35 291v679q0 123 -200 123q-14 0 -15 41zM723 1624q0 23 22 39l412 299q8 6 19 6q27 0 55.5 -32.5t28.5 -61.5 q-1 -23 -19 -33l-450 -242q-16 -8 -31 -8q-37 0 -37 33z" />
<glyph unicode="&#xdc;" horiz-adv-x="1622" d="M61 1421q0 41 15 41q61 -6 289 -6q244 0 305 6q16 0 16 -41t-16 -41q-129 0 -175 -28.5t-46 -94.5v-520q0 -63 6 -157q6 -106 6 -123q4 -168 65 -258q100 -147 326 -148q199 0 305.5 110.5t106.5 360.5v735q0 123 -201 123q-14 0 -14 41t14 41q61 -6 260 -6q190 0 252 6 q16 0 16 -41t-16 -41q-193 0 -193 -123v-303q0 -301 -12 -467q-18 -258 -170 -393q-137 -123 -387 -123q-168 0 -274 43q-176 72 -228 273q-35 135 -35 291v679q0 123 -200 123q-14 0 -15 41zM541 1692q0 47 26 47h637q27 0 27 -43q0 -51 -31 -51h-633q-27 0 -26 47z" />
<glyph unicode="&#xdd;" horiz-adv-x="1325" d="M-31 1421q0 41 17 41q61 -6 254 -6q195 0 256 6q16 0 16 -41t-16 -41q-129 0 -129 -61q0 -25 22 -62l301 -507q16 -29 35 0l319 497q29 45 29 76q0 57 -119 57q-14 0 -14 41t14 41q61 -6 217 -6q145 0 207 6q16 0 17 -41q-1 -41 -17 -41q-94 0 -150.5 -44t-158.5 -201 l-248 -379q-59 -92 -70.5 -124t-11.5 -108v-325q0 -125 176 -125q16 0 17 -41q0 -41 -17 -41q-82 8 -258 8q-184 0 -266 -8q-14 0 -14 41t14 41q94 0 135 25.5t41 99.5v323q0 78 -9 106.5t-66 123.5l-304 505q-74 123 -202 123q-16 0 -17 41zM641 1624q0 23 23 39l411 299 q8 6 19 6q27 0 55.5 -32.5t28.5 -61.5q-1 -23 -19 -33l-450 -242q-16 -8 -31 -8q-37 0 -37 33z" />
<glyph unicode="&#xde;" horiz-adv-x="1241" d="M33 1372q0 41 14 41q104 0 295 64q25 8 41 8q37 0 33 -53q-8 -115 -8 -158v-55q0 -49 41 -23q72 45 145 107q84 74 90 77q61 43 131 43q47 0 76 -22q115 -92 184 -250q72 -163 72 -356q0 -262 -180 -500q-203 -268 -518 -313q-41 -6 -41 -48v-229q0 -55 -95 -135 q-80 -61 -159 -123q-6 -4 -15 -4q-25 0 -54.5 29.5t-29.5 56.5q0 10 8 16q59 49 116 99.5t57 105.5v1436q0 63 -54.5 104t-134.5 41q-14 0 -14 41zM408 96q0 -37 36 -33q223 25 363 238q135 205 135 494q0 125 -57 276q-53 139 -111 186q-49 41 -63 41q-16 0 -39 -16 q-43 -37 -86 -76q-80 -68 -154 -108q-25 -14 -24 -43v-959z" />
<glyph unicode="&#xdf;" horiz-adv-x="552" d="M70 20q0 29 14 29q117 0 117 78v565q0 20 -23 21h-86q-14 0 -14 28q0 27 14 27q33 0 66 31q43 43 43 125q0 254 135 401q147 162 336 162q78 0 132 -29t54 -84q0 -35 -29.5 -62.5t-56.5 -27.5q-59 0 -106 59q-39 49 -95 50q-96 0 -153 -74q-49 -63 -60 -191 q-4 -43 -4 -227v-774q0 -78 144 -78q16 0 16 -29t-16 -28q-82 8 -213 8q-119 0 -201 -8q-14 0 -14 28z" />
<glyph unicode="&#xe1;" horiz-adv-x="796" d="M74 604q0 47 34.5 106.5t75.5 84.5q123 76 246 75q74 0 139.5 -39.5t65.5 -99.5v-532q0 -115 67 -115q33 0 72 37q8 8 24.5 -7.5t10.5 -25.5q-31 -53 -47 -68q-45 -43 -121 -43q-106 0 -143 136q-76 -76 -109 -97q-59 -39 -139 -39q-76 0 -121 52.5t-45 132.5 q0 104 145 203q117 63 232 129q20 12 20 43v170q0 88 -133 88q-100 0 -135 -50q-10 -14 -12 -55q-4 -49 -8 -69q-18 -68 -62 -68q-57 0 -57 51zM238 188q0 -43 26 -73q31 -37 84 -37q45 0 89 41t44 80v215q0 25 -18 22q-4 -2 -10 -4q-102 -51 -142 -86q-74 -66 -73 -158z M352 975q0 12 4 22l207 467q10 23 41 23q35 0 66.5 -21.5t31.5 -46.5q0 -10 -6 -18l-270 -434q-16 -27 -41 -27q-33 0 -33 35z" />
<glyph unicode="&#xe2;" horiz-adv-x="1144" d="M47 606q0 102 121 187q113 78 219 77q123 0 182 -84q12 -18 23 -18q2 0 31 23q100 80 208 79q100 0 179 -36q86 -41 86 -103q0 -39 -35 -53l-416 -172q-35 -14 -35 -90q0 -106 60 -201q74 -121 202 -121q102 0 197 76q4 4 10 4q29 0 29 -31q0 -6 -2 -10 q-115 -156 -330 -156q-147 0 -239 142q-12 18 -17 18q-6 0 -18 -16q-104 -131 -219 -131q-217 0 -217 170q0 125 104 200q41 31 192 93q104 43 105 88v108q0 143 -135 144q-102 0 -137 -52q-6 -49 -21 -123q-20 -66 -68 -65q-59 0 -59 53zM219 180q0 -106 115 -106 q33 0 75 34.5t66 71.5q19 29 17 39q-12 63 -27 170q-4 35 -21 35q-8 0 -22 -6q-203 -88 -203 -238zM578 975q0 12 4 22l206 467q10 23 41 23q35 0 67 -21.5t32 -46.5q0 -10 -6 -18l-271 -434q-16 -27 -41 -27q-33 0 -32 35zM629 606q-4 -18 4 -26q8 -4 24 2l269 108 q32 13 32 33q0 35 -45 60.5t-82 25.5q-76 0 -133 -66q-49 -55 -69 -137z" />
<glyph unicode="&#xe4;" horiz-adv-x="796" d="M74 604q0 47 34.5 106.5t75.5 84.5q123 76 246 75q74 0 139.5 -39.5t65.5 -99.5v-532q0 -115 67 -115q33 0 72 37q8 8 24.5 -7.5t10.5 -25.5q-31 -53 -47 -68q-45 -43 -121 -43q-106 0 -143 136q-76 -76 -109 -97q-59 -39 -139 -39q-76 0 -121 52.5t-45 132.5 q0 104 145 203q117 63 232 129q20 12 20 43v170q0 88 -133 88q-100 0 -135 -50q-10 -14 -12 -55q-4 -49 -8 -69q-18 -68 -62 -68q-57 0 -57 51zM145 1096q0 47 27 47h451q27 0 26 -45q0 -49 -31 -49h-446q-27 0 -27 47zM238 188q0 -43 26 -73q31 -37 84 -37q45 0 89 41 t44 80v215q0 25 -18 22q-4 -2 -10 -4q-102 -51 -142 -86q-74 -66 -73 -158z" />
<glyph unicode="&#xe5;" horiz-adv-x="1144" d="M47 606q0 102 121 187q113 78 219 77q123 0 182 -84q12 -18 23 -18q2 0 31 23q100 80 208 79q100 0 179 -36q86 -41 86 -103q0 -39 -35 -53l-416 -172q-35 -14 -35 -90q0 -106 60 -201q74 -121 202 -121q102 0 197 76q4 4 10 4q29 0 29 -31q0 -6 -2 -10 q-115 -156 -330 -156q-147 0 -239 142q-12 18 -17 18q-6 0 -18 -16q-104 -131 -219 -131q-217 0 -217 170q0 125 104 200q41 31 192 93q104 43 105 88v108q0 143 -135 144q-102 0 -137 -52q-6 -49 -21 -123q-20 -66 -68 -65q-59 0 -59 53zM219 180q0 -106 115 -106 q33 0 75 34.5t66 71.5q19 29 17 39q-12 63 -27 170q-4 35 -21 35q-8 0 -22 -6q-203 -88 -203 -238zM350 1096q0 47 27 47h450q27 0 27 -45q0 -49 -31 -49h-446q-27 0 -27 47zM629 606q-4 -18 4 -26q8 -4 24 2l269 108q32 13 32 33q0 35 -45 60.5t-82 25.5q-76 0 -133 -66 q-49 -55 -69 -137z" />
<glyph unicode="&#xe6;" horiz-adv-x="1144" d="M47 606q0 102 121 187q113 78 219 77q123 0 182 -84q12 -18 23 -18q2 0 31 23q100 80 208 79q100 0 179 -36q86 -41 86 -103q0 -39 -35 -53l-416 -172q-35 -14 -35 -90q0 -106 60 -201q74 -121 202 -121q102 0 197 76q4 4 10 4q29 0 29 -31q0 -6 -2 -10 q-115 -156 -330 -156q-147 0 -239 142q-12 18 -17 18q-6 0 -18 -16q-104 -131 -219 -131q-217 0 -217 170q0 125 104 200q41 31 192 93q104 43 105 88v108q0 143 -135 144q-102 0 -137 -52q-6 -49 -21 -123q-20 -66 -68 -65q-59 0 -59 53zM219 180q0 -106 115 -106 q33 0 75 34.5t66 71.5q19 29 17 39q-12 63 -27 170q-4 35 -21 35q-8 0 -22 -6q-203 -88 -203 -238zM629 606q-4 -18 4 -26q8 -4 24 2l269 108q32 13 32 33q0 35 -45 60.5t-82 25.5q-76 0 -133 -66q-49 -55 -69 -137z" />
<glyph unicode="&#xe7;" d="M84 436q0 174 115 307q113 127 252 127q141 0 239 -108q78 -86 78 -158q0 -55 -51 -55h-449q-31 0 -30 -66q0 -160 73 -268q80 -121 215 -121q61 0 137 31t74 31q29 0 29 -29q0 -6 -4 -10q-154 -139 -330 -140q-41 -39 -81 -120.5t-40 -135.5q0 -61 37 -97t96 -36 q43 0 78 11q20 -16 17 -41q-12 -14 -54.5 -27.5t-70.5 -13.5q-92 0 -154 43q-72 49 -72 137q0 147 172 293q-125 37 -204 178q-72 127 -72 268zM262 629q2 -12 23 -13h321q15 1 15 17q0 45 -50 108q-55 70 -118 70q-127 0 -189 -166q-4 -10 -2 -16zM401 975q0 12 5 22 l206 467q10 23 41 23q35 0 67 -21.5t32 -46.5q-1 -10 -7 -18l-270 -434q-16 -27 -41 -27q-33 0 -33 35z" />
<glyph unicode="&#xe8;" d="M84 436q0 174 115 307q113 127 252 127q141 0 239 -108q78 -86 78 -158q0 -55 -51 -55h-449q-31 0 -30 -66q0 -160 73 -268q80 -121 215 -121q61 0 137 31t74 31q29 0 29 -29q0 -6 -4 -10q-154 -139 -330 -140q-41 -39 -81 -120.5t-40 -135.5q0 -61 37 -97t96 -36 q43 0 78 11q20 -16 17 -41q-12 -14 -54.5 -27.5t-70.5 -13.5q-92 0 -154 43q-72 49 -72 137q0 147 172 293q-125 37 -204 178q-72 127 -72 268zM205 1096q0 47 26 47h451q27 0 27 -45q0 -49 -31 -49h-447q-27 0 -26 47zM262 629q2 -12 23 -13h321q15 1 15 17q0 45 -50 108 q-55 70 -118 70q-127 0 -189 -166q-4 -10 -2 -16z" />
<glyph unicode="&#xe9;" d="M84 436q0 174 115 307q113 127 252 127q141 0 239 -108q78 -86 78 -158q0 -55 -51 -55h-449q-31 0 -30 -66q0 -160 73 -268q80 -121 215 -121q61 0 137 31t74 31q29 0 29 -29q0 -6 -4 -10q-154 -139 -320 -140q-145 0 -251.5 138.5t-106.5 320.5zM262 629q2 -12 23 -13 h321q15 1 15 17q0 45 -50 108q-55 70 -118 70q-127 0 -189 -166q-4 -10 -2 -16zM401 975q0 12 5 22l206 467q10 23 41 23q35 0 67 -21.5t32 -46.5q-1 -10 -7 -18l-270 -434q-16 -27 -41 -27q-33 0 -33 35z" />
<glyph unicode="&#xea;" d="M84 436q0 174 115 307q113 127 252 127q141 0 239 -108q78 -86 78 -158q0 -55 -51 -55h-449q-31 0 -30 -66q0 -160 73 -268q80 -121 215 -121q61 0 137 31t74 31q29 0 29 -29q0 -6 -4 -10q-154 -139 -330 -140q-41 -39 -81 -120.5t-40 -135.5q0 -61 37 -97t96 -36 q43 0 78 11q20 -16 17 -41q-12 -14 -54.5 -27.5t-70.5 -13.5q-92 0 -154 43q-72 49 -72 137q0 147 172 293q-125 37 -204 178q-72 127 -72 268zM262 629q2 -12 23 -13h321q15 1 15 17q0 45 -50 108q-55 70 -118 70q-127 0 -189 -166q-4 -10 -2 -16z" />
<glyph unicode="&#xeb;" d="M84 436q0 174 115 307q113 127 252 127q141 0 239 -108q78 -86 78 -158q0 -55 -51 -55h-449q-31 0 -30 -66q0 -160 73 -268q80 -121 215 -121q61 0 137 31t74 31q29 0 29 -29q0 -6 -4 -10q-154 -139 -320 -140q-145 0 -251.5 138.5t-106.5 320.5zM205 1096q0 47 26 47 h451q27 0 27 -45q0 -49 -31 -49h-447q-27 0 -26 47zM262 629q2 -12 23 -13h321q15 1 15 17q0 45 -50 108q-55 70 -118 70q-127 0 -189 -166q-4 -10 -2 -16z" />
<glyph unicode="&#xed;" horiz-adv-x="524" d="M74 20q0 29 14 29q113 0 113 78v405q0 84 -8 111q-16 59 -76 59q-14 0 -15 29q0 27 15 27q57 0 202 114q12 10 23 11q20 0 18 -21q-6 -80 -6 -215v-520q0 -78 111 -78q16 0 16 -29q0 -28 -16 -28q-82 8 -180 8q-115 0 -197 -8q-14 0 -14 28zM184 975q0 12 4 22l207 467 q10 23 41 23q35 0 67 -21.5t32 -46.5q-1 -10 -7 -18l-270 -434q-16 -27 -41 -27q-33 0 -33 35z" />
<glyph unicode="&#xef;" horiz-adv-x="524" d="M16 1096q0 47 27 47h451q27 0 26 -45q0 -49 -31 -49h-446q-27 0 -27 47zM74 20q0 29 14 29q113 0 113 78v405q0 84 -8 111q-16 59 -76 59q-14 0 -15 29q0 27 15 27q57 0 202 114q12 10 23 11q20 0 18 -21q-6 -80 -6 -215v-520q0 -78 111 -78q16 0 16 -29q0 -28 -16 -28 q-82 8 -180 8q-115 0 -197 -8q-14 0 -14 28z" />
<glyph unicode="&#xf0;" horiz-adv-x="1019" d="M-352 1360q0 43 30 37q293 -59 609 -234q23 -12 41 2l377 301q2 2 6 2q14 0 96 -94q14 -16 14 -22q0 -4 -6 -4t-46 11t-64 11q-29 0 -46 -14l-272 -221q-20 -16 -2 -29q182 -111 260 -172q141 -111 217 -240q82 -141 82 -258q0 -197 -106 -323q-115 -135 -314 -136 q-186 0 -315 132.5t-129 324.5q0 172 133 304t299 132q31 0 6 23q-90 82 -207 154q-18 10 -37 -5l-225 -182q-10 -8 -84 107q-16 25 -4 24q4 0 37 -10t53 -10q27 0 43 12l123 96q18 14 -4 27q-305 170 -551 233q-14 4 -14 21zM254 430q0 -176 88 -289q78 -98 180 -98 q92 0 166 100q82 113 82 287q0 168 -88 283q-76 98 -162 98q-94 0 -174 -96q-92 -111 -92 -285z" />
<glyph unicode="&#xf1;" d="M84 436q0 174 115 307q113 127 252 127q141 0 239 -108q78 -86 78 -158q0 -55 -51 -55h-449q-31 0 -30 -66q0 -160 73 -268q80 -121 215 -121q61 0 137 31t74 31q29 0 29 -29q0 -6 -4 -10q-154 -139 -330 -140q-41 -39 -81 -120.5t-40 -135.5q0 -61 37 -97t96 -36 q43 0 78 11q20 -16 17 -41q-12 -14 -54.5 -27.5t-70.5 -13.5q-92 0 -154 43q-72 49 -72 137q0 147 172 293q-125 37 -204 178q-72 127 -72 268zM205 1096q0 47 26 47h451q27 0 27 -45q0 -49 -31 -49h-447q-27 0 -26 47zM262 629q2 -12 23 -13h321q15 1 15 17q0 45 -50 108 q-55 70 -118 70q-127 0 -189 -166q-4 -10 -2 -16z" />
<glyph unicode="&#xf3;" horiz-adv-x="978" d="M84 424q0 172 125 309t295 137q178 0 301 -139q119 -131 119 -305q0 -180 -105 -307q-117 -141 -313 -142q-172 0 -299 142q-123 135 -123 305zM246 420q0 -172 86 -281q76 -96 172 -96t172 96q84 109 84 281q0 176 -84 291q-76 100 -170 100q-96 0 -172 -100 q-88 -115 -88 -291zM428 975q0 12 4 22l207 467q10 23 41 23q35 0 66.5 -21.5t31.5 -46.5q0 -10 -6 -18l-270 -434q-16 -27 -41 -27q-33 0 -33 35z" />
<glyph unicode="&#xf6;" horiz-adv-x="978" d="M84 424q0 172 125 309t295 137q178 0 301 -139q119 -131 119 -305q0 -180 -105 -307q-117 -141 -313 -142q-172 0 -299 142q-123 135 -123 305zM238 1096q0 47 26 47h451q27 0 26 -45q0 -49 -30 -49h-447q-27 0 -26 47zM246 420q0 -172 86 -281q76 -96 172 -96t172 96 q84 109 84 281q0 176 -84 291q-76 100 -170 100q-96 0 -172 -100q-88 -115 -88 -291z" />
<glyph unicode="&#xfa;" horiz-adv-x="1036" d="M49 809q0 27 14 27q102 0 168 9t91 9q16 0 14 -20q-8 -113 -8 -158v-342q0 -102 32 -170q41 -90 125 -90q92 0 160 52t68 126v381q0 147 -111 147q-14 0 -14 29q0 27 14 27q119 0 178.5 9t69.5 9q25 0 22 -27q-6 -78 -6 -139v-432q0 -86 8 -115q16 -59 72 -59q20 0 45 6 t25 -39q0 -16 -8 -18q-43 -8 -142 -29q-53 -14 -131 -33q-23 -4 -22 47v41q0 23 -13 23q-10 0 -26 -14q-96 -88 -234 -89q-113 0 -194 121q-72 102 -72 203v332q0 147 -111 147q-14 0 -14 29zM432 975q0 12 4 22l207 467q10 23 41 23q35 0 66.5 -21.5t31.5 -46.5 q0 -10 -6 -18l-270 -434q-16 -27 -41 -27q-33 0 -33 35z" />
<glyph unicode="&#xfc;" horiz-adv-x="1036" d="M49 809q0 27 14 27q102 0 168 9t91 9q16 0 14 -20q-8 -113 -8 -158v-342q0 -102 32 -170q41 -90 125 -90q92 0 160 52t68 126v381q0 147 -111 147q-14 0 -14 29q0 27 14 27q119 0 178.5 9t69.5 9q25 0 22 -27q-6 -78 -6 -139v-432q0 -86 8 -115q16 -59 72 -59q20 0 45 6 t25 -39q0 -16 -8 -18q-43 -8 -142 -29q-53 -14 -131 -33q-23 -4 -22 47v41q0 23 -13 23q-10 0 -26 -14q-96 -88 -234 -89q-113 0 -194 121q-72 102 -72 203v332q0 147 -111 147q-14 0 -14 29zM260 1096q0 47 27 47h450q27 0 27 -45q0 -49 -31 -49h-446q-27 0 -27 47z" />
<glyph unicode="&#xfd;" d="M-55 829q0 27 16 27q61 -6 182 -6q127 0 189 6q16 0 16 -27t-16 -26q-98 0 -99 -55q0 -14 7 -29l174 -504q10 -31 24 -31q16 0 29 33l195 502q6 14 6 26q0 49 -72 52.5t-72 31.5q0 27 15 27q61 -6 168 -6q98 0 159 6q16 0 17 -27q0 -27 -17 -26q-98 0 -125 -72 l-442 -1149q-23 -61 -73 -98t-105 -37q-33 0 -61.5 24.5t-28.5 51.5q0 76 88 76q100 0 127 63l96 240q16 39 -2 90l-258 739q-25 72 -121 72q-16 0 -16 26zM352 975q0 12 4 22l207 467q10 23 41 23q35 0 66.5 -21.5t31.5 -46.5q0 -10 -6 -18l-270 -434q-16 -27 -41 -27 q-33 0 -33 35z" />
<glyph unicode="&#xfe;" horiz-adv-x="909" d="M63 -520q0 12 9 16l80 53q23 14 22 58v1503q0 94 -10 131q-20 68 -84 68q-14 0 -14 28q0 27 14 27q33 0 119 45q80 43 100 64q12 12 23 12q16 0 14 -27q-8 -145 -8 -237v-424q0 -23 12 -23q8 0 20 12q74 84 166 84q133 0 222 -90q94 -96 94 -260q0 -236 -185 -395 q-145 -129 -299 -145q-31 -4 -30 -31v-367q0 -57 -58 -78l-176 -61q-10 -4 -20.5 9t-10.5 28zM328 90q0 -45 39 -37q125 23 213 150t88 272q0 135 -39 223q-43 98 -127 99q-78 0 -150 -117q-25 -39 -24 -94v-496z" />
<glyph unicode="&#xff;" d="M-55 829q0 27 16 27q61 -6 182 -6q127 0 189 6q16 0 16 -27t-16 -26q-98 0 -99 -55q0 -14 7 -29l174 -504q10 -31 24 -31q16 0 29 33l195 502q6 14 6 26q0 49 -72 52.5t-72 31.5q0 27 15 27q61 -6 168 -6q98 0 159 6q16 0 17 -27q0 -27 -17 -26q-98 0 -125 -72 l-442 -1149q-23 -61 -73 -98t-105 -37q-33 0 -61.5 24.5t-28.5 51.5q0 76 88 76q100 0 127 63l96 240q16 39 -2 90l-258 739q-25 72 -121 72q-16 0 -16 26zM195 1096q0 47 26 47h451q27 0 26 -45q0 -49 -30 -49h-447q-27 0 -26 47z" />
<glyph unicode="&#x178;" horiz-adv-x="1361" d="M-31 1421q0 41 17 41q61 -6 254 -6q195 0 256 6q16 0 16 -41t-16 -41q-129 0 -129 -61q0 -25 22 -62l301 -507q16 -29 35 0l319 497q29 45 29 76q0 57 -119 57q-14 0 -14 41t14 41q61 -6 217 -6q145 0 207 6q16 0 17 -41q-1 -41 -17 -41q-94 0 -150.5 -44t-158.5 -201 l-248 -379q-59 -92 -70.5 -124t-11.5 -108v-325q0 -125 176 -125q16 0 17 -41q0 -41 -17 -41q-82 8 -258 8q-184 0 -266 -8q-14 0 -14 41t14 41q94 0 135 25.5t41 99.5v323q0 78 -9 106.5t-66 123.5l-304 505q-74 123 -202 123q-16 0 -17 41zM385 1692q0 47 27 47h637 q27 0 26 -43q0 -51 -31 -51h-632q-27 0 -27 47z" />
<glyph unicode="&#x2dc;" horiz-adv-x="1521" d="M442 1692q0 47 27 47h637q27 0 27 -43q0 -51 -31 -51h-633q-27 0 -27 47z" />
<glyph unicode="&#x2000;" horiz-adv-x="984" />
<glyph unicode="&#x2001;" horiz-adv-x="1968" />
<glyph unicode="&#x2002;" horiz-adv-x="984" />
<glyph unicode="&#x2003;" horiz-adv-x="1968" />
<glyph unicode="&#x2004;" horiz-adv-x="656" />
<glyph unicode="&#x2005;" horiz-adv-x="492" />
<glyph unicode="&#x2006;" horiz-adv-x="328" />
<glyph unicode="&#x2007;" horiz-adv-x="328" />
<glyph unicode="&#x2008;" horiz-adv-x="246" />
<glyph unicode="&#x2009;" horiz-adv-x="393" />
<glyph unicode="&#x200a;" horiz-adv-x="109" />
<glyph unicode="&#x2010;" horiz-adv-x="827" d="M100 545q0 57 15 57h592q16 0 14 -57q0 -57 -16 -58h-590q-14 0 -15 58z" />
<glyph unicode="&#x2011;" horiz-adv-x="827" d="M100 545q0 57 15 57h592q16 0 14 -57q0 -57 -16 -58h-590q-14 0 -15 58z" />
<glyph unicode="&#x2012;" horiz-adv-x="827" d="M100 545q0 57 15 57h592q16 0 14 -57q0 -57 -16 -58h-590q-14 0 -15 58z" />
<glyph unicode="&#x2013;" horiz-adv-x="1024" d="M8 530q0 55 23 56h962q23 0 23 -56q0 -57 -23 -57h-962q-23 0 -23 57z" />
<glyph unicode="&#x2014;" horiz-adv-x="2048" d="M8 530q0 55 23 56h1986q23 0 23 -56q0 -57 -23 -57h-1986q-23 0 -23 57z" />
<glyph unicode="&#x2018;" horiz-adv-x="389" d="M63 1118q0 207 246 365q8 6 21.5 -8.5t7.5 -18.5q-70 -70 -86 -92q-61 -80 -62 -158q0 -43 31 -57q49 -23 60 -29q45 -33 45 -90q0 -88 -103 -88q-55 0 -104 45q-55 51 -56 131z" />
<glyph unicode="&#x2019;" horiz-adv-x="389" d="M51 963q0 2 39 38q47 45 76 89q39 63 39 127q0 43 -31 57q-49 23 -59 29q-45 33 -45 90q0 88 102 88q55 0 104 -45q56 -51 56 -131q0 -131 -99 -244q-61 -76 -147 -125q-10 -6 -22.5 6t-12.5 21z" />
<glyph unicode="&#x201c;" horiz-adv-x="727" d="M63 1118q0 207 246 365q8 6 21.5 -8.5t7.5 -18.5q-147 -147 -148 -250q0 -43 31 -57q49 -23 60 -29q45 -33 45 -90q0 -88 -103 -88q-55 0 -104 45q-55 51 -56 131zM399 1118q0 201 246 365q8 6 22.5 -8.5t8.5 -18.5q-150 -150 -150 -250q0 -43 33 -57q104 -43 105 -119 q0 -37 -28 -62.5t-75 -25.5q-55 0 -104 45q-57 51 -58 131z" />
<glyph unicode="&#x201d;" horiz-adv-x="731" d="M53 963q0 2 39 38q47 45 76 89q39 63 39 127q0 43 -31 57q-49 23 -59 29q-45 33 -45 90q0 88 102 88q55 0 105 -45q55 -51 55 -131q0 -215 -246 -369q-10 -4 -22.5 7t-12.5 20zM395 963q0 4 2 6q150 113 150 248q0 43 -29 57q-57 27 -59 29q-47 33 -47 90q0 88 102 88 q55 0 104 -45q56 -51 56 -131q0 -127 -99 -244q-63 -76 -147 -125q-10 -6 -21.5 5t-11.5 22z" />
<glyph unicode="&#x202f;" horiz-adv-x="393" />
<glyph unicode="&#x205f;" horiz-adv-x="492" />
<glyph unicode="&#x25fc;" horiz-adv-x="860" d="M0 0v860h860v-860h-860z" />
</font>
</defs>
</svg>
