<?xml version="1.0" standalone="no"?>
<!DOCTYPE svg PUBLIC "-//W3C//DTD SVG 1.1//EN" "http://www.w3.org/Graphics/SVG/1.1/DTD/svg11.dtd" >
<svg xmlns="http://www.w3.org/2000/svg">
<metadata></metadata>
<defs>
<font id="libre_baskerville_beta40Rg" horiz-adv-x="1339" >
<font-face units-per-em="2048" ascent="1638" descent="-410" />
<missing-glyph horiz-adv-x="681" />
<glyph horiz-adv-x="0" />
<glyph horiz-adv-x="682" />
<glyph unicode=" "  horiz-adv-x="681" />
<glyph unicode="&#x09;" horiz-adv-x="681" />
<glyph unicode="&#xa0;" horiz-adv-x="681" />
<glyph unicode="!" horiz-adv-x="442" d="M92 113q0 57 38.5 96t94.5 39q57 0 96 -39t39 -96q0 -56 -39 -94.5t-96 -38.5q-55 0 -94 39t-39 94zM92 1462q0 57 36.5 96t96.5 39t96.5 -39t36.5 -96q0 -97 -41 -350q-9 -45 -16 -91.5t-11.5 -82.5t-7.5 -87.5t-5 -80t-2.5 -87t-0.5 -81v-90.5v-88h-98v88v90.5t-0.5 81 t-2.5 87t-5 80t-7.5 87.5t-11.5 82.5t-16 91.5q-41 253 -41 350z" />
<glyph unicode="&#x22;" horiz-adv-x="790" d="M143 1599q0 43 28 72t69 29t68.5 -29.5t27.5 -73.5q0 -29 -12 -103.5t-29 -176t-25 -162.5h-59q-8 62 -25.5 163.5t-30 177t-12.5 103.5zM455 1599q0 43 27.5 72t68.5 29t68.5 -29.5t27.5 -73.5q0 -30 -11.5 -104t-28.5 -175.5t-25 -162.5h-60q-8 62 -25.5 163.5 t-29.5 177t-12 103.5z" />
<glyph unicode="#" horiz-adv-x="1212" d="M4 522l16 103h291l49 348h-292l16 102h295l72 502h122l-71 -502h309l70 502h123l-70 -502h274l-16 -102h-277l-47 -348h281l-16 -103h-285l-76 -522h-121l72 522h-309l-78 -522h-123l78 522h-287zM434 625h309l48 348h-308z" />
<glyph unicode="$" horiz-adv-x="1269" d="M59 344q0 64 29 95.5t72 31.5q25 0 45 -12t32.5 -27.5t23.5 -42.5t15.5 -45t11.5 -47.5t9 -38.5q45 -167 274 -174v614q-54 22 -90 38.5t-84 42.5t-80 50.5t-66.5 60t-54.5 74.5t-33 90t-13 109q0 184 115 302t306 130v248h113v-250q174 -17 300 -109.5t126 -205.5 q0 -52 -28 -81.5t-78 -29.5q-36 0 -59 16.5t-34.5 43.5t-20 60t-20.5 67t-31.5 63.5t-58.5 51.5t-96 28v-565q266 -116 373.5 -226t107.5 -262q0 -192 -132.5 -316.5t-348.5 -143.5v-332h-113v330q-137 6 -253 52t-187.5 128t-71.5 182zM342 1266q0 -86 55.5 -156 t173.5 -129v514q-107 -15 -168 -75.5t-61 -153.5zM684 88q131 17 199.5 84.5t68.5 173.5q0 58 -20 105t-60 83t-83 61.5t-105 53.5v-561z" />
<glyph unicode="%" horiz-adv-x="1241" d="M6 0l1133 1577h98l-1114 -1577h-117zM102 1270q0 137 71 232t171 95t171 -95t71 -232q0 -133 -71 -226.5t-171 -93.5t-171 93.5t-71 226.5zM219 1266q0 -147 31 -206t94 -59q62 0 93.5 59t31.5 206q0 155 -31 217.5t-94 62.5t-94 -62.5t-31 -217.5zM657 299 q0 137 71 232.5t171 95.5t171 -95.5t71 -232.5q0 -133 -71 -226t-171 -93t-171 93t-71 226zM774 295q0 -147 31 -205.5t94 -58.5q62 0 93.5 59t31.5 205q0 155 -31 217.5t-94 62.5t-94 -62.5t-31 -217.5z" />
<glyph unicode="&#x26;" horiz-adv-x="1806" d="M98 342q0 138 111.5 257t353.5 237q-66 95 -95.5 179.5t-29.5 176.5q0 180 99.5 292.5t257.5 112.5q140 0 229.5 -86t89.5 -219q0 -114 -75 -214t-246 -218l331 -432q101 123 164.5 232.5t63.5 162.5q0 32 -29.5 47t-95.5 15v71h471v-71q-89 0 -133.5 -22t-87.5 -87 l-291 -426q175 -237 364 -237q54 0 85 23.5t65 92.5l51 -14q-22 -114 -100 -174.5t-203 -60.5q-101 0 -190.5 49.5t-217.5 175.5q-101 -106 -236.5 -165.5t-273.5 -59.5q-187 0 -309.5 102.5t-122.5 259.5zM346 367q0 -113 73 -185.5t187 -72.5q85 0 184.5 43.5t186.5 119.5 l-359 473q-129 -73 -200.5 -172.5t-71.5 -205.5zM631 1266q0 -181 104 -328q189 147 189 326q0 95 -43 152t-115 57q-66 0 -100.5 -53t-34.5 -154z" />
<glyph unicode="'" horiz-adv-x="479" d="M143 1599q0 43 28 72t69 29t68.5 -29.5t27.5 -73.5q0 -29 -12 -103.5t-29 -176t-25 -162.5h-59q-8 62 -25.5 163.5t-30 177t-12.5 103.5z" />
<glyph unicode="(" horiz-adv-x="837" d="M203 662q0 277 121.5 540.5t357.5 499.5l63 -57q-198 -267 -267.5 -466.5t-69.5 -482.5q0 -339 83 -582.5t271 -453.5l-64 -57q-244 237 -369.5 506.5t-125.5 552.5z" />
<glyph unicode=")" horiz-adv-x="837" d="M76 -340q188 210 271 453.5t83 582.5q0 282 -70 481.5t-268 467.5l64 57q236 -236 357.5 -499.5t121.5 -540.5q0 -283 -126 -552.5t-370 -506.5z" />
<glyph unicode="*" horiz-adv-x="1024" d="M113 985q0 56 47 80q33 20 88 20q83 6 201 72q-132 74 -197 74q-57 0 -86 18q-49 27 -49 82q0 54 49 80t92 0q29 -15 59 -65q58 -76 164 -136q0 128 -35 209q-26 43 -26 84q0 40 26 67t66 27t67 -27t27 -67q0 -38 -26 -84q-37 -84 -37 -209q118 69 164 136q34 52 59 65 q47 27 94 -0.5t47 -79.5q0 -55 -49 -82q-32 -18 -86 -18q-68 0 -197 -74q124 -72 201 -72q50 0 88 -20q47 -24 47 -82q0 -54 -49 -79t-92 1q-27 14 -59 66q-40 63 -166 133h-4q0 -140 34 -209q25 -59 25 -84q1 -39 -25 -66.5t-65 -29.5q-41 2 -67.5 28.5t-26.5 67.5 q-3 24 26 82q34 73 37 211q-131 -73 -166 -133q-39 -56 -59 -66q-49 -28 -95 0.5t-46 79.5z" />
<glyph unicode="+" horiz-adv-x="1183" d="M113 641v102h426v428h106v-428h426v-102h-426v-428h-106v428h-426z" />
<glyph unicode="," horiz-adv-x="495" d="M92 -293q109 77 157 149t48 160q-26 -16 -61 -16q-46 0 -76.5 34t-30.5 87q0 57 38 92t99 35q72 0 110 -52.5t38 -152.5q0 -114 -60.5 -202.5t-214.5 -198.5z" />
<glyph unicode="-" horiz-adv-x="632" d="M0 508v170h633v-170h-633z" />
<glyph unicode="." horiz-adv-x="442" d="M92 113q0 57 38.5 96t94.5 39q57 0 96 -39t39 -96q0 -56 -39 -94.5t-96 -38.5q-55 0 -94 39t-39 94z" />
<glyph unicode="/" horiz-adv-x="1079" d="M102 0l723 1577h101l-705 -1577h-119z" />
<glyph unicode="0" horiz-adv-x="1452" d="M121 776q0 170 48 323t129.5 262t193.5 172.5t235 63.5t235 -63.5t193.5 -172.5t129.5 -262t48 -323q0 -218 -81.5 -401.5t-220.5 -289t-304 -105.5t-304 105.5t-220.5 289t-81.5 401.5zM387 770q0 -196 22.5 -332t68 -214t106 -112t143.5 -34q82 0 142.5 34t106 112 t68.5 214t23 332q0 205 -22.5 347.5t-68 225.5t-106 119.5t-143.5 36.5t-143.5 -36.5t-106 -119.5t-68 -225.5t-22.5 -347.5z" />
<glyph unicode="1" horiz-adv-x="712" d="M33 1434v77q207 9 424 86v-1265q0 -56 3 -92t12 -66t22.5 -46t39 -28t57 -16t79.5 -6v-78h-627v78q71 3 110.5 13t64 38t31.5 70t7 118v752q0 266 -8 299q-10 42 -57 54t-158 12z" />
<glyph unicode="2" horiz-adv-x="1275" d="M113 0v68q235 209 384.5 364t236 283.5t119 229.5t32.5 214q0 158 -75.5 251t-203.5 93q-122 0 -199 -80t-77 -206q0 -110 61 -176t164 -66q-9 -49 -53 -79t-107 -30q-114 0 -189 87.5t-75 220.5q0 183 145 304t363 121q216 0 353.5 -124.5t137.5 -319.5 q0 -99 -37.5 -200.5t-100.5 -192.5t-158 -189t-195.5 -182.5t-228.5 -179.5l2 -10h407q102 0 154 47t94 188h76l-78 -436h-952z" />
<glyph unicode="3" horiz-adv-x="1261" d="M113 342q0 110 67.5 185t167.5 75q57 0 102 -26t56 -64q-77 0 -126.5 -56.5t-49.5 -144.5q0 -104 74 -169.5t194 -65.5q140 0 214.5 93.5t74.5 268.5q0 169 -69 263t-193 94q-76 -37 -138 -37q-41 0 -67.5 19t-26.5 50q0 27 24 42.5t66 15.5q58 0 125 -23 q109 0 176.5 99.5t67.5 261.5q0 146 -59.5 216t-182.5 70q-108 0 -170.5 -49t-62.5 -135q0 -69 40.5 -112.5t106.5 -43.5q-9 -34 -49 -55.5t-94 -21.5q-89 0 -149 62.5t-60 154.5q0 130 120.5 209t317.5 79q221 0 354.5 -100t133.5 -264q0 -135 -88 -240.5t-219 -138.5v-12 q157 -41 255.5 -153.5t98.5 -264.5q0 -191 -154 -317.5t-389 -126.5q-212 0 -350.5 102.5t-138.5 259.5z" />
<glyph unicode="4" horiz-adv-x="1230" d="M82 367v102l721 1128h63v-1132q68 2 102 8t56.5 27.5t27.5 53t5 95.5l71 2v-456h-71q0 61 -5.5 92t-27 52.5t-56.5 27.5t-102 8v-43q0 -83 5.5 -128.5t24.5 -75t48.5 -39t83.5 -11.5v-78h-575v78q71 3 110.5 13t64 38t31.5 70t7 118v50h-584zM184 469h482v717h-19z" />
<glyph unicode="5" horiz-adv-x="1234" d="M78 262q0 56 25.5 86.5t72.5 30.5q39 0 63.5 -23t34 -57t23 -74.5t29.5 -74.5t55.5 -57t99.5 -23q158 0 249 145.5t91 392.5q0 176 -49 257t-160 81q-85 0 -140 -46.5t-89 -147.5q-14 -40 -20 -49t-21 -9q-30 0 -43.5 15.5t-7.5 42.5l219 845q85 -36 240 -36 q194 0 272 38l12 -2q-25 -117 -108 -180t-211 -63h-180l-97 -367l4 -6q31 23 90 38t119 15q181 0 302.5 -136t121.5 -337q0 -120 -46.5 -228t-126.5 -185t-191 -122.5t-236 -45.5q-173 0 -285 79.5t-112 202.5z" />
<glyph unicode="6" horiz-adv-x="1333" d="M131 690q0 245 87.5 454t237 331t324.5 122q148 0 251.5 -60.5t103.5 -147.5q0 -49 -30 -78t-81 -29q-44 0 -72 23t-44.5 56t-35 65.5t-56 55.5t-95.5 23q-93 0 -168.5 -83.5t-118.5 -231.5t-43 -330l6 -4q66 95 144 139.5t180 44.5q207 0 346 -146t139 -364 q0 -151 -72 -277.5t-197 -199.5t-273 -73q-155 0 -276.5 90t-189 252t-67.5 368zM387 580q0 -251 72.5 -379.5t212.5 -128.5q141 0 209.5 110t68.5 340q0 204 -66 311t-192 107q-93 0 -165 -61.5t-140 -198.5v-100z" />
<glyph unicode="7" horiz-adv-x="1136" d="M113 1126l143 574h82q-8 -24 -8 -64q-3 -37 26.5 -48t128.5 -11h600v-41q-216 -471 -302 -681t-218 -576q-60 -164 -106.5 -231.5t-100.5 -67.5q-42 0 -68 30.5t-26 81.5q0 43 38.5 126t197.5 386q24 47 38.5 74t38.5 73.5t46 88.5l278 534h-381q-68 0 -107.5 -3.5 t-72 -12t-52 -29t-34.5 -48t-33 -75.5l-31 -80h-77z" />
<glyph unicode="8" horiz-adv-x="1220" d="M111 365q0 262 344 426q-64 35 -112.5 72t-90.5 86t-64 111t-22 134q0 81 35 157t96 132q117 114 307 114q165 0 287 -86q70 -48 113 -119t43 -151q0 -64 -20 -117.5t-60.5 -96t-83 -73.5t-105.5 -67q328 -171 328 -451q0 -137 -72 -243t-185 -159.5t-245 -53.5 q-85 0 -170 24.5t-158 70t-119 121.5t-46 169zM305 377q0 -147 85 -225t235 -78q120 0 207.5 76.5t87.5 197.5q0 52 -14.5 96t-33.5 73t-56.5 60t-62 47t-72.5 44q-5 3 -9 5.5t-8 4.5l-123 70q-109 -61 -172.5 -156t-63.5 -215zM342 1280q0 -45 14.5 -84t34 -65t55 -54.5 t60 -43.5t67.5 -39q15 -9 23 -13l96 -51q73 46 129 125t56 153q0 128 -75 212.5t-204 84.5q-118 0 -187 -66t-69 -159z" />
<glyph unicode="9" horiz-adv-x="1333" d="M131 1047q0 151 72.5 277.5t197.5 199.5t273 73q155 0 276 -90t188.5 -251.5t67.5 -368.5q0 -245 -87.5 -454t-237 -331t-324.5 -122q-148 0 -251 60t-103 148q0 50 29.5 78.5t80.5 28.5q44 0 72 -23t44.5 -55.5t35 -65.5t56 -56t95.5 -23q93 0 168.5 83.5t118.5 231.5 t43 330l-6 4q-66 -95 -144 -139.5t-180 -44.5q-207 0 -346 146t-139 364zM387 1055q0 -204 66 -311t192 -107q93 0 165 61.5t140 198.5v100q0 251 -72 379.5t-212 128.5q-141 0 -210 -110t-69 -340z" />
<glyph unicode=":" horiz-adv-x="442" d="M92 113q0 57 38.5 96t94.5 39q57 0 96 -39t39 -96q0 -56 -39 -94.5t-96 -38.5q-55 0 -94 39t-39 94zM92 780q0 57 38.5 96t94.5 39q57 0 96 -39t39 -96q0 -56 -39 -94.5t-96 -38.5q-55 0 -94 38.5t-39 94.5z" />
<glyph unicode=";" horiz-adv-x="442" d="M55 -293q109 77 157 149t48 160q-26 -16 -61 -16q-46 0 -76.5 34t-30.5 87q0 57 38 92t99 35q72 0 110 -52.5t38 -152.5q0 -114 -60.5 -202.5t-214.5 -198.5zM92 780q0 57 38.5 96t94.5 39q57 0 96 -39t39 -96q0 -56 -39 -94.5t-96 -38.5q-55 0 -94 38.5t-39 94.5z" />
<glyph unicode="&#x3c;" horiz-adv-x="1142" d="M113 623v131l938 475v-115l-846 -426l846 -430v-111z" />
<glyph unicode="=" horiz-adv-x="1073" d="M72 516v102h929v-102h-929zM72 864v103h929v-103h-929z" />
<glyph unicode="&#x3e;" horiz-adv-x="1142" d="M92 147v111l846 430l-846 426v115l938 -475v-131z" />
<glyph unicode="?" horiz-adv-x="679" d="M61 1483q0 114 127 114q110 0 210 -71.5t160 -190.5t60 -250q0 -155 -86 -241t-243 -86v-273h-113v469h60q266 0 266 203q0 98 -52.5 168t-125.5 70q-25 0 -78.5 -11.5t-75.5 -11.5q-48 0 -78.5 31t-30.5 80zM92 113q0 57 38.5 96t94.5 39q57 0 96 -39t39 -96 q0 -56 -39 -94.5t-96 -38.5q-55 0 -94 39t-39 94z" />
<glyph unicode="@" horiz-adv-x="2101" d="M133 614q0 204 82 386.5t222 313t334.5 207t412.5 76.5q242 0 429 -92t289.5 -258.5t102.5 -382.5q0 -184 -72 -347.5t-192.5 -261t-255.5 -97.5q-201 0 -219 233l-4 2q-63 -106 -158 -170.5t-189 -64.5q-132 0 -219.5 99t-87.5 251q0 146 79 285.5t206 226t260 86.5 q95 0 153 -49t87 -152l6 -2l47 182h196l-137 -485q-53 -186 -53 -258q0 -38 24.5 -60t65.5 -22q66 0 133.5 53t119.5 136.5t85 193.5t33 217q0 183 -92.5 330.5t-256.5 231t-368 83.5q-243 0 -444.5 -117.5t-317 -322.5t-115.5 -453q0 -174 60.5 -320.5t169 -249.5 t264 -160.5t340.5 -57.5q345 0 643 205l43 -64q-180 -125 -350.5 -182t-362.5 -57q-215 0 -400 66t-315 182.5t-204 282t-74 357.5zM809 465q0 -215 137 -215q64 0 133 51t122.5 129.5t88.5 180t35 196.5q0 100 -41.5 156.5t-114.5 56.5q-88 0 -172 -80.5t-136 -210 t-52 -264.5z" />
<glyph unicode="A" horiz-adv-x="1634" d="M14 0v78q94 11 140.5 45.5t83.5 120.5q19 44 37 88t58 144.5t83.5 210t144.5 364t209 526.5h88l465 -1155q77 -194 121 -256q22 -31 56.5 -49.5t60 -24t73.5 -12.5v-80h-667v80q96 3 129 13q60 20 61 75q0 57 -47 182l-84 221h-547l-2 -8q-11 -28 -34 -85.5t-35.5 -89.5 t-27.5 -75.5t-21.5 -76t-6.5 -58.5q0 -18 4.5 -32.5t10.5 -24.5t18 -17t20.5 -11t25.5 -7t26 -4t28.5 -2t26.5 -2v-78h-498zM520 674h467l-227 604z" />
<glyph unicode="B" horiz-adv-x="1490" d="M51 0v78q83 2 128 11t73.5 36t36.5 68.5t8 117.5v955q0 143 -36.5 185t-168.5 48v78h613q275 0 429 -99t154 -276q0 -133 -85 -219.5t-269 -142.5v-9q125 -13 194 -34t132 -64q182 -128 182 -323q0 -108 -61.5 -201.5t-168.5 -147.5q-69 -35 -157.5 -48t-266.5 -13h-737z M512 322q0 -125 66 -179.5t217 -54.5q370 0 370 318q0 232 -190 323q-64 31 -134.5 40t-236.5 9h-92v-456zM512 881h115q127 0 179 9t103 40q64 40 92.5 98t28.5 150q0 160 -78 231.5t-247 71.5h-158q-17 0 -26 -9.5t-9 -25.5v-565z" />
<glyph unicode="C" horiz-adv-x="1658" d="M123 762q0 184 57.5 339.5t160 264.5t248.5 170t318 61q123 0 232 -34.5t235 -112.5l37 127h57l19 -471h-76q-44 179 -174 282t-311 103q-248 0 -388.5 -191t-140.5 -526q0 -329 138.5 -506.5t396.5 -177.5q195 0 323.5 106.5t184.5 313.5h84v-510h-72l-47 162 q-215 -182 -520 -182q-348 0 -555 212.5t-207 569.5z" />
<glyph unicode="D" horiz-adv-x="1785" d="M51 0v78q83 2 127.5 10.5t73 35.5t37 68.5t8.5 118.5v955q0 143 -36.5 185t-168.5 48v78h719q244 0 438.5 -105t304 -291t109.5 -419q0 -222 -102.5 -395.5t-287.5 -270t-421 -96.5h-801zM512 334q0 -119 75 -176.5t230 -57.5q280 0 430 168.5t150 489.5 q0 338 -157.5 528.5t-432.5 190.5h-260q-17 0 -26 -9.5t-9 -25.5v-1108z" />
<glyph unicode="E" horiz-adv-x="1472" d="M72 0v78q61 2 98 8.5t64 20t39.5 41.5t18 65t5.5 98v955q0 143 -36.5 185t-168.5 48v78h1184l8 -360h-72q-24 161 -108.5 216.5t-296.5 55.5h-260q-17 0 -26 -9.5t-9 -25.5v-588q204 0 289 48.5t98 187.5h72v-559h-72q-15 99 -53 149t-114 70.5t-220 21.5v-462 q0 -133 73 -183.5t267 -50.5q217 0 310.5 66.5t133.5 248.5h78l-31 -403h-1271z" />
<glyph unicode="F" d="M51 0v78q61 2 98 8.5t64 20t39.5 41.5t18 65t5.5 98v955q0 76 -6.5 116.5t-30 67.5t-61 36.5t-106.5 12.5v78h1183l23 -391h-72q-26 174 -112.5 233.5t-307.5 59.5h-260q-34 0 -34 -35v-619q204 0 289 52.5t98 203.5h71v-600h-71q-15 107 -53 161.5t-114 77t-220 23.5 v-417q0 -56 3.5 -91t15.5 -64.5t29.5 -45t52 -26.5t76 -15t107.5 -6v-78h-725z" />
<glyph unicode="G" horiz-adv-x="1746" d="M123 762q0 184 57.5 339.5t160 264.5t248.5 170t318 61q123 0 232 -34.5t235 -112.5l43 127h72l-27 -471h-98q0 96 -37 171.5t-99.5 121t-139.5 69t-162 23.5q-248 0 -388.5 -191t-140.5 -526q0 -329 138.5 -506.5t396.5 -177.5q191 0 304.5 84.5t113.5 204.5 q0 60 -11 97.5t-38 59.5t-62 31.5t-94 14.5v77h581v-77h-9q-48 0 -79 -10q-34 -12 -51 -38t-22.5 -56t-5.5 -79v-229q-35 0 -60 -0.5t-49.5 -5.5t-36.5 -7.5t-37 -14.5t-34 -16.5t-44.5 -25t-52.5 -30.5q-170 -90 -368 -90q-347 0 -550.5 212t-203.5 570z" />
<glyph unicode="H" horiz-adv-x="1853" d="M72 0v78q61 2 98 8.5t64 20t39.5 41.5t18 65t5.5 98v955q0 143 -36.5 185t-168.5 48v78h623v-78q-132 -4 -167.5 -48t-35.5 -200v-393h829v408q0 76 -6.5 116.5t-30 67.5t-61 36.5t-106.5 12.5v78h622v-78q-132 -4 -167.5 -48t-35.5 -200v-925q0 -83 7 -127t33 -72.5 t66.5 -37.5t117.5 -11v-78h-664v78q61 2 98 8.5t64 20t39.5 41.5t18 65t5.5 98v445h-829v-430q0 -55 3 -90.5t12.5 -65t23.5 -45t41 -26.5t59.5 -15t83.5 -6v-78h-663z" />
<glyph unicode="I" horiz-adv-x="808" d="M72 0v78q52 2 84 6t59.5 17t41.5 31.5t24 53t13 77.5t3 110v831q0 92 -7 143.5t-30 87t-61.5 48.5t-106.5 16v78h623v-78q-55 -2 -89 -11.5t-58 -28t-35.5 -56t-16 -86t-4.5 -127.5v-803q0 -71 2.5 -116.5t12.5 -82t23.5 -55.5t41 -32t59.5 -17t84 -6v-78h-663z" />
<glyph unicode="J" horiz-adv-x="788" d="M-246 -334q0 52 27.5 80.5t77.5 28.5q38 0 61.5 -20t54.5 -77q35 -66 61 -89t66 -23q83 0 128.5 90.5t45.5 255.5v1354q0 76 -6.5 116.5t-30 67.5t-61 36.5t-106.5 12.5v78h622v-78q-70 -2 -106.5 -11t-60 -38t-29.5 -72.5t-6 -126.5v-1255q0 -257 -109.5 -392.5 t-316.5 -135.5q-140 0 -226 54.5t-86 143.5z" />
<glyph unicode="K" horiz-adv-x="1540" d="M72 0v78q61 2 98 8.5t64 20t39.5 41.5t18 65t5.5 98v955q0 143 -36.5 185t-168.5 48v78h623v-78q-132 -4 -167.5 -48t-35.5 -200v-506l512 617q43 49 43 92q0 26 -25 35.5t-94 9.5v78h494v-76q-89 -3 -140 -32t-131 -121l-385 -445l598 -719q49 -61 95.5 -83.5 t122.5 -22.5v-78h-629v78q89 0 119 10t30 39q0 44 -69 129l-400 492l-141 -164v-258q0 -55 3 -90.5t12.5 -65t23.5 -45t41 -26.5t59.5 -15t83.5 -6v-78h-663z" />
<glyph unicode="L" horiz-adv-x="1515" d="M72 0v78q61 2 98 8.5t64 20t39.5 41.5t18 65t5.5 98v955q0 143 -36.5 185t-168.5 48v78h623v-78q-132 -4 -167.5 -48t-35.5 -200v-882q0 -58 7 -100t25 -73.5t44 -51t69 -31.5t94.5 -16.5t125.5 -4.5q122 0 198 12.5t132 48t87 94t54 156.5h77l-30 -403h-1323z" />
<glyph unicode="M" horiz-adv-x="2191" d="M72 0v78q52 2 84 6t59.5 17t41.5 31.5t24 53t13 77.5t3 110v831q0 92 -7 143.5t-30 87t-61.5 48.5t-106.5 16v78h490l516 -1210h8l532 1210h459v-78q-55 -2 -89 -11.5t-58 -28t-35.5 -56t-16 -86t-4.5 -127.5v-803q0 -71 3 -116.5t13 -82t23.5 -55.5t41 -32t59.5 -17 t84 -6v-78h-664v78q52 2 84.5 6t60 17t41.5 31.5t24 53t13 77.5q2 32 2 78v32v950h-20l-598 -1343h-45l-588 1343h-8v-936q0 -71 2.5 -116.5t12.5 -82t23.5 -55.5t41 -32t59.5 -17t84 -6v-78h-571z" />
<glyph unicode="N" horiz-adv-x="1820" d="M72 0v78q52 2 84 6t59.5 17t41.5 31.5t24 53t13 77.5t3 110v831q0 92 -7 143.5t-30 87t-61.5 48.5t-106.5 16v78h406l895 -1194h8v807q0 61 -2.5 102t-7 76t-15.5 55.5t-24.5 36t-37.5 23t-50 11.5t-66 5v78h551v-78q-52 -2 -84 -6t-59.5 -17t-41.5 -31.5t-24 -53 t-13 -77.5t-3 -110v-1224h-123l-973 1282h-8v-875q0 -61 2.5 -102t7 -76t15.5 -55.5t24.5 -36t37.5 -23t50 -11.5t66 -5v-78h-551z" />
<glyph unicode="O" horiz-adv-x="1935" d="M117 776q0 228 112.5 416.5t308 296.5t431.5 108t431.5 -108t308 -296.5t112.5 -416.5q0 -164 -67 -311.5t-180.5 -253.5t-271.5 -168.5t-333 -62.5t-333 62.5t-271.5 168.5t-180.5 253.5t-67 311.5zM383 770q0 -312 158 -495t428 -183q269 0 427 183t158 495 q0 329 -157.5 522t-427.5 193t-428 -193t-158 -522z" />
<glyph unicode="P" horiz-adv-x="1372" d="M72 0v78q61 2 98 8.5t64 20t39.5 41.5t18 65t5.5 98v955q0 143 -36.5 185t-168.5 48v78h643q281 0 436.5 -104.5t155.5 -290.5q0 -225 -150 -345t-481 -120h-184v-395q0 -81 8.5 -124.5t40.5 -73t84.5 -38t149.5 -8.5v-78h-723zM512 819h145q206 0 305 80.5t99 257.5 q0 170 -78.5 247t-247.5 77h-188q-17 0 -26 -9.5t-9 -25.5v-627z" />
<glyph unicode="Q" horiz-adv-x="1933" d="M115 770q0 174 66 327.5t179.5 263t271.5 173t335 63.5q236 0 431.5 -108t308 -297t112.5 -418q0 -253 -136 -454t-358 -304q-40 -19 -128 -52.5t-161 -67.5t-125 -72v-4q26 0 72 4q82 0 171.5 -24t156 -53t152 -53t159.5 -24q94 0 144 41t81 142h51q9 -56 9 -86 q0 -128 -103 -213.5t-256 -85.5q-84 0 -170 29t-156.5 70t-137 82t-134 70t-123.5 29q-39 0 -71 -13.5t-53.5 -33t-40.5 -39.5t-41.5 -33.5t-47.5 -13.5q-28 0 -43.5 14t-15.5 37q0 70 137 119l264 156q-170 5 -319 72.5t-254.5 178t-166 261t-60.5 317.5zM381 770 q0 -335 158 -532t428 -197q268 0 426.5 197t158.5 532q0 329 -157.5 522t-427.5 193t-428 -193t-158 -522z" />
<glyph unicode="R" horiz-adv-x="1593" d="M72 0v78q61 2 98 8.5t64 20t39.5 41.5t18 65t5.5 98v955q0 143 -36.5 185t-168.5 48v78h643q281 0 436.5 -104.5t155.5 -290.5q0 -168 -101 -275t-311 -143l453 -545q53 -64 118.5 -95.5t162.5 -45.5v-78h-396l-501 643q-52 68 -96.5 86.5t-143.5 18.5v-426 q0 -81 8.5 -124.5t40.5 -73t84.5 -38t149.5 -8.5v-78h-723zM512 850h145q206 0 305 76.5t99 244.5q0 163 -78.5 236.5t-247.5 73.5h-188q-17 0 -26 -9.5t-9 -25.5v-596z" />
<glyph unicode="S" horiz-adv-x="1269" d="M94 481h76q14 -83 47.5 -152.5t87 -125.5t135 -87.5t181.5 -31.5q144 0 237.5 68.5t93.5 193.5q0 54 -21 100.5t-51 79t-82 65t-94.5 52t-109.5 47.5q-42 17 -65 27t-65.5 30t-68 35.5t-62.5 40.5t-59.5 49t-49 57.5t-40.5 68.5t-24 79t-10 92q0 99 37.5 181t101 135.5 t146 82.5t173.5 29q174 0 326 -120l53 92h47l13 -408h-76q-20 69 -47 123t-68.5 104t-103 77.5t-138.5 27.5q-115 0 -193.5 -57.5t-78.5 -165.5q0 -51 20.5 -96t49 -75.5t75.5 -60.5t81.5 -46t86.5 -38q55 -23 87 -37t82.5 -38t81.5 -42.5t72.5 -46t66.5 -53t53 -59.5 t43 -69.5t25 -79t10 -91.5q0 -90 -32.5 -166t-87 -129t-127.5 -90.5t-153 -55t-164 -17.5q-115 0 -207.5 34.5t-185.5 108.5l-57 -100h-47z" />
<glyph unicode="T" horiz-adv-x="1636" d="M39 1186v391h1546l21 -391h-84q-13 175 -90.5 239t-260.5 64q-101 0 -150.5 -6.5t-65 -19.5t-15.5 -38v-1095q0 -72 9 -113.5t36.5 -74.5t79.5 -47t139 -17v-78h-774v78q87 3 139 17t80.5 47t37.5 75t9 113v1095q0 25 -13.5 38t-57 19.5t-129.5 6.5q-54 0 -88.5 -1.5 t-78.5 -8t-71 -18.5t-56.5 -34t-45.5 -54t-27.5 -79t-13.5 -108h-76z" />
<glyph unicode="U" horiz-adv-x="1775" d="M59 1499v78h699v-78q-34 0 -49 -0.5t-46.5 -4.5t-48 -11.5t-35 -23.5t-26.5 -40q-21 -69 -21 -319v-557q0 -218 96.5 -327.5t317.5 -109.5q203 0 306.5 114t103.5 335v494q0 268 -25 342q-12 35 -34 58t-54.5 33t-62 13.5t-70.5 3.5v78h594v-78q-90 -2 -124 -15 q-49 -21 -69 -71q-32 -81 -32 -364v-414q0 -332 -138 -493.5t-452 -161.5q-155 0 -265 30t-186.5 98t-113.5 179.5t-37 271.5v541q0 253 -23 319q-9 23 -27 39t-36 24t-47 12t-46.5 4.5t-48.5 0.5z" />
<glyph unicode="V" horiz-adv-x="1662" d="M14 1497v80h668v-80q-96 -3 -129 -13q-61 -19 -61 -75q0 -21 6 -46t12.5 -42t18.5 -45.5t16 -40.5l364 -922l283 701q15 39 44 107.5t45 109t30 88.5t14 80q0 18 -4.5 32.5t-10.5 24.5t-18 17t-20.5 11t-25.5 7t-26 4t-28.5 2t-26.5 2v78h498v-78q-94 -10 -140 -45 t-83 -121q-5 -11 -39 -89.5t-64.5 -150.5t-89.5 -214.5t-151 -370.5t-211 -528h-72l-487 1175q-77 194 -121 256q-22 31 -57 49.5t-60.5 24t-73.5 12.5z" />
<glyph unicode="W" horiz-adv-x="2461" d="M14 1497v80h668v-80q-115 -3 -152.5 -22t-37.5 -66q0 -12 2.5 -29t8.5 -39t11.5 -41t14.5 -46.5t15 -44t16 -45t13 -38.5l265 -811l252 709q16 47 52 139.5t48 132.5q-9 18 -19.5 43t-18 42t-15.5 30q-26 39 -58 57t-92 29v80h627v-80q-81 -2 -122.5 -12t-55 -27.5 t-13.5 -50.5q0 -24 9.5 -59t34 -109.5t36.5 -112.5l242 -817l250 709q15 42 52.5 137t55 151t17.5 97q0 20 -4 35.5t-14.5 25.5t-18 16t-27 9.5t-28 5t-33 2.5t-31.5 2v78h498v-78q-94 -11 -141.5 -45.5t-82.5 -120.5q-154 -371 -514 -1353h-71l-393 1165 q-111 -282 -437 -1165h-71l-426 1175q-23 62 -58.5 140.5t-62.5 115.5t-67 55.5t-124 30.5z" />
<glyph unicode="X" horiz-adv-x="1726" d="M23 0l2 78q96 0 165 41.5t166 165.5l402 512l-416 567q-49 66 -112 97.5t-154 37.5v78h680v-78q-133 0 -133 -78q0 -55 57 -137l223 -332q49 66 117.5 151.5t101 127.5t58.5 92t26 90q0 49 -35 67.5t-118 18.5v78h563v-78q-118 0 -186 -57q-27 -23 -58.5 -60.5t-75 -97.5 t-55.5 -76l-270 -346l471 -639q107 -145 260 -145v-78h-698v78q83 0 126.5 22.5t43.5 51.5q0 18 -14 46.5t-27.5 49.5t-40 57.5t-33.5 46.5l-234 348l-176 -221q-134 -170 -179.5 -238.5t-45.5 -103.5q0 -33 37.5 -46t130.5 -13v-78h-569z" />
<glyph unicode="Y" horiz-adv-x="1433" d="M-39 1499v78h645v-78q-102 0 -144 -15.5t-42 -53.5q0 -40 47 -123l319 -543h7l231 389q121 204 121 277q0 38 -29.5 53.5t-103.5 15.5v78h469v-78q-45 0 -77 -12t-71 -51t-80.5 -100.5t-107.5 -172.5l-316 -532v-244q0 -71 2.5 -115.5t12 -81.5t23 -55.5t41 -32t60 -18 t85.5 -6.5v-78h-664v78q52 2 85 6.5t60 17.5t41 31.5t23.5 53.5t12.5 77.5t3 108.5v250l-409 700q-63 106 -111.5 141t-132.5 35z" />
<glyph unicode="Z" horiz-adv-x="1601" d="M113 0v6l1077 1485h-561q-145 0 -217.5 -66t-100.5 -225h-75l30 377h1247v-6l-1067 -1477h635q73 0 123 6t91.5 24t67.5 43.5t47 71.5t34 102t26 140h89l-25 -481h-1421z" />
<glyph unicode="[" horiz-adv-x="819" d="M205 -307v1986h493v-96h-309v-1794h309v-96h-493z" />
<glyph unicode="\" horiz-adv-x="1079" d="M154 1577h100l723 -1577h-119z" />
<glyph unicode="]" horiz-adv-x="819" d="M121 -211h309v1794h-309v96h493v-1986h-493v96z" />
<glyph unicode="^" horiz-adv-x="753" d="M41 471l244 367h184l244 -367h-92l-244 242l-244 -242h-92z" />
<glyph unicode="_" horiz-adv-x="1167" d="M0 -154h1167v-139h-1167v139z" />
<glyph unicode="`" horiz-adv-x="563" d="M41 1573q0 33 21 52.5t57 19.5q63 0 137 -68l266 -244h-96l-281 133q-104 49 -104 107z" />
<glyph unicode="a" horiz-adv-x="1130" d="M78 223q0 102 76 183.5t256 158.5l295 129v84q0 128 -52 189t-161 61q-70 0 -99.5 -26t-56.5 -107q-23 -58 -45 -78t-62 -20q-49 0 -75.5 26.5t-26.5 75.5q0 98 104.5 152.5t296.5 54.5q206 0 291.5 -72.5t85.5 -247.5v-458q0 -234 92 -234q74 0 101 45l28 -49 q-25 -47 -90 -78.5t-137 -31.5q-88 0 -133 56.5t-45 162.5h-10q-54 -101 -149 -159t-208 -58q-127 0 -201.5 66t-74.5 175zM285 258q0 -68 45.5 -111t118.5 -43q106 0 181 100t75 240v162q-227 -86 -323.5 -169.5t-96.5 -178.5z" />
<glyph unicode="b" horiz-adv-x="1409" d="M68 1567v51l385 82v-760h8q66 86 145 126t182 40q109 0 206 -43.5t166.5 -118.5t110 -179.5t40.5 -221.5q0 -159 -69.5 -288.5t-191 -203.5t-268.5 -74q-115 0 -217.5 43t-167.5 117l-96 -137h-45v1237q0 205 -27 264q-10 21 -22.5 31t-42.5 18t-96 17zM457 428 q0 -154 85.5 -253t217.5 -99q143 0 231 127t88 334q0 209 -91 341t-236 132q-83 0 -148.5 -40.5t-101.5 -111.5q-45 -88 -45 -248v-182z" />
<glyph unicode="c" horiz-adv-x="1116" d="M98 535q0 260 157 415.5t413 155.5q158 0 259 -50t101 -130q0 -40 -27 -63t-73 -23q-38 0 -63 16.5t-62 67.5q-40 48 -78.5 67t-97.5 19q-145 0 -220 -113.5t-75 -331.5q0 -233 83.5 -356t241.5 -123q170 0 316 143l61 -59q-74 -89 -190.5 -139.5t-251.5 -50.5 q-219 0 -356.5 153.5t-137.5 401.5z" />
<glyph unicode="d" horiz-adv-x="1406" d="M98 545q0 243 151.5 402t381.5 159q186 0 323 -137v209q0 246 -12 301q-11 45 -58.5 63.5t-152.5 18.5v61l420 78v-1182q0 -291 14 -362q8 -51 39.5 -67.5t126.5 -16.5v-70l-340 -22v192h-8q-73 -102 -156 -147t-196 -45q-232 0 -382.5 159t-150.5 406zM330 555 q0 -221 78 -349t223 -128q76 0 152 35t114 94q29 44 41 107.5t12 174.5v136q0 108 -11.5 162.5t-43.5 95.5q-44 59 -117 92t-147 33q-144 0 -222.5 -121.5t-78.5 -331.5z" />
<glyph unicode="e" horiz-adv-x="1198" d="M98 530q0 252 157 414t404 162q197 0 306.5 -108.5t109.5 -307.5q0 -27 -10.5 -34t-52.5 -7h-674q-8 -31 -8 -92q0 -214 99 -342.5t263 -128.5q166 0 312 162l63 -58q-175 -210 -432 -210q-239 0 -388 152t-149 398zM352 743h377q82 0 102.5 10t20.5 48q0 94 -61 150.5 t-164 56.5q-109 0 -179 -67.5t-96 -197.5z" />
<glyph unicode="f" horiz-adv-x="858" d="M25 956v97h231v147q3 237 126.5 368.5t350.5 131.5q126 0 206.5 -39t80.5 -100q0 -41 -26 -69t-64 -28q-43 0 -125 68q-51 42 -80 56t-68 14q-123 0 -176 -125q-32 -68 -32 -265v-159h329v-97h-329v-626q0 -153 42 -204t171 -54v-72h-582v72q42 2 67.5 6t47 14.5t32 25 t18 43t9.5 63t2 89.5v643h-231z" />
<glyph unicode="g" horiz-adv-x="1132" d="M10 -246q0 86 54 145.5t129 59.5q69 0 124 -43q-55 -12 -89.5 -60t-34.5 -110q0 -89 89.5 -138.5t252.5 -49.5q350 0 350 215q0 79 -54.5 134t-132.5 66q-173 24 -366 45q-114 12 -174 62t-60 135q0 72 59.5 129t149.5 70v4q-91 37 -151 129.5t-60 197.5q0 155 114.5 258 t289.5 103q90 0 170 -28.5t137 -80.5q132 109 223 109q74 0 118 -34t44 -91q0 -33 -23 -54.5t-59 -21.5q-39 0 -80 32t-74 32q-50 0 -100 -35q49 -74 49 -191q0 -173 -110.5 -273.5t-323.5 -115.5q-128 -9 -175.5 -26.5t-47.5 -59.5q0 -58 145 -67q143 -11 338 -39 q149 -22 237.5 -114t88.5 -228q0 -170 -137 -261t-394 -91q-229 0 -372.5 79.5t-143.5 206.5zM311 739q0 -135 53.5 -217t141.5 -82q86 0 134 78.5t48 218.5q0 138 -48.5 215.5t-135.5 77.5q-88 0 -140.5 -79t-52.5 -212z" />
<glyph unicode="h" horiz-adv-x="1480" d="M76 1552v70l377 78v-780h8q63 82 175.5 134t225.5 52q93 0 172.5 -32.5t122.5 -88.5q68 -88 68 -332v-327q0 -62 1 -96.5t8 -66t16 -45t30.5 -25t45.5 -15t67 -6.5v-72h-543v72q42 2 67 5.5t46.5 14.5t31.5 24.5t17 42.5t8.5 62.5t1.5 89.5v258q0 231 -52.5 327.5 t-178.5 96.5q-95 0 -175 -49t-124 -135q-22 -43 -28.5 -85t-6.5 -136v-262q0 -46 0.5 -75t4 -58t7.5 -44t14 -30t20.5 -21.5t30 -13t39.5 -8.5t52 -4v-72h-545v72q37 2 60 5.5t44 9.5t32 18.5t20 27.5t13 42t5.5 57.5t1.5 78.5v858q0 232 -14 301q-9 50 -41.5 66t-124.5 16z " />
<glyph unicode="i" horiz-adv-x="712" d="M55 956v72l402 78v-780q0 -83 6.5 -128.5t28.5 -75t56.5 -39t98.5 -11.5v-72h-588v72q52 3 84.5 10t56 21.5t35 43t16.5 66t5 98.5v262q0 249 -14 301q-9 48 -47.5 65t-139.5 17zM221 1522q0 54 36.5 90.5t90.5 36.5t90.5 -36.5t36.5 -90.5t-36.5 -90.5t-90.5 -36.5 t-90.5 36.5t-36.5 90.5z" />
<glyph unicode="j" horiz-adv-x="702" d="M-260 -342q0 46 27 71t77 25q37 0 56.5 -17.5t50.5 -78.5q30 -62 54.5 -82t74.5 -20q98 0 137 67.5t39 237.5v712q0 249 -14 301q-9 48 -47.5 65t-139.5 17v72l402 78v-1110q0 -255 -108.5 -391.5t-311.5 -136.5q-131 0 -214 53t-83 137zM225 1522q0 54 36.5 90.5 t90.5 36.5t90.5 -36.5t36.5 -90.5t-36.5 -90.5t-90.5 -36.5t-90.5 36.5t-36.5 90.5z" />
<glyph unicode="k" horiz-adv-x="1312" d="M55 1552v70l396 78v-1125l190 187q139 135 162 164q20 25 20 39q0 22 -44 35.5t-122 13.5v71h533v-71q-75 0 -122 -21t-120 -88l-295 -262l406 -459q58 -64 104.5 -88t112.5 -24v-72h-539v72q119 0 119 22q0 13 -25 47.5t-79 103.5q-6 7 -9 11l-217 262l-75 -72v-120 q0 -159 33.5 -204.5t156.5 -49.5v-72h-582v72q65 2 100.5 12t59 37.5t30.5 70.5t7 119v858q0 236 -8 287q-10 66 -48 83q-27 13 -125 13h-20z" />
<glyph unicode="l" horiz-adv-x="702" d="M59 1554v70l387 76v-1381q0 -55 2.5 -90t10 -64.5t19.5 -45t34 -26.5t48.5 -15t68.5 -6v-72h-566v72q122 6 157.5 49t35.5 184v883q0 234 -12 287q-10 47 -48 63t-137 16z" />
<glyph unicode="m" horiz-adv-x="2246" d="M76 956v72l334 78l26 -205h10q93 105 194.5 155t223.5 50q129 0 217.5 -53t122.5 -150h8q75 96 185 149.5t231 53.5q96 0 175 -32t120 -87q37 -47 52.5 -124t15.5 -210v-325q0 -62 1.5 -97t8.5 -66.5t16 -45.5t30.5 -25.5t46 -15t67.5 -6.5v-72h-545v72q42 2 67.5 6 t47 14.5t31.5 24.5t17 43t9 62.5t2 88.5v258q0 234 -54 329t-186 95q-89 0 -169 -50.5t-124 -133.5q-22 -41 -28 -82t-6 -139v-260q0 -47 0.5 -75.5t4 -57.5t7.5 -44.5t14 -31t21 -22t31 -12.5t40.5 -8.5t53.5 -4.5v-72h-545v72q42 3 67 6.5t46.5 14.5t31.5 24.5t17 42.5 t8.5 62t1.5 89v258q0 238 -52 331t-184 93q-91 0 -172 -50.5t-122 -133.5q-22 -41 -28.5 -82.5t-6.5 -138.5v-260q0 -63 1 -98t8 -66.5t16 -45.5t30.5 -25.5t45.5 -14.5t67 -6v-72h-545v72q37 2 60 5.5t44 9.5t32 18.5t20 27.5t13 42t5.5 57.5t1.5 78.5v262q0 249 -14 301 q-10 52 -41 67t-125 15z" />
<glyph unicode="n" horiz-adv-x="1460" d="M80 963v65l328 78l24 -203h8q77 96 183.5 149.5t226.5 53.5q93 0 171.5 -31t119.5 -84q35 -47 49 -121t14 -206v-342q0 -60 1.5 -95t8.5 -65.5t16.5 -45t30.5 -25.5t44.5 -14.5t64.5 -6.5v-70h-530v70q41 2 66 5.5t46 14.5t31 25t17 42.5t8.5 61.5t1.5 88v271 q0 231 -53 324t-181 93q-91 0 -168.5 -48.5t-120.5 -131.5q-22 -42 -29 -83t-7 -136v-274q0 -61 1 -95t8 -65.5t16.5 -45t31 -25t46 -15t67.5 -6.5v-70h-537v70q62 4 92 11.5t50.5 34.5t25 68t4.5 123v273q0 244 -12 297q-12 55 -42.5 70.5t-121.5 15.5z" />
<glyph unicode="o" d="M98 551q0 158 78 286t207.5 198.5t282.5 70.5q115 0 220.5 -42t183.5 -114.5t124.5 -176.5t46.5 -222q0 -162 -79 -294t-210 -204.5t-286 -72.5q-153 0 -282.5 72t-207.5 204t-78 295zM330 549q0 -212 91 -338.5t245 -126.5q157 0 250.5 127t93.5 338q0 205 -94.5 332 t-249.5 127q-152 0 -244 -126.5t-92 -332.5z" />
<glyph unicode="p" horiz-adv-x="1406" d="M55 950v70l394 78v-160h8q139 168 317 168q232 0 383.5 -159.5t151.5 -405.5q0 -248 -153 -404.5t-384 -156.5q-188 0 -315 135v-299q0 -86 7 -131.5t34 -75t69 -38.5t123 -11v-72h-631v72q65 2 100.5 12t59 37.5t30.5 71t7 120.5v766q0 247 -14 299q-9 50 -47.5 67 t-139.5 17zM457 475q0 -110 11.5 -163.5t43.5 -94.5q47 -65 113.5 -101t136.5 -36q142 0 228.5 120.5t86.5 331.5q0 213 -90 344.5t-237 131.5q-74 0 -137 -34t-103 -95q-53 -83 -53 -244v-160z" />
<glyph unicode="q" horiz-adv-x="1404" d="M96 528q0 119 42 226t112.5 184t168.5 122.5t206 45.5t211.5 -45t171.5 -121l90 141h51v-1265q0 -63 1.5 -98t10 -67t20.5 -46t38.5 -25.5t57 -14.5t83.5 -5v-72h-625v72q130 3 174.5 52t44.5 189v346h-8q-72 -89 -149.5 -128t-184.5 -39q-228 0 -372 152.5t-144 395.5z M328 543q0 -214 86.5 -339.5t234.5 -125.5q84 0 151.5 39.5t102.5 109.5q45 88 45 248v180q0 152 -86 251.5t-215 99.5q-146 0 -232.5 -126t-86.5 -337z" />
<glyph unicode="r" horiz-adv-x="944" d="M76 934v72l358 77l29 -254h8q57 124 155 200.5t201 76.5q66 0 104 -31.5t38 -85.5q0 -50 -31 -77t-88 -27q-48 0 -95 25.5t-67 25.5q-55 0 -110 -71t-86 -179q-35 -119 -35 -291v-69q0 -46 0.5 -75t4 -58t7.5 -44t14 -30t20.5 -21.5t30 -13t39.5 -8.5t52 -4v-72h-545v72 q37 2 60 5.5t44 9.5t32 18.5t20 27.5t13 42t5.5 57.5t1.5 78.5v240q0 241 -9 293q-10 64 -47 79q-32 11 -124 11z" />
<glyph unicode="s" horiz-adv-x="897" d="M115 0v352h51q79 -289 291 -289q82 0 130 42t48 114q0 23 -5 42t-21 38.5t-30 34t-47.5 37t-58 38t-76.5 46.5q-49 29 -76 46.5t-64 45t-57.5 51t-41 55t-29 68t-8.5 78.5q0 131 88.5 219t218.5 88q53 0 113 -17.5t104 -46.5l41 39h39v-290h-53q-44 124 -98 177.5 t-134 53.5q-69 0 -110 -38.5t-41 -106.5q0 -28 9 -51.5t22 -41t42.5 -39.5t53.5 -37t73 -44q96 -58 153 -99t99.5 -86.5t59 -90.5t16.5 -103q0 -137 -94.5 -221t-247.5 -84q-159 0 -274 92l-41 -72h-45z" />
<glyph unicode="t" horiz-adv-x="825" d="M133 956v76q111 66 171.5 129.5t92.5 149.5h60v-258h274v-97h-274v-622q0 -145 30 -199.5t111 -54.5q51 0 87.5 21.5t70.5 72.5l51 -39q-29 -75 -100 -115t-175 -40q-135 0 -205.5 64.5t-70.5 184.5v727h-123z" />
<glyph unicode="u" horiz-adv-x="1417" d="M55 1014v71h371v-559q0 -221 52.5 -322.5t166.5 -101.5q179 0 281 236q21 49 28 91.5t7 127.5v201q0 46 -0.5 74.5t-4 57t-7.5 43.5t-14 30t-20.5 22t-30.5 13.5t-40 9.5t-53 6v71h370v-628q0 -221 13 -301q9 -52 39.5 -67t125.5 -15v-72l-338 -25l-22 246h-8 q-76 -122 -176.5 -182.5t-214.5 -60.5q-88 0 -168 32.5t-121 87.5q-66 87 -66 332v326q0 62 -1 96t-8 65.5t-16 45t-31 25.5t-46 16t-68 8z" />
<glyph unicode="v" horiz-adv-x="1150" d="M-31 1014v71h543v-71q-88 -3 -112.5 -14t-24.5 -58q0 -45 28 -127l218 -594h8l186 441q80 189 80 272q0 47 -25.5 63.5t-105.5 16.5v71h407v-71q-59 0 -106 -58q-19 -26 -43 -80t-49 -118.5t-35 -85.5l-301 -695h-119l-346 854q-33 84 -60 121.5t-55.5 48.5t-87.5 13z " />
<glyph unicode="w" horiz-adv-x="1640" d="M-31 1014v71h543v-71q-75 0 -109 -17t-34 -55q0 -45 20 -127l139 -489h9l301 759h63l273 -759h8l123 331q57 160 72.5 214t15.5 87q0 56 -142 56v71h410v-71q-62 0 -107 -58q-17 -22 -32.5 -56.5t-67.5 -164.5q-6 -14 -9 -22t-8 -21t-10 -24l-278 -691h-76l-252 758h-6 l-301 -758h-76l-266 854q-37 116 -71 147.5t-132 35.5z" />
<glyph unicode="x" horiz-adv-x="1267" d="M10 0v72q96 2 155.5 38t149.5 148l209 256l-272 387q-47 65 -86.5 89t-97.5 24v71h503v-71q-48 0 -76 -13t-28 -36q0 -35 90 -160l96 -141l109 141q48 62 63 86t15 45q0 34 -34 56t-85 22v71h448v-71q-76 -3 -125.5 -35.5t-123.5 -128.5l-211 -268l272 -359 q52 -70 105.5 -104.5t127.5 -46.5v-72h-544v72q75 0 103 11.5t28 43.5q0 23 -76 123l-143 184l-109 -135q-67 -87 -82.5 -112t-15.5 -44q0 -31 29 -51t75 -20v-72h-469z" />
<glyph unicode="y" horiz-adv-x="1226" d="M-31 1014v71h543v-71q-137 0 -137 -68q0 -63 57 -201l225 -544h11l186 461q55 132 70.5 180t15.5 82q0 54 -29 72t-114 18v71h450v-71q-27 0 -45.5 -3.5t-39 -18t-36 -34.5t-38.5 -62t-46 -92t-59 -132l-446 -994q-46 -103 -121 -156.5t-172 -53.5q-129 0 -129 96 q0 51 35.5 75t132.5 39q84 13 128.5 46t82.5 110l71 143l-393 854q-53 115 -87.5 146t-115.5 37z" />
<glyph unicode="z" horiz-adv-x="1167" d="M57 0v6l709 993h-227q-74 0 -119.5 -4.5t-81 -15.5t-55.5 -34.5t-32.5 -56t-21.5 -85.5h-65l22 282h881v-6l-698 -985h239q89 0 144.5 5.5t99 18.5t69 40t43.5 63.5t33 95.5h68l-25 -317h-983z" />
<glyph unicode="{" horiz-adv-x="757" d="M88 676v51q110 22 146 80.5t36 183.5v359q0 103 14 165.5t53.5 106t107.5 61t178 17.5v-47q-93 -24 -130.5 -86t-37.5 -174v-367q0 -55 -4 -94.5t-16.5 -79t-34.5 -66t-58.5 -47.5t-87.5 -32v-11q118 -21 159.5 -89t41.5 -201v-406q0 -115 37.5 -174.5t138.5 -87.5v-45 q-208 0 -284.5 65.5t-76.5 249.5v402q0 49 -9.5 92t-29.5 82t-56.5 63.5t-86.5 28.5z" />
<glyph unicode="|" horiz-adv-x="757" d="M297 -512v2191h164v-2191h-164z" />
<glyph unicode="}" horiz-adv-x="757" d="M127 -262q101 28 138.5 87.5t37.5 174.5v406q0 133 41.5 201t159.5 89v11q-51 11 -87.5 32t-58.5 47.5t-34.5 66t-16.5 79t-4 94.5v367q0 112 -37.5 174t-130.5 86v47q110 0 178 -17.5t107 -61t53 -106t14 -165.5v-359q0 -125 36.5 -183.5t146.5 -80.5v-51 q-50 -4 -87 -28.5t-57 -63t-29.5 -82t-9.5 -92.5v-402q0 -95 -17 -154.5t-60.5 -96t-110 -50.5t-172.5 -14v45z" />
<glyph unicode="~" horiz-adv-x="872" d="M41 510q17 101 77.5 167t135.5 66q82 0 229 -49q134 -45 193 -45q34 0 54 20t34 66h67q-10 -87 -65 -168q-62 -73 -133 -73q-24 0 -56.5 6.5t-58.5 14t-102 30.5q-150 47 -219 47q-32 0 -52.5 -19t-33.5 -63h-70z" />
<glyph unicode="&#xa1;" horiz-adv-x="442" d="M92 115q0 97 41 350q9 45 16 91.5t11.5 82.5t7.5 87.5t5 80t2.5 87t0.5 81v90.5v88h98v-88v-90.5t0.5 -81t2.5 -87t5 -80t7.5 -87.5t11.5 -82.5t16 -91.5q41 -253 41 -350q0 -57 -36.5 -96t-96.5 -39t-96.5 39t-36.5 96zM92 1464q0 56 39 94.5t94 38.5q57 0 96 -38.5 t39 -94.5q0 -57 -39 -96t-96 -39q-56 0 -94.5 39t-38.5 96z" />
<glyph unicode="&#xa2;" horiz-adv-x="1116" d="M98 535q0 236 131 387.5t351 177.5v299h102v-293q153 -3 249.5 -52.5t96.5 -127.5q0 -40 -27 -63t-73 -23q-38 0 -63 16.5t-62 67.5q-60 69 -121 82v-920q154 9 291 143l61 -59q-62 -74 -153.5 -122.5t-198.5 -61.5v-287h-102v281q-215 5 -348.5 157.5t-133.5 397.5z M332 565q0 -202 63 -322t185 -149v912q-122 -17 -185 -129.5t-63 -311.5z" />
<glyph unicode="&#xa3;" horiz-adv-x="1298" d="M27 145q0 84 60 138.5t153 54.5q108 0 225 -68q4 26 4 127q0 61 -23.5 161.5t-60.5 199.5h-285v125h246q-47 158 -47 276q0 202 130.5 320t350.5 118q169 0 281.5 -67t112.5 -168q0 -45 -24 -69.5t-67 -24.5q-30 0 -51.5 12.5t-35 33t-25.5 45.5t-27.5 49.5t-37 45 t-59 33t-87.5 12.5q-115 0 -182.5 -61.5t-67.5 -165.5q0 -75 27 -178l53 -211h444v-125h-418q29 -103 29 -205q0 -195 -70 -326q73 -19 173 -32t174 -13q100 0 173 34.5t130 107.5l20 -9q0 -171 -79 -253t-220 -82q-87 0 -176 29t-250 112q-40 -61 -125.5 -102.5 t-173.5 -41.5q-89 0 -141.5 45.5t-52.5 122.5zM158 158q0 -66 102 -66t168 78q-109 53 -180 53q-40 0 -65 -17.5t-25 -47.5z" />
<glyph unicode="&#xa4;" horiz-adv-x="1144" d="M76 965l71 71l148 -147q120 96 276 96q154 0 277 -96l147 147l72 -71l-147 -148q98 -121 98 -278t-96 -277l145 -145l-72 -72l-145 145q-119 -96 -279 -96q-159 0 -278 99l-146 -146l-69 70l145 145q-96 120 -96 277q0 159 96 278zM229 539q0 -141 100.5 -241.5 t241.5 -100.5t242.5 100.5t101.5 241.5t-101.5 242.5t-242.5 101.5t-241.5 -101.5t-100.5 -242.5z" />
<glyph unicode="&#xa5;" horiz-adv-x="1433" d="M-39 1499v78h645v-78q-102 0 -144 -15.5t-42 -53.5q0 -40 47 -123l319 -543h7l231 389q121 204 121 277q0 38 -29.5 53.5t-103.5 15.5v78h469v-78q-45 0 -77 -12t-71 -51t-80.5 -100.5t-107.5 -172.5l-248 -418h285v-122h-353v-142h353v-123h-353q1 -76 6.5 -121.5 t18 -78.5t40 -48.5t63 -22.5t96.5 -9v-78h-664v78q51 2 83 6t59 16.5t41.5 30t24.5 50.5t13 73.5t4 103.5h-362v123h362v142h-362v122h291l-338 578q-63 106 -111.5 141t-132.5 35z" />
<glyph unicode="&#xa6;" horiz-adv-x="757" d="M297 -369v789h164v-789h-164zM297 748v788h164v-788h-164z" />
<glyph unicode="&#xa7;" horiz-adv-x="1132" d="M98 -18q0 75 35.5 121.5t95.5 46.5q53 0 91 -37.5t38 -89.5q0 -37 -22.5 -70.5t-45 -60t-22.5 -44.5q0 -44 84.5 -78t192.5 -34q131 0 205.5 59.5t74.5 163.5q0 81 -50 139.5t-181 130.5l-121 68q-195 104 -282 209t-87 235q0 106 53 184.5t150 116.5 q-70 60 -107.5 141.5t-37.5 172.5q0 158 105 251t282 93q167 0 277 -78.5t110 -198.5q0 -65 -34.5 -104t-92.5 -39q-54 0 -87.5 32t-33.5 83q0 25 9 45t19.5 31t19.5 25t9 28q0 40 -56.5 67t-141.5 27q-110 0 -172 -51.5t-62 -143.5q0 -76 48 -135t167 -127l123 -71 q190 -110 273.5 -215.5t83.5 -233.5q0 -89 -42.5 -159.5t-136.5 -139.5q158 -127 158 -311q0 -172 -125.5 -279.5t-326.5 -107.5q-191 0 -314 95t-123 243zM256 823q0 -64 41.5 -123.5t114.5 -101.5l204 -119l127 -78q64 50 89.5 87t25.5 81q0 67 -48.5 132.5t-139.5 121.5 l-273 162q-78 -40 -109.5 -76t-31.5 -86z" />
<glyph unicode="&#xa8;" horiz-adv-x="661" d="M41 1452q0 51 34 85t85 34t85 -34t34 -85t-34 -85t-85 -34t-85 34t-34 85zM383 1452q0 51 34 85t85 34t85 -34t34 -85t-34 -85t-85 -34t-85 34t-34 85z" />
<glyph unicode="&#xa9;" horiz-adv-x="1814" d="M115 788q0 164 62 313.5t167 258t251 173t306 64.5q163 0 311 -63.5t255 -171t170 -257t63 -314.5q0 -222 -107 -408.5t-290 -294.5t-400 -108q-160 0 -306.5 64.5t-251.5 172.5t-167.5 257.5t-62.5 313.5zM213 788q0 -193 91.5 -356t250.5 -258.5t348 -95.5t350 95.5 t255 260t94 357.5q0 194 -94 357t-255 257t-352 94q-189 0 -347.5 -96t-249.5 -259.5t-91 -355.5zM461 768q0 214 127.5 346.5t331.5 132.5q124 0 258 -84l20 72h43l10 -268h-53q-25 92 -96.5 145t-171.5 53q-138 0 -214.5 -103t-76.5 -286q0 -180 76 -275t219 -95 q200 0 260 219h68q-31 -141 -119.5 -222t-235.5 -81q-204 0 -325 121.5t-121 324.5z" />
<glyph unicode="&#xaa;" horiz-adv-x="694" d="M92 1159q0 53 38.5 92.5t135.5 81.5l144 64v39q0 59 -24.5 85.5t-78.5 26.5q-46 0 -64.5 -12t-27.5 -51q-11 -49 -53 -49q-51 0 -51 59q0 43 59 72.5t156 29.5q109 0 153.5 -35.5t44.5 -121.5v-230q0 -114 45 -114q36 0 49 22l15 -24q-13 -24 -48.5 -40t-74.5 -16 q-92 0 -92 99h-6q-27 -45 -72.5 -72t-99.5 -27q-67 0 -107.5 33.5t-40.5 87.5zM219 1188q0 -34 20 -56t52 -22q47 0 83 48t36 112v69q-191 -70 -191 -151z" />
<glyph unicode="&#xab;" horiz-adv-x="1060" d="M223 537l348 325l41 -43l-202 -282l200 -283l-39 -41zM573 537l349 325l41 -43l-203 -282l201 -283l-39 -41z" />
<glyph unicode="&#xac;" horiz-adv-x="1122" d="M92 641v102h938v-518h-102v416h-836z" />
<glyph unicode="&#xad;" horiz-adv-x="632" d="M0 508v170h633v-170h-633z" />
<glyph unicode="&#xae;" horiz-adv-x="1814" d="M115 788q0 164 62 313.5t167 258t251 173t306 64.5q163 0 311 -63.5t255 -171t170 -257t63 -314.5q0 -222 -107 -408.5t-290 -294.5t-400 -108q-160 0 -306.5 64.5t-251.5 172.5t-167.5 257.5t-62.5 313.5zM213 788q0 -193 91.5 -356t250.5 -258.5t348 -95.5t350 95.5 t255 260t94 357.5q0 194 -94 357t-255 257t-352 94q-189 0 -347.5 -96t-249.5 -259.5t-91 -355.5zM496 375v45q73 3 93.5 26.5t20.5 102.5v530q0 79 -18.5 102.5t-83.5 26.5v52h358q163 0 253.5 -59t90.5 -163q0 -197 -221 -233l254 -307q29 -35 60 -52.5t77 -25.5v-45h-221 l-282 350q-27 38 -50 48.5t-73 10.5v-229q0 -45 4.5 -68.5t20.5 -40t43.5 -21.5t78.5 -5v-45h-405zM754 852h82q104 0 154 43t50 137q0 90 -41 128t-133 38h-94q-18 0 -18 -18v-328z" />
<glyph unicode="&#xaf;" horiz-adv-x="634" d="M41 1438v102h553v-102h-553z" />
<glyph unicode="&#xb0;" horiz-adv-x="634" d="M72 1352q0 101 72 173t173 72t173.5 -72t72.5 -173t-72.5 -173.5t-173.5 -72.5t-173 72.5t-72 173.5zM133 1352q0 -75 54.5 -130t129.5 -55t129 55t54 130t-54 128.5t-129 53.5t-129.5 -53.5t-54.5 -128.5z" />
<glyph unicode="&#xb1;" horiz-adv-x="1183" d="M113 195v102h958v-102h-958zM113 907v103h426v428h106v-428h426v-103h-426v-428h-106v428h-426z" />
<glyph unicode="&#xb2;" horiz-adv-x="585" d="M72 958v27q182 162 245.5 254.5t63.5 181.5q0 60 -30 94.5t-83 34.5q-43 0 -71.5 -30t-28.5 -74q0 -40 25 -64t65 -24q-3 -23 -23.5 -38t-50.5 -15q-45 0 -74.5 34t-29.5 88q0 73 57.5 121.5t145.5 48.5q90 0 148 -49.5t58 -126.5q0 -94 -76 -186t-212 -193v-4h174 q40 0 60.5 19.5t37.5 75.5h41l-31 -175h-411z" />
<glyph unicode="&#xb3;" horiz-adv-x="567" d="M72 1096q0 44 27 74t67 30q27 0 48.5 -13.5t25.5 -33.5q-31 0 -51.5 -19.5t-20.5 -50.5q0 -37 27.5 -60.5t70.5 -23.5q56 0 85.5 35t29.5 101t-27.5 101.5t-77.5 35.5q-30 -15 -55 -15q-17 0 -27 9.5t-10 23.5q0 13 10 21t25 8q24 0 51 -10q43 0 70 38t27 101 q0 54 -23.5 79t-73.5 25q-38 0 -60 -17t-22 -46q0 -23 16 -38t42 -15q-3 -17 -23 -29t-45 -12q-35 0 -58.5 25.5t-23.5 62.5q0 52 47.5 83t126.5 31q94 0 149.5 -39.5t55.5 -105.5q0 -55 -37.5 -97.5t-95.5 -54.5v-6q68 -15 111 -60.5t43 -105.5q0 -77 -65 -127.5 t-163 -50.5q-86 0 -141 41.5t-55 104.5z" />
<glyph unicode="&#xb4;" horiz-adv-x="563" d="M41 1333l266 244q74 68 137 68q36 0 57 -19.5t21 -52.5q0 -58 -104 -107l-281 -133h-96z" />
<glyph unicode="&#xb5;" horiz-adv-x="1417" d="M55 1014v71h371v-559q0 -229 52.5 -332.5t166.5 -103.5q181 0 281 248q22 49 28.5 92t6.5 127v201q0 46 -0.5 74t-4 56.5t-7.5 43.5t-14 30.5t-20.5 22t-30.5 13.5t-40 10t-53 6v71h370v-628q0 -221 13 -301q9 -51 39.5 -66.5t125.5 -15.5v-72l-338 -25l-22 246h-8 q-65 -117 -151 -180t-183 -63q-168 0 -254 188l-8 -2q28 -138 56 -313.5t28 -239.5q0 -67 -31 -106t-84 -39q-51 0 -85 36t-34 90v1164q0 62 -1 96t-8 65.5t-16 45t-31 25.5t-46 16t-68 8z" />
<glyph unicode="&#xb6;" horiz-adv-x="1259" d="M68 1155q0 204 142.5 313t410.5 109h565v-78q-99 0 -140.5 -15.5t-60.5 -58.5q-22 -59 -22 -251v-1045q0 -245 26 -315q14 -40 59 -57t138 -17v-78h-375v1825h-106v-1825h-398v78q107 0 158 18.5t65 61.5q8 27 14.5 120t6.5 189v635q-11 0 -32 -1t-38 -1 q-195 0 -304 103.5t-109 289.5z" />
<glyph unicode="&#xb7;" horiz-adv-x="442" d="M92 561q0 57 38.5 96t94.5 39q57 0 96 -39t39 -96q0 -56 -39 -94.5t-96 -38.5q-55 0 -94 39t-39 94z" />
<glyph unicode="&#xb8;" horiz-adv-x="475" d="M12 -375q0 33 17 52.5t47 19.5q23 0 37.5 -14.5t29.5 -51.5q25 -75 93 -75q44 0 73 28t29 72q0 55 -42.5 84t-119.5 29q-42 0 -72 -5l-4 7l107 254h108l-63 -172q120 1 187 -45.5t67 -131.5q0 -89 -72.5 -148.5t-177.5 -59.5q-101 0 -172.5 46t-71.5 111z" />
<glyph unicode="&#xb9;" horiz-adv-x="413" d="M74 1522v41q81 3 180 34v-495q0 -64 15.5 -83t70.5 -20v-41h-262v41q55 3 70.5 20.5t15.5 76.5v280q0 109 -4 119q-3 16 -22.5 21.5t-63.5 5.5z" />
<glyph unicode="&#xba;" horiz-adv-x="710" d="M72 1321q0 118 82 197t198 79q118 0 202.5 -79t84.5 -197q0 -121 -84.5 -202t-202.5 -81q-116 0 -198 81t-82 202zM203 1321q0 -103 41 -165t108 -62q69 0 111.5 62t42.5 165q0 99 -42.5 161t-111.5 62q-66 0 -107.5 -62.5t-41.5 -160.5z" />
<glyph unicode="&#xbb;" horiz-adv-x="1060" d="M98 819l41 43l348 -325l-348 -324l-39 41l201 283zM449 819l40 43l349 -325l-349 -324l-38 41l200 283z" />
<glyph unicode="&#xbc;" horiz-adv-x="1241" d="M6 0l1133 1577h98l-1114 -1577h-117zM211 1522v41q81 3 180 34v-495q0 -64 15.5 -83t70.5 -20v-41h-262v41q55 3 70.5 20.5t15.5 76.5v280q0 109 -4 119q-3 16 -22.5 21.5t-63.5 5.5zM666 147v52l288 440h45v-442q52 1 64 13t12 60h39v-192h-39q0 45 -13 58t-63 14v-17 q0 -63 12.5 -81.5t53.5 -20.5v-31h-252v31q55 3 70.5 20t15.5 76v20h-233zM717 199h182v266h-8z" />
<glyph unicode="&#xbd;" horiz-adv-x="1241" d="M6 0l1133 1577h98l-1114 -1577h-117zM211 1522v41q81 3 180 34v-495q0 -64 15.5 -83t70.5 -20v-41h-262v41q55 3 70.5 20.5t15.5 76.5v280q0 109 -4 119q-3 16 -22.5 21.5t-63.5 5.5zM698 0v27q182 163 246 255t64 181q0 60 -30 94.5t-83 34.5q-43 0 -71.5 -30.5 t-28.5 -74.5q0 -40 25 -64t65 -24q-3 -23 -23.5 -38t-50.5 -15q-45 0 -74.5 34.5t-29.5 88.5q0 74 57 122t145 48q91 0 149 -49.5t58 -126.5q0 -94 -76 -185.5t-213 -193.5v-4h174q41 0 61.5 19t37.5 75h41l-31 -174h-412z" />
<glyph unicode="&#xbe;" horiz-adv-x="1241" d="M6 0l1133 1577h98l-1114 -1577h-117zM113 1096q0 44 27 74t67 30q27 0 48.5 -13.5t25.5 -33.5q-31 0 -51.5 -19.5t-20.5 -50.5q0 -37 27.5 -60.5t70.5 -23.5q56 0 85.5 35t29.5 101t-27.5 101.5t-77.5 35.5q-30 -15 -55 -15q-17 0 -27 9.5t-10 23.5q0 13 10 21t25 8 q24 0 51 -10q43 0 70 38t27 101q0 54 -23.5 79t-73.5 25q-38 0 -60 -17t-22 -46q0 -23 16 -38t42 -15q-3 -17 -23 -29t-45 -12q-35 0 -58.5 25.5t-23.5 62.5q0 52 47.5 83t126.5 31q94 0 149.5 -39.5t55.5 -105.5q0 -55 -37.5 -97.5t-95.5 -54.5v-6q68 -15 111 -60.5 t43 -105.5q0 -77 -65 -127.5t-163 -50.5q-86 0 -141 41.5t-55 104.5zM666 147v52l288 440h45v-442q52 1 64 13t12 60h39v-192h-39q0 45 -13 58t-63 14v-17q0 -63 12.5 -81.5t53.5 -20.5v-31h-252v31q55 3 70.5 20t15.5 76v20h-233zM717 199h182v266h-8z" />
<glyph unicode="&#xbf;" horiz-adv-x="679" d="M61 492q0 155 86.5 241t243.5 86v273h113v-469h-60q-266 0 -266 -203q0 -98 52.5 -168t125.5 -70q25 0 78.5 11.5t75.5 11.5q47 0 77.5 -31t30.5 -80q0 -114 -126 -114q-110 0 -210 71.5t-160.5 190.5t-60.5 250zM319 1464q0 56 39.5 94.5t96.5 38.5q55 0 94 -38.5 t39 -94.5q0 -57 -38.5 -96t-94.5 -39q-57 0 -96.5 39t-39.5 96z" />
<glyph unicode="&#xc0;" horiz-adv-x="1634" d="M14 0v78q94 11 140.5 45.5t83.5 120.5q19 44 37 88t58 144.5t83.5 210t144.5 364t209 526.5h88l465 -1155q77 -194 121 -256q22 -31 56.5 -49.5t60 -24t73.5 -12.5v-80h-667v80q96 3 129 13q60 20 61 75q0 57 -47 182l-84 221h-547l-2 -8q-11 -28 -34 -85.5t-35.5 -89.5 t-27.5 -75.5t-21.5 -76t-6.5 -58.5q0 -18 4.5 -32.5t10.5 -24.5t18 -17t20.5 -11t25.5 -7t26 -4t28.5 -2t26.5 -2v-78h-498zM506 1894q0 33 21 52.5t57 19.5q39 0 77.5 -15.5t100.5 -52.5l266 -157h-123l-246 57q-153 33 -153 96zM520 674h467l-227 604z" />
<glyph unicode="&#xc1;" horiz-adv-x="1634" d="M14 0v78q94 11 140.5 45.5t83.5 120.5q19 44 37 88t58 144.5t83.5 210t144.5 364t209 526.5h88l465 -1155q77 -194 121 -256q22 -31 56.5 -49.5t60 -24t73.5 -12.5v-80h-667v80q96 3 129 13q60 20 61 75q0 57 -47 182l-84 221h-547l-2 -8q-11 -28 -34 -85.5t-35.5 -89.5 t-27.5 -75.5t-21.5 -76t-6.5 -58.5q0 -18 4.5 -32.5t10.5 -24.5t18 -17t20.5 -11t25.5 -7t26 -4t28.5 -2t26.5 -2v-78h-498zM520 674h467l-227 604zM606 1741l266 157q62 37 101 52.5t78 15.5q35 0 56 -19t21 -53q0 -63 -153 -96l-246 -57h-123z" />
<glyph unicode="&#xc2;" horiz-adv-x="1634" d="M14 0v78q94 11 140.5 45.5t83.5 120.5q19 44 37 88t58 144.5t83.5 210t144.5 364t209 526.5h88l465 -1155q77 -194 121 -256q22 -31 56.5 -49.5t60 -24t73.5 -12.5v-80h-667v80q96 3 129 13q60 20 61 75q0 57 -47 182l-84 221h-547l-2 -8q-11 -28 -34 -85.5t-35.5 -89.5 t-27.5 -75.5t-21.5 -76t-6.5 -58.5q0 -18 4.5 -32.5t10.5 -24.5t18 -17t20.5 -11t25.5 -7t26 -4t28.5 -2t26.5 -2v-78h-498zM475 1743l223 223h226l223 -223h-92l-244 110l-244 -110h-92zM520 674h467l-227 604z" />
<glyph unicode="&#xc3;" horiz-adv-x="1634" d="M14 0v78q94 11 140.5 45.5t83.5 120.5q19 44 37 88t58 144.5t83.5 210t144.5 364t209 526.5h88l465 -1155q77 -194 121 -256q22 -31 56.5 -49.5t60 -24t73.5 -12.5v-80h-667v80q96 3 129 13q60 20 61 75q0 57 -47 182l-84 221h-547l-2 -8q-11 -28 -34 -85.5t-35.5 -89.5 t-27.5 -75.5t-21.5 -76t-6.5 -58.5q0 -18 4.5 -32.5t10.5 -24.5t18 -17t20.5 -11t25.5 -7t26 -4t28.5 -2t26.5 -2v-78h-498zM461 1733q17 103 77 168t138 65q57 0 176 -49q100 -45 149 -45q66 0 91 86h67q-11 -97 -65 -168q-55 -74 -138 -74q-46 0 -172 51q-126 48 -168 48 q-34 0 -53 -18.5t-33 -63.5h-69zM520 674h467l-227 604z" />
<glyph unicode="&#xc4;" horiz-adv-x="1634" d="M14 0v78q94 11 140.5 45.5t83.5 120.5q19 44 37 88t58 144.5t83.5 210t144.5 364t209 526.5h88l465 -1155q77 -194 121 -256q22 -31 56.5 -49.5t60 -24t73.5 -12.5v-80h-667v80q96 3 129 13q60 20 61 75q0 57 -47 182l-84 221h-547l-2 -8q-11 -28 -34 -85.5t-35.5 -89.5 t-27.5 -75.5t-21.5 -76t-6.5 -58.5q0 -18 4.5 -32.5t10.5 -24.5t18 -17t20.5 -11t25.5 -7t26 -4t28.5 -2t26.5 -2v-78h-498zM520 674h467l-227 604zM522 1864q0 43 30 72.5t73 29.5q44 0 74 -29.5t30 -72.5q0 -44 -30 -74.5t-74 -30.5q-43 0 -73 30.5t-30 74.5zM895 1864 q0 43 30 72.5t74 29.5q43 0 73 -29.5t30 -72.5q0 -44 -30 -74.5t-73 -30.5q-44 0 -74 30.5t-30 74.5z" />
<glyph unicode="&#xc5;" horiz-adv-x="1634" d="M14 0v78q94 11 140.5 45.5t83.5 120.5q19 44 37 88t58 144.5t83.5 210t144.5 364t209 526.5h88l465 -1155q77 -194 121 -256q22 -31 56.5 -49.5t60 -24t73.5 -12.5v-80h-667v80q96 3 129 13q60 20 61 75q0 57 -47 182l-84 221h-547l-2 -8q-11 -28 -34 -85.5t-35.5 -89.5 t-27.5 -75.5t-21.5 -76t-6.5 -58.5q0 -18 4.5 -32.5t10.5 -24.5t18 -17t20.5 -11t25.5 -7t26 -4t28.5 -2t26.5 -2v-78h-498zM520 674h467l-227 604zM678 1833q0 57 38 95t95 38t95 -38t38 -95t-38 -95t-95 -38t-95 38t-38 95zM741 1833q0 -31 19.5 -50.5t50.5 -19.5 q29 0 48.5 19.5t19.5 50.5q0 29 -19.5 48.5t-48.5 19.5q-31 0 -50.5 -19.5t-19.5 -48.5z" />
<glyph unicode="&#xc6;" horiz-adv-x="2238" d="M57 0v78q92 10 138 44t94 122q5 8 29 51.5t34 61.5t41 74t56.5 104t73 137t98.5 186t124 237.5t158 305.5q15 34 15 47q0 28 -38.5 39.5t-131.5 11.5v78h1302v-360h-72q-24 161 -108.5 216.5t-296.5 55.5h-260q-17 0 -26 -9.5t-9 -25.5v-588q204 0 289 48.5t98 187.5h72 v-559h-72q-15 99 -53 149t-114 70.5t-220 21.5v-462q0 -133 73 -183.5t267 -50.5q217 0 310.5 66.5t133.5 248.5h78l-31 -403h-1271v78q61 2 98 8.5t64 20t39.5 41.5t18 65t5.5 98v271h-473l-8 -19q-17 -33 -49 -92.5t-50.5 -94.5t-39.5 -79.5t-30.5 -78t-9.5 -58.5 q0 -17 4.5 -30t14.5 -21t19 -13.5t26 -8.5t27 -4.5t30.5 -2.5t28.5 -2v-78h-496zM639 674h424v803z" />
<glyph unicode="&#xc7;" horiz-adv-x="1658" d="M123 762q0 184 57.5 339.5t160 264.5t248.5 170t318 61q123 0 232 -34.5t235 -112.5l37 127h57l19 -471h-76q-44 179 -174 282t-311 103q-248 0 -388.5 -191t-140.5 -526q0 -329 138.5 -506.5t396.5 -177.5q195 0 323.5 106.5t184.5 313.5h84v-510h-72l-47 162 q-204 -171 -481 -180l-47 -129q120 1 186.5 -45.5t66.5 -131.5q0 -89 -72 -148.5t-177 -59.5q-101 0 -172.5 46t-71.5 111q0 33 16.5 52.5t46.5 19.5q23 0 38 -14.5t30 -51.5q25 -75 92 -75q45 0 74 28t29 72q0 55 -42.5 84t-119.5 29q-42 0 -72 -5l-4 7l88 211 q-317 22 -503.5 231.5t-186.5 548.5z" />
<glyph unicode="&#xc8;" horiz-adv-x="1472" d="M72 0v78q61 2 98 8.5t64 20t39.5 41.5t18 65t5.5 98v955q0 143 -36.5 185t-168.5 48v78h1184l8 -360h-72q-24 161 -108.5 216.5t-296.5 55.5h-260q-17 0 -26 -9.5t-9 -25.5v-588q204 0 289 48.5t98 187.5h72v-559h-72q-15 99 -53 149t-114 70.5t-220 21.5v-462 q0 -133 73 -183.5t267 -50.5q217 0 310.5 66.5t133.5 248.5h78l-31 -403h-1271zM451 1894q0 34 21 53t56 19q39 0 78 -15.5t101 -52.5l266 -157h-123l-246 57q-153 33 -153 96z" />
<glyph unicode="&#xc9;" horiz-adv-x="1472" d="M72 0v78q61 2 98 8.5t64 20t39.5 41.5t18 65t5.5 98v955q0 143 -36.5 185t-168.5 48v78h1184l8 -360h-72q-24 161 -108.5 216.5t-296.5 55.5h-260q-17 0 -26 -9.5t-9 -25.5v-588q204 0 289 48.5t98 187.5h72v-559h-72q-15 99 -53 149t-114 70.5t-220 21.5v-462 q0 -133 73 -183.5t267 -50.5q217 0 310.5 66.5t133.5 248.5h78l-31 -403h-1271zM551 1741l266 157q62 37 100.5 52.5t77.5 15.5q36 0 57 -19.5t21 -52.5q0 -63 -153 -96l-246 -57h-123z" />
<glyph unicode="&#xca;" horiz-adv-x="1472" d="M72 0v78q61 2 98 8.5t64 20t39.5 41.5t18 65t5.5 98v955q0 143 -36.5 185t-168.5 48v78h1184l8 -360h-72q-24 161 -108.5 216.5t-296.5 55.5h-260q-17 0 -26 -9.5t-9 -25.5v-588q204 0 289 48.5t98 187.5h72v-559h-72q-15 99 -53 149t-114 70.5t-220 21.5v-462 q0 -133 73 -183.5t267 -50.5q217 0 310.5 66.5t133.5 248.5h78l-31 -403h-1271zM420 1743l223 223h225l224 -223h-93l-243 110l-244 -110h-92z" />
<glyph unicode="&#xcb;" horiz-adv-x="1472" d="M72 0v78q61 2 98 8.5t64 20t39.5 41.5t18 65t5.5 98v955q0 143 -36.5 185t-168.5 48v78h1184l8 -360h-72q-24 161 -108.5 216.5t-296.5 55.5h-260q-17 0 -26 -9.5t-9 -25.5v-588q204 0 289 48.5t98 187.5h72v-559h-72q-15 99 -53 149t-114 70.5t-220 21.5v-462 q0 -133 73 -183.5t267 -50.5q217 0 310.5 66.5t133.5 248.5h78l-31 -403h-1271zM438 1864q0 43 30 72.5t73 29.5q44 0 74 -29.5t30 -72.5q0 -44 -30 -74.5t-74 -30.5q-43 0 -73 30.5t-30 74.5zM811 1864q0 43 30 72.5t74 29.5q43 0 73 -29.5t30 -72.5q0 -44 -30 -74.5 t-73 -30.5q-44 0 -74 30.5t-30 74.5z" />
<glyph unicode="&#xcc;" horiz-adv-x="808" d="M72 0v78q52 2 84 6t59.5 17t41.5 31.5t24 53t13 77.5t3 110v831q0 92 -7 143.5t-30 87t-61.5 48.5t-106.5 16v78h623v-78q-55 -2 -89 -11.5t-58 -28t-35.5 -56t-16 -86t-4.5 -127.5v-803q0 -71 2.5 -116.5t12.5 -82t23.5 -55.5t41 -32t59.5 -17t84 -6v-78h-663zM96 1894 q0 33 21 52.5t57 19.5q39 0 77.5 -15.5t100.5 -52.5l266 -157h-122l-246 57q-154 33 -154 96z" />
<glyph unicode="&#xcd;" horiz-adv-x="808" d="M72 0v78q52 2 84 6t59.5 17t41.5 31.5t24 53t13 77.5t3 110v831q0 92 -7 143.5t-30 87t-61.5 48.5t-106.5 16v78h623v-78q-55 -2 -89 -11.5t-58 -28t-35.5 -56t-16 -86t-4.5 -127.5v-803q0 -71 2.5 -116.5t12.5 -82t23.5 -55.5t41 -32t59.5 -17t84 -6v-78h-663zM197 1741 l266 157q62 37 100.5 52.5t77.5 15.5q36 0 57 -19.5t21 -52.5q0 -63 -154 -96l-246 -57h-122z" />
<glyph unicode="&#xce;" horiz-adv-x="808" d="M66 1743l223 223h225l223 -223h-92l-244 110l-243 -110h-92zM72 0v78q52 2 84 6t59.5 17t41.5 31.5t24 53t13 77.5t3 110v831q0 92 -7 143.5t-30 87t-61.5 48.5t-106.5 16v78h623v-78q-55 -2 -89 -11.5t-58 -28t-35.5 -56t-16 -86t-4.5 -127.5v-803q0 -71 2.5 -116.5 t12.5 -82t23.5 -55.5t41 -32t59.5 -17t84 -6v-78h-663z" />
<glyph unicode="&#xcf;" horiz-adv-x="808" d="M72 0v78q52 2 84 6t59.5 17t41.5 31.5t24 53t13 77.5t3 110v831q0 92 -7 143.5t-30 87t-61.5 48.5t-106.5 16v78h623v-78q-55 -2 -89 -11.5t-58 -28t-35.5 -56t-16 -86t-4.5 -127.5v-803q0 -71 2.5 -116.5t12.5 -82t23.5 -55.5t41 -32t59.5 -17t84 -6v-78h-663zM117 1864 q0 43 29.5 72.5t72.5 29.5q44 0 74.5 -29.5t30.5 -72.5q0 -44 -30.5 -74.5t-74.5 -30.5q-43 0 -72.5 30.5t-29.5 74.5zM489 1864q0 43 30.5 72.5t74.5 29.5q43 0 72.5 -29.5t29.5 -72.5q0 -44 -29.5 -74.5t-72.5 -30.5q-44 0 -74.5 30.5t-30.5 74.5z" />
<glyph unicode="&#xd0;" horiz-adv-x="1785" d="M51 0v78q83 2 127.5 10.5t73 35.5t37 68.5t8.5 118.5v473h-164v109h164v373q0 143 -36.5 185t-168.5 48v78h719q244 0 438.5 -105t304 -291t109.5 -419q0 -222 -102.5 -395.5t-287.5 -270t-421 -96.5h-801zM512 334q0 -119 75 -176.5t230 -57.5q280 0 430 168.5 t150 489.5q0 338 -157.5 528.5t-432.5 190.5h-260q-17 0 -26 -9.5t-9 -25.5v-549h336v-109h-336v-450z" />
<glyph unicode="&#xd1;" horiz-adv-x="1820" d="M72 0v78q52 2 84 6t59.5 17t41.5 31.5t24 53t13 77.5t3 110v831q0 92 -7 143.5t-30 87t-61.5 48.5t-106.5 16v78h406l895 -1194h8v807q0 61 -2.5 102t-7 76t-15.5 55.5t-24.5 36t-37.5 23t-50 11.5t-66 5v78h551v-78q-52 -2 -84 -6t-59.5 -17t-41.5 -31.5t-24 -53 t-13 -77.5t-3 -110v-1224h-123l-973 1282h-8v-875q0 -61 2.5 -102t7 -76t15.5 -55.5t24.5 -36t37.5 -23t50 -11.5t66 -5v-78h-551zM580 1733q17 103 77 168t138 65q57 0 176 -49q100 -45 149 -45q34 0 55.5 20t34.5 66h68q-5 -42 -23 -89t-43 -79q-55 -74 -137 -74 q-46 0 -172 51q-126 48 -168 48q-34 0 -53 -18.5t-33 -63.5h-69z" />
<glyph unicode="&#xd2;" horiz-adv-x="1935" d="M117 776q0 228 112.5 416.5t308 296.5t431.5 108t431.5 -108t308 -296.5t112.5 -416.5q0 -164 -67 -311.5t-180.5 -253.5t-271.5 -168.5t-333 -62.5t-333 62.5t-271.5 168.5t-180.5 253.5t-67 311.5zM383 770q0 -312 158 -495t428 -183q269 0 427 183t158 495 q0 329 -157.5 522t-427.5 193t-428 -193t-158 -522zM666 1894q0 34 21 53t56 19q39 0 78 -15.5t101 -52.5l266 -157h-123l-246 57q-153 33 -153 96z" />
<glyph unicode="&#xd3;" horiz-adv-x="1935" d="M117 776q0 228 112.5 416.5t308 296.5t431.5 108t431.5 -108t308 -296.5t112.5 -416.5q0 -164 -67 -311.5t-180.5 -253.5t-271.5 -168.5t-333 -62.5t-333 62.5t-271.5 168.5t-180.5 253.5t-67 311.5zM383 770q0 -312 158 -495t428 -183q269 0 427 183t158 495 q0 329 -157.5 522t-427.5 193t-428 -193t-158 -522zM766 1741l266 157q62 37 100.5 52.5t77.5 15.5q36 0 57 -19.5t21 -52.5q0 -63 -153 -96l-246 -57h-123z" />
<glyph unicode="&#xd4;" horiz-adv-x="1935" d="M117 776q0 228 112.5 416.5t308 296.5t431.5 108t431.5 -108t308 -296.5t112.5 -416.5q0 -164 -67 -311.5t-180.5 -253.5t-271.5 -168.5t-333 -62.5t-333 62.5t-271.5 168.5t-180.5 253.5t-67 311.5zM383 770q0 -312 158 -495t428 -183q269 0 427 183t158 495 q0 329 -157.5 522t-427.5 193t-428 -193t-158 -522zM635 1743l223 223h225l224 -223h-93l-243 110l-244 -110h-92z" />
<glyph unicode="&#xd5;" horiz-adv-x="1935" d="M117 776q0 228 112.5 416.5t308 296.5t431.5 108t431.5 -108t308 -296.5t112.5 -416.5q0 -164 -67 -311.5t-180.5 -253.5t-271.5 -168.5t-333 -62.5t-333 62.5t-271.5 168.5t-180.5 253.5t-67 311.5zM383 770q0 -312 158 -495t428 -183q269 0 427 183t158 495 q0 329 -157.5 522t-427.5 193t-428 -193t-158 -522zM621 1733q17 103 77 168t138 65q57 0 176 -49q100 -45 149 -45q34 0 55.5 20t34.5 66h68q-5 -42 -23 -89t-43 -79q-55 -74 -137 -74q-46 0 -172 51q-126 48 -168 48q-34 0 -53 -18.5t-33 -63.5h-69z" />
<glyph unicode="&#xd6;" horiz-adv-x="1935" d="M117 776q0 228 112.5 416.5t308 296.5t431.5 108t431.5 -108t308 -296.5t112.5 -416.5q0 -164 -67 -311.5t-180.5 -253.5t-271.5 -168.5t-333 -62.5t-333 62.5t-271.5 168.5t-180.5 253.5t-67 311.5zM383 770q0 -312 158 -495t428 -183q269 0 427 183t158 495 q0 329 -157.5 522t-427.5 193t-428 -193t-158 -522zM682 1864q0 43 29.5 72.5t72.5 29.5q44 0 74.5 -29.5t30.5 -72.5q0 -44 -30.5 -74.5t-74.5 -30.5q-43 0 -72.5 30.5t-29.5 74.5zM1055 1864q0 43 30 72.5t74 29.5q43 0 73 -29.5t30 -72.5q0 -44 -30 -74.5t-73 -30.5 q-44 0 -74 30.5t-30 74.5z" />
<glyph unicode="&#xd7;" horiz-adv-x="1183" d="M201 377l317 317l-315 316l71 71l316 -315l317 317l76 -75l-317 -318l315 -315l-72 -72l-315 315l-318 -317z" />
<glyph unicode="&#xd8;" horiz-adv-x="1935" d="M117 776q0 228 112.5 416.5t308 296.5t431.5 108q249 0 454 -122l179 225h141l-227 -289q143 -115 224 -279.5t81 -355.5q0 -164 -67 -311.5t-180.5 -253.5t-271.5 -168.5t-333 -62.5q-265 0 -480 135l-221 -281h-139l272 344q-134 110 -209 265.5t-75 332.5zM383 770 q0 -280 125 -455l823 1043q-146 127 -362 127q-270 0 -428 -193t-158 -522zM582 231q151 -139 387 -139q269 0 427 183t158 495q0 316 -145 506z" />
<glyph unicode="&#xd9;" horiz-adv-x="1775" d="M59 1499v78h699v-78q-34 0 -49 -0.5t-46.5 -4.5t-48 -11.5t-35 -23.5t-26.5 -40q-21 -69 -21 -319v-557q0 -218 96.5 -327.5t317.5 -109.5q203 0 306.5 114t103.5 335v494q0 268 -25 342q-12 35 -34 58t-54.5 33t-62 13.5t-70.5 3.5v78h594v-78q-90 -2 -124 -15 q-49 -21 -69 -71q-32 -81 -32 -364v-414q0 -332 -138 -493.5t-452 -161.5q-155 0 -265 30t-186.5 98t-113.5 179.5t-37 271.5v541q0 253 -23 319q-9 23 -27 39t-36 24t-47 12t-46.5 4.5t-48.5 0.5zM635 1894q0 33 21 52.5t57 19.5q39 0 77.5 -15.5t100.5 -52.5l266 -157 h-123l-246 57q-153 33 -153 96z" />
<glyph unicode="&#xda;" horiz-adv-x="1775" d="M59 1499v78h699v-78q-34 0 -49 -0.5t-46.5 -4.5t-48 -11.5t-35 -23.5t-26.5 -40q-21 -69 -21 -319v-557q0 -218 96.5 -327.5t317.5 -109.5q203 0 306.5 114t103.5 335v494q0 268 -25 342q-12 35 -34 58t-54.5 33t-62 13.5t-70.5 3.5v78h594v-78q-90 -2 -124 -15 q-49 -21 -69 -71q-32 -81 -32 -364v-414q0 -332 -138 -493.5t-452 -161.5q-155 0 -265 30t-186.5 98t-113.5 179.5t-37 271.5v541q0 253 -23 319q-9 23 -27 39t-36 24t-47 12t-46.5 4.5t-48.5 0.5zM735 1741l266 157q62 37 101 52.5t78 15.5q35 0 56 -19t21 -53 q0 -63 -153 -96l-246 -57h-123z" />
<glyph unicode="&#xdb;" horiz-adv-x="1775" d="M59 1499v78h699v-78q-34 0 -49 -0.5t-46.5 -4.5t-48 -11.5t-35 -23.5t-26.5 -40q-21 -69 -21 -319v-557q0 -218 96.5 -327.5t317.5 -109.5q203 0 306.5 114t103.5 335v494q0 268 -25 342q-12 35 -34 58t-54.5 33t-62 13.5t-70.5 3.5v78h594v-78q-90 -2 -124 -15 q-49 -21 -69 -71q-32 -81 -32 -364v-414q0 -332 -138 -493.5t-452 -161.5q-155 0 -265 30t-186.5 98t-113.5 179.5t-37 271.5v541q0 253 -23 319q-9 23 -27 39t-36 24t-47 12t-46.5 4.5t-48.5 0.5zM604 1743l223 223h226l223 -223h-92l-244 110l-244 -110h-92z" />
<glyph unicode="&#xdc;" horiz-adv-x="1775" d="M59 1499v78h699v-78q-34 0 -49 -0.5t-46.5 -4.5t-48 -11.5t-35 -23.5t-26.5 -40q-21 -69 -21 -319v-557q0 -218 96.5 -327.5t317.5 -109.5q203 0 306.5 114t103.5 335v494q0 268 -25 342q-12 35 -34 58t-54.5 33t-62 13.5t-70.5 3.5v78h594v-78q-90 -2 -124 -15 q-49 -21 -69 -71q-32 -81 -32 -364v-414q0 -332 -138 -493.5t-452 -161.5q-155 0 -265 30t-186.5 98t-113.5 179.5t-37 271.5v541q0 253 -23 319q-9 23 -27 39t-36 24t-47 12t-46.5 4.5t-48.5 0.5zM651 1864q0 43 30 72.5t73 29.5q44 0 74 -29.5t30 -72.5q0 -44 -30 -74.5 t-74 -30.5q-43 0 -73 30.5t-30 74.5zM1024 1864q0 43 30 72.5t74 29.5q43 0 73 -29.5t30 -72.5q0 -44 -30 -74.5t-73 -30.5q-44 0 -74 30.5t-30 74.5z" />
<glyph unicode="&#xdd;" horiz-adv-x="1433" d="M-39 1499v78h645v-78q-102 0 -144 -15.5t-42 -53.5q0 -40 47 -123l319 -543h7l231 389q121 204 121 277q0 38 -29.5 53.5t-103.5 15.5v78h469v-78q-45 0 -77 -12t-71 -51t-80.5 -100.5t-107.5 -172.5l-316 -532v-244q0 -71 2.5 -115.5t12 -81.5t23 -55.5t41 -32t60 -18 t85.5 -6.5v-78h-664v78q52 2 85 6.5t60 17.5t41 31.5t23.5 53.5t12.5 77.5t3 108.5v250l-409 700q-63 106 -111.5 141t-132.5 35zM541 1741l266 157q62 37 100.5 52.5t77.5 15.5q36 0 57 -19.5t21 -52.5q0 -63 -154 -96l-245 -57h-123z" />
<glyph unicode="&#xde;" horiz-adv-x="1372" d="M72 0v78q61 2 98 8.5t64 20t39.5 41.5t18 65t5.5 98v955q0 61 -5.5 98t-18 65t-39.5 41.5t-64 20t-98 8.5v78h723v-78q-97 0 -149.5 -8.5t-84.5 -38t-40.5 -73t-8.5 -124.5v-34h223q277 0 434.5 -115.5t157.5 -304.5q0 -222 -148.5 -331.5t-482.5 -109.5h-184v-38 q0 -81 8.5 -124.5t40.5 -73t84.5 -38t149.5 -8.5v-78h-723zM512 463h145q206 0 305 80.5t99 257.5q0 170 -78.5 246.5t-247.5 76.5h-188q-35 0 -35 -34v-627z" />
<glyph unicode="&#xdf;" horiz-adv-x="1361" d="M80 0v78q62 0 93.5 7t52 34t25.5 69t5 125v887q0 233 124 366.5t343 133.5q190 0 311 -106.5t121 -274.5q0 -301 -295 -363v-10q180 0 300 -142t120 -358q0 -199 -125 -332.5t-305 -133.5q-104 0 -164.5 45.5t-60.5 117.5q0 40 18.5 68t52.5 31q56 5 84 -70 q2 -5 7.5 -19.5t8 -20t8 -17.5t11 -17t13 -12t16.5 -9.5t20 -2.5q70 0 120 105.5t50 260.5q0 202 -96 327.5t-283 125.5v104q131 0 192.5 72.5t61.5 226.5q0 149 -54.5 225t-160.5 76q-157 0 -213 -124q-18 -39 -25 -96.5t-7 -164.5v-882q0 -105 11 -157t38 -73.5t82 -21.5 v-78h-500z" />
<glyph unicode="&#xe0;" horiz-adv-x="1130" d="M78 223q0 102 76 183.5t256 158.5l295 129v84q0 128 -52 189t-161 61q-70 0 -99.5 -26t-56.5 -107q-23 -58 -45 -78t-62 -20q-49 0 -75.5 26.5t-26.5 75.5q0 98 104.5 152.5t296.5 54.5q206 0 291.5 -72.5t85.5 -247.5v-458q0 -234 92 -234q74 0 101 45l28 -49 q-25 -47 -90 -78.5t-137 -31.5q-88 0 -133 56.5t-45 162.5h-10q-54 -101 -149 -159t-208 -58q-127 0 -201.5 66t-74.5 175zM256 1573q0 33 21 52.5t57 19.5q63 0 137 -68l266 -244h-96l-281 133q-104 49 -104 107zM285 258q0 -68 45.5 -111t118.5 -43q106 0 181 100t75 240 v162q-227 -86 -323.5 -169.5t-96.5 -178.5z" />
<glyph unicode="&#xe1;" horiz-adv-x="1130" d="M78 223q0 102 76 183.5t256 158.5l295 129v84q0 128 -52 189t-161 61q-70 0 -99.5 -26t-56.5 -107q-23 -58 -45 -78t-62 -20q-49 0 -75.5 26.5t-26.5 75.5q0 98 104.5 152.5t296.5 54.5q206 0 291.5 -72.5t85.5 -247.5v-458q0 -234 92 -234q74 0 101 45l28 -49 q-25 -47 -90 -78.5t-137 -31.5q-88 0 -133 56.5t-45 162.5h-10q-54 -101 -149 -159t-208 -58q-127 0 -201.5 66t-74.5 175zM285 258q0 -68 45.5 -111t118.5 -43q106 0 181 100t75 240v162q-227 -86 -323.5 -169.5t-96.5 -178.5zM348 1333l266 244q74 68 138 68q35 0 56 -19 t21 -53q0 -58 -104 -107l-281 -133h-96z" />
<glyph unicode="&#xe2;" horiz-adv-x="1130" d="M78 223q0 102 76 183.5t256 158.5l295 129v84q0 128 -52 189t-161 61q-70 0 -99.5 -26t-56.5 -107q-23 -58 -45 -78t-62 -20q-49 0 -75.5 26.5t-26.5 75.5q0 98 104.5 152.5t296.5 54.5q206 0 291.5 -72.5t85.5 -247.5v-458q0 -234 92 -234q74 0 101 45l28 -49 q-25 -47 -90 -78.5t-137 -31.5q-88 0 -133 56.5t-45 162.5h-10q-54 -101 -149 -159t-208 -58q-127 0 -201.5 66t-74.5 175zM197 1333l243 264h185l243 -264h-92l-244 140l-243 -140h-92zM285 258q0 -68 45.5 -111t118.5 -43q106 0 181 100t75 240v162 q-227 -86 -323.5 -169.5t-96.5 -178.5z" />
<glyph unicode="&#xe3;" horiz-adv-x="1130" d="M78 223q0 102 76 183.5t256 158.5l295 129v84q0 128 -52 189t-161 61q-70 0 -99.5 -26t-56.5 -107q-23 -58 -45 -78t-62 -20q-49 0 -75.5 26.5t-26.5 75.5q0 98 104.5 152.5t296.5 54.5q206 0 291.5 -72.5t85.5 -247.5v-458q0 -234 92 -234q74 0 101 45l28 -49 q-25 -47 -90 -78.5t-137 -31.5q-88 0 -133 56.5t-45 162.5h-10q-54 -101 -149 -159t-208 -58q-127 0 -201.5 66t-74.5 175zM184 1352q17 103 77 168t138 65q57 0 176 -49q100 -45 150 -45q34 0 55.5 20t34.5 66h68q-5 -42 -23 -89t-43 -79q-55 -74 -137 -74q-46 0 -172 51 q-126 48 -168 48q-34 0 -53 -18.5t-33 -63.5h-70zM285 258q0 -68 45.5 -111t118.5 -43q106 0 181 100t75 240v162q-227 -86 -323.5 -169.5t-96.5 -178.5z" />
<glyph unicode="&#xe4;" horiz-adv-x="1130" d="M78 223q0 102 76 183.5t256 158.5l295 129v84q0 128 -52 189t-161 61q-70 0 -99.5 -26t-56.5 -107q-23 -58 -45 -78t-62 -20q-49 0 -75.5 26.5t-26.5 75.5q0 98 104.5 152.5t296.5 54.5q206 0 291.5 -72.5t85.5 -247.5v-458q0 -234 92 -234q74 0 101 45l28 -49 q-25 -47 -90 -78.5t-137 -31.5q-88 0 -133 56.5t-45 162.5h-10q-54 -101 -149 -159t-208 -58q-127 0 -201.5 66t-74.5 175zM244 1452q0 51 33.5 85t84.5 34t85 -34t34 -85t-34 -85t-85 -34t-84.5 34t-33.5 85zM285 258q0 -68 45.5 -111t118.5 -43q106 0 181 100t75 240v162 q-227 -86 -323.5 -169.5t-96.5 -178.5zM586 1452q0 51 34 85t85 34t84.5 -34t33.5 -85t-33.5 -85t-84.5 -34t-85 34t-34 85z" />
<glyph unicode="&#xe5;" horiz-adv-x="1130" d="M78 223q0 102 76 183.5t256 158.5l295 129v84q0 128 -52 189t-161 61q-70 0 -99.5 -26t-56.5 -107q-23 -58 -45 -78t-62 -20q-49 0 -75.5 26.5t-26.5 75.5q0 98 104.5 152.5t296.5 54.5q206 0 291.5 -72.5t85.5 -247.5v-458q0 -234 92 -234q74 0 101 45l28 -49 q-25 -47 -90 -78.5t-137 -31.5q-88 0 -133 56.5t-45 162.5h-10q-54 -101 -149 -159t-208 -58q-127 0 -201.5 66t-74.5 175zM285 258q0 -68 45.5 -111t118.5 -43q106 0 181 100t75 240v162q-227 -86 -323.5 -169.5t-96.5 -178.5zM371 1520q0 78 50.5 129t125.5 51 q78 0 129 -51t51 -129q0 -75 -51 -126t-129 -51q-75 0 -125.5 51t-50.5 126zM451 1520q0 -41 27.5 -69t68.5 -28q40 0 66 28t26 69q0 40 -26 66t-66 26q-41 0 -68.5 -26t-27.5 -66z" />
<glyph unicode="&#xe6;" horiz-adv-x="1763" d="M78 223q0 112 81.5 195.5t250.5 146.5l295 109v104q0 129 -53 189.5t-165 60.5q-65 0 -95 -26.5t-56 -106.5q-23 -58 -44.5 -78t-60.5 -20q-104 0 -104 102q0 98 105.5 152.5t297.5 54.5q139 0 220.5 -33.5t119.5 -107.5q141 141 361 141q192 0 300.5 -110t108.5 -302 q0 -31 -9.5 -38t-53.5 -7h-633q-8 -24 -8 -90q0 -219 88 -346t240 -127q159 0 305 162l63 -58q-180 -210 -426 -210q-149 0 -262.5 69t-175.5 193q-57 -124 -163 -192t-243 -68q-132 0 -208 64.5t-76 176.5zM285 258q0 -68 46 -111t118 -43q104 0 180 88t76 211v183 q-222 -82 -321 -159t-99 -169zM958 743h336q81 0 102 9.5t21 46.5q0 94 -60.5 151.5t-158.5 57.5t-156.5 -65t-83.5 -200z" />
<glyph unicode="&#xe7;" horiz-adv-x="1116" d="M98 535q0 260 157 415.5t413 155.5q158 0 259 -50.5t101 -129.5q0 -40 -27 -63t-73 -23q-38 0 -63 16.5t-62 67.5q-40 48 -78.5 67t-97.5 19q-145 0 -220 -113.5t-75 -331.5q0 -233 83.5 -356t241.5 -123q170 0 316 143l61 -59q-74 -89 -190.5 -139.5t-251.5 -50.5 q-219 0 -356.5 153.5t-137.5 401.5zM348 -375q0 33 17 52.5t47 19.5q23 0 37.5 -14.5t29.5 -51.5q25 -75 92 -75q45 0 74 28t29 72q0 55 -42.5 84t-119.5 29q-42 0 -72 -5l-4 7l107 254h108l-63 -172q120 1 187 -45.5t67 -131.5q0 -89 -72.5 -148.5t-177.5 -59.5 q-101 0 -172.5 46t-71.5 111z" />
<glyph unicode="&#xe8;" horiz-adv-x="1198" d="M98 530q0 252 157 414t404 162q197 0 306.5 -108.5t109.5 -307.5q0 -27 -10.5 -34t-52.5 -7h-674q-8 -31 -8 -92q0 -214 99 -342.5t263 -128.5q166 0 312 162l63 -58q-175 -210 -432 -210q-239 0 -388 152t-149 398zM352 743h377q82 0 102.5 10t20.5 48q0 94 -61 150.5 t-164 56.5q-109 0 -179 -67.5t-96 -197.5zM430 1573q0 33 21 52.5t57 19.5q63 0 137 -68l266 -244h-96l-280 133q-105 49 -105 107z" />
<glyph unicode="&#xe9;" horiz-adv-x="1198" d="M98 530q0 252 157 414t404 162q197 0 306.5 -108.5t109.5 -307.5q0 -27 -10.5 -34t-52.5 -7h-674q-8 -31 -8 -92q0 -214 99 -342.5t263 -128.5q166 0 312 162l63 -58q-175 -210 -432 -210q-239 0 -388 152t-149 398zM352 743h377q82 0 102.5 10t20.5 48q0 94 -61 150.5 t-164 56.5q-109 0 -179 -67.5t-96 -197.5zM489 1333l267 244q74 68 137 68q36 0 57 -19.5t21 -52.5q0 -58 -105 -107l-280 -133h-97z" />
<glyph unicode="&#xea;" horiz-adv-x="1198" d="M98 530q0 252 157 414t404 162q197 0 306.5 -108.5t109.5 -307.5q0 -27 -10.5 -34t-52.5 -7h-674q-8 -31 -8 -92q0 -214 99 -342.5t263 -128.5q166 0 312 162l63 -58q-175 -210 -432 -210q-239 0 -388 152t-149 398zM303 1333l244 264h184l244 -264h-92l-244 140 l-244 -140h-92zM352 743h377q82 0 102.5 10t20.5 48q0 94 -61 150.5t-164 56.5q-109 0 -179 -67.5t-96 -197.5z" />
<glyph unicode="&#xeb;" horiz-adv-x="1198" d="M98 530q0 252 157 414t404 162q197 0 306.5 -108.5t109.5 -307.5q0 -27 -10.5 -34t-52.5 -7h-674q-8 -31 -8 -92q0 -214 99 -342.5t263 -128.5q166 0 312 162l63 -58q-175 -210 -432 -210q-239 0 -388 152t-149 398zM350 1452q0 51 34 85t85 34t85 -34t34 -85t-34 -85 t-85 -34t-85 34t-34 85zM352 743h377q82 0 102.5 10t20.5 48q0 94 -61 150.5t-164 56.5q-109 0 -179 -67.5t-96 -197.5zM692 1452q0 51 34 85t85 34t85 -34t34 -85t-34 -85t-85 -34t-85 34t-34 85z" />
<glyph unicode="&#xec;" horiz-adv-x="712" d="M29 1573q0 34 21 53t56 19q64 0 138 -68l266 -244h-96l-281 133q-104 49 -104 107zM55 952v76l402 78v-774q0 -67 4.5 -108t15 -71.5t34 -45.5t54.5 -22t82 -9v-76h-588v76q52 3 84.5 10t56 21.5t35 43t16.5 66t5 98.5v254q0 247 -14 299q-9 50 -47.5 67t-139.5 17z" />
<glyph unicode="&#xed;" horiz-adv-x="712" d="M55 952v76l402 78v-774q0 -67 4.5 -108t15 -71.5t34 -45.5t54.5 -22t82 -9v-76h-588v76q52 3 84.5 10t56 21.5t35 43t16.5 66t5 98.5v254q0 247 -14 299q-9 50 -47.5 67t-139.5 17zM174 1333l266 244q74 68 138 68q35 0 56 -19t21 -53q0 -58 -104 -107l-281 -133h-96z " />
<glyph unicode="&#xee;" horiz-adv-x="712" d="M23 1333l243 264h185l243 -264h-92l-244 140l-243 -140h-92zM55 952v76l402 78v-774q0 -67 4.5 -108t15 -71.5t34 -45.5t54.5 -22t82 -9v-76h-588v76q52 3 84.5 10t56 21.5t35 43t16.5 66t5 98.5v254q0 247 -14 299q-9 50 -47.5 67t-139.5 17z" />
<glyph unicode="&#xef;" horiz-adv-x="712" d="M55 952v76l402 78v-774q0 -67 4.5 -108t15 -71.5t34 -45.5t54.5 -22t82 -9v-76h-588v76q52 3 84.5 10t56 21.5t35 43t16.5 66t5 98.5v254q0 247 -14 299q-9 50 -47.5 67t-139.5 17zM70 1452q0 51 33.5 85t84.5 34t85 -34t34 -85t-34 -85t-85 -34t-84.5 34t-33.5 85z M412 1452q0 51 33.5 85t84.5 34t85 -34t34 -85t-34 -85t-85 -34t-84.5 34t-33.5 85z" />
<glyph unicode="&#xf0;" horiz-adv-x="1333" d="M96 500q0 218 147 369t365 151q109 0 190 -45t124 -131l6 4q-81 319 -258 487l-267 -153l-49 65l248 146q-87 67 -280 135l38 69q237 -69 355 -139l266 154l51 -66l-239 -139q178 -125 278 -333t100 -443q0 -188 -70.5 -337t-195 -231.5t-280.5 -82.5q-147 0 -268 67 t-191 186.5t-70 266.5zM352 500q0 -202 73 -315t202 -113q131 0 207.5 115t76.5 313q0 195 -75.5 307.5t-206.5 112.5t-204 -111t-73 -309z" />
<glyph unicode="&#xf1;" horiz-adv-x="1460" d="M80 963v65l328 78l24 -203h8q77 96 183.5 149.5t226.5 53.5q93 0 171.5 -31t119.5 -84q35 -47 49 -121t14 -206v-342q0 -60 1.5 -95t8.5 -65.5t16.5 -45t30.5 -25.5t44.5 -14.5t64.5 -6.5v-70h-530v70q41 2 66 5.5t46 14.5t31 25t17 42.5t8.5 61.5t1.5 88v271 q0 231 -53 324t-181 93q-91 0 -168.5 -48.5t-120.5 -131.5q-22 -42 -29 -83t-7 -136v-274q0 -61 1 -95t8 -65.5t16.5 -45t31 -25t46 -15t67.5 -6.5v-70h-537v70q62 4 92 11.5t50.5 34.5t25 68t4.5 123v273q0 244 -12 297q-12 55 -42.5 70.5t-121.5 15.5zM367 1352 q17 103 77 168t138 65q57 0 176 -49q100 -45 149 -45q34 0 55.5 20t34.5 66h68q-5 -42 -23 -89t-43 -79q-55 -74 -137 -74q-46 0 -172 51q-126 48 -168 48q-34 0 -53 -18.5t-33 -63.5h-69z" />
<glyph unicode="&#xf2;" d="M98 551q0 158 78 286t207.5 198.5t282.5 70.5q115 0 220.5 -42t183.5 -114.5t124.5 -176.5t46.5 -222q0 -162 -79 -294t-210 -204.5t-286 -72.5q-153 0 -282.5 72t-207.5 204t-78 295zM330 549q0 -212 91 -338.5t245 -126.5q157 0 250.5 127t93.5 338q0 205 -94.5 332 t-249.5 127q-152 0 -244 -126.5t-92 -332.5zM430 1573q0 33 21 52.5t57 19.5q63 0 137 -68l266 -244h-96l-280 133q-105 49 -105 107z" />
<glyph unicode="&#xf3;" d="M98 551q0 158 78 286t207.5 198.5t282.5 70.5q115 0 220.5 -42t183.5 -114.5t124.5 -176.5t46.5 -222q0 -162 -79 -294t-210 -204.5t-286 -72.5q-153 0 -282.5 72t-207.5 204t-78 295zM330 549q0 -212 91 -338.5t245 -126.5q157 0 250.5 127t93.5 338q0 205 -94.5 332 t-249.5 127q-152 0 -244 -126.5t-92 -332.5zM481 1333l267 244q74 68 137 68q36 0 57 -19.5t21 -52.5q0 -58 -105 -107l-280 -133h-97z" />
<glyph unicode="&#xf4;" d="M98 551q0 158 78 286t207.5 198.5t282.5 70.5q115 0 220.5 -42t183.5 -114.5t124.5 -176.5t46.5 -222q0 -162 -79 -294t-210 -204.5t-286 -72.5q-153 0 -282.5 72t-207.5 204t-78 295zM330 549q0 -212 91 -338.5t245 -126.5q157 0 250.5 127t93.5 338q0 205 -94.5 332 t-249.5 127q-152 0 -244 -126.5t-92 -332.5zM330 1333l243 264h185l243 -264h-92l-243 140l-244 -140h-92z" />
<glyph unicode="&#xf5;" d="M98 551q0 158 78 286t207.5 198.5t282.5 70.5q115 0 220.5 -42t183.5 -114.5t124.5 -176.5t46.5 -222q0 -162 -79 -294t-210 -204.5t-286 -72.5q-153 0 -282.5 72t-207.5 204t-78 295zM301 1352q17 103 77 168t138 65q57 0 176 -49q100 -45 150 -45q34 0 55.5 20t34.5 66 h67q-11 -97 -65 -168q-55 -74 -137 -74q-46 0 -172 51q-126 48 -168 48q-34 0 -53 -18.5t-33 -63.5h-70zM330 549q0 -212 91 -338.5t245 -126.5q157 0 250.5 127t93.5 338q0 205 -94.5 332t-249.5 127q-152 0 -244 -126.5t-92 -332.5z" />
<glyph unicode="&#xf6;" d="M98 551q0 158 78 286t207.5 198.5t282.5 70.5q115 0 220.5 -42t183.5 -114.5t124.5 -176.5t46.5 -222q0 -162 -79 -294t-210 -204.5t-286 -72.5q-153 0 -282.5 72t-207.5 204t-78 295zM330 549q0 -212 91 -338.5t245 -126.5q157 0 250.5 127t93.5 338q0 205 -94.5 332 t-249.5 127q-152 0 -244 -126.5t-92 -332.5zM377 1452q0 51 34 85t85 34t84.5 -34t33.5 -85t-33.5 -85t-84.5 -34t-85 34t-34 85zM719 1452q0 51 34 85t85 34t84.5 -34t33.5 -85t-33.5 -85t-84.5 -34t-85 34t-34 85z" />
<glyph unicode="&#xf7;" horiz-adv-x="1183" d="M113 641v102h958v-102h-958zM463 332q0 57 38.5 96t94.5 39q57 0 96 -39t39 -96q0 -56 -39 -94.5t-96 -38.5q-56 0 -94.5 38.5t-38.5 94.5zM463 1049q0 57 38.5 96t94.5 39q57 0 96 -39t39 -96q0 -56 -39 -95t-96 -39q-55 0 -94 39t-39 95z" />
<glyph unicode="&#xf8;" d="M84 -125l197 250q-86 79 -134.5 188.5t-48.5 237.5q0 158 78 286t207.5 198.5t282.5 70.5q174 0 317 -92l158 198h141l-211 -266q80 -76 125 -177t45 -218q0 -162 -79 -294t-210 -204.5t-286 -72.5q-161 0 -297 79l-146 -184h-139zM330 549q0 -172 59 -287l506 641 q-91 105 -229 105q-152 0 -244 -126.5t-92 -332.5zM455 168q84 -84 211 -84q157 0 250.5 127t93.5 338q0 143 -52 256z" />
<glyph unicode="&#xf9;" horiz-adv-x="1417" d="M55 1014v71h371v-559q0 -221 52.5 -322.5t166.5 -101.5q179 0 281 236q21 49 28 91.5t7 127.5v201q0 46 -0.5 74.5t-4 57t-7.5 43.5t-14 30t-20.5 22t-30.5 13.5t-40 9.5t-53 6v71h370v-628q0 -221 13 -301q9 -52 39.5 -67t125.5 -15v-72l-338 -25l-22 246h-8 q-76 -122 -176.5 -182.5t-214.5 -60.5q-88 0 -168 32.5t-121 87.5q-66 87 -66 332v326q0 62 -1 96t-8 65.5t-16 45t-31 25.5t-46 16t-68 8zM377 1573q0 33 21 52.5t57 19.5q63 0 137 -68l266 -244h-96l-281 133q-104 49 -104 107z" />
<glyph unicode="&#xfa;" horiz-adv-x="1417" d="M55 1014v71h371v-559q0 -221 52.5 -322.5t166.5 -101.5q179 0 281 236q21 49 28 91.5t7 127.5v201q0 46 -0.5 74.5t-4 57t-7.5 43.5t-14 30t-20.5 22t-30.5 13.5t-40 9.5t-53 6v71h370v-628q0 -221 13 -301q9 -52 39.5 -67t125.5 -15v-72l-338 -25l-22 246h-8 q-76 -122 -176.5 -182.5t-214.5 -60.5q-88 0 -168 32.5t-121 87.5q-66 87 -66 332v326q0 62 -1 96t-8 65.5t-16 45t-31 25.5t-46 16t-68 8zM469 1333l266 244q74 68 137 68q36 0 57 -19.5t21 -52.5q0 -58 -104 -107l-281 -133h-96z" />
<glyph unicode="&#xfb;" horiz-adv-x="1417" d="M55 1014v71h371v-559q0 -221 52.5 -322.5t166.5 -101.5q179 0 281 236q21 49 28 91.5t7 127.5v201q0 46 -0.5 74.5t-4 57t-7.5 43.5t-14 30t-20.5 22t-30.5 13.5t-40 9.5t-53 6v71h370v-628q0 -221 13 -301q9 -52 39.5 -67t125.5 -15v-72l-338 -25l-22 246h-8 q-76 -122 -176.5 -182.5t-214.5 -60.5q-88 0 -168 32.5t-121 87.5q-66 87 -66 332v326q0 62 -1 96t-8 65.5t-16 45t-31 25.5t-46 16t-68 8zM317 1333l244 264h184l244 -264h-92l-244 140l-243 -140h-93z" />
<glyph unicode="&#xfc;" horiz-adv-x="1417" d="M55 1014v71h371v-559q0 -221 52.5 -322.5t166.5 -101.5q179 0 281 236q21 49 28 91.5t7 127.5v201q0 46 -0.5 74.5t-4 57t-7.5 43.5t-14 30t-20.5 22t-30.5 13.5t-40 9.5t-53 6v71h370v-628q0 -221 13 -301q9 -52 39.5 -67t125.5 -15v-72l-338 -25l-22 246h-8 q-76 -122 -176.5 -182.5t-214.5 -60.5q-88 0 -168 32.5t-121 87.5q-66 87 -66 332v326q0 62 -1 96t-8 65.5t-16 45t-31 25.5t-46 16t-68 8zM365 1452q0 51 33.5 85t84.5 34t85 -34t34 -85t-34 -85t-85 -34t-84.5 34t-33.5 85zM707 1452q0 51 33.5 85t84.5 34t85 -34t34 -85 t-34 -85t-85 -34t-84.5 34t-33.5 85z" />
<glyph unicode="&#xfd;" horiz-adv-x="1226" d="M-31 1014v71h543v-71q-137 0 -137 -68q0 -63 57 -201l225 -544h11l186 461q55 132 70.5 180t15.5 82q0 54 -29 72t-114 18v71h450v-71q-27 0 -45.5 -3.5t-39 -18t-36 -34.5t-38.5 -62t-46 -92t-59 -132l-446 -994q-46 -103 -121 -156.5t-172 -53.5q-129 0 -129 96 q0 51 35.5 75t132.5 39q84 13 128.5 46t82.5 110l71 143l-393 854q-53 115 -87.5 146t-115.5 37zM492 1333l266 244q74 68 137 68q36 0 57 -19.5t21 -52.5q0 -58 -105 -107l-280 -133h-96z" />
<glyph unicode="&#xfe;" horiz-adv-x="1409" d="M63 -440q123 4 158 48.5t35 192.5v1436q0 205 -27 264q-10 21 -22.5 31t-42.5 18t-96 17v51l385 82v-760h8q66 86 145 126t182 40q109 0 206 -43.5t166.5 -118.5t110 -179.5t40.5 -221.5q0 -159 -69.5 -288.5t-191 -203.5t-268.5 -74q-199 0 -321 138v-299 q0 -86 7 -131.5t34 -75t69 -38.5t123 -11v-72h-631v72zM457 428q0 -154 85.5 -253t217.5 -99q143 0 231 127t88 334q0 209 -91 341t-236 132q-83 0 -148.5 -40.5t-101.5 -111.5q-45 -88 -45 -248v-182z" />
<glyph unicode="&#xff;" horiz-adv-x="1226" d="M-31 1014v71h543v-71q-137 0 -137 -68q0 -63 57 -201l225 -544h11l186 461q55 132 70.5 180t15.5 82q0 54 -29 72t-114 18v71h450v-71q-27 0 -45.5 -3.5t-39 -18t-36 -34.5t-38.5 -62t-46 -92t-59 -132l-446 -994q-46 -103 -121 -156.5t-172 -53.5q-129 0 -129 96 q0 51 35.5 75t132.5 39q84 13 128.5 46t82.5 110l71 143l-393 854q-53 115 -87.5 146t-115.5 37zM387 1452q0 51 34 85t85 34t85 -34t34 -85t-34 -85t-85 -34t-85 34t-34 85zM729 1452q0 51 34 85t85 34t85 -34t34 -85t-34 -85t-85 -34t-85 34t-34 85z" />
<glyph unicode="&#x152;" horiz-adv-x="2363" d="M117 776q0 222 112.5 406t308 289.5t431.5 105.5h1198l8 -360h-72q-24 161 -108.5 216.5t-296.5 55.5h-260q-17 0 -26 -9.5t-9 -25.5v-588q204 0 289 48.5t98 187.5h72v-559h-72q-15 99 -53 149t-114 70.5t-220 21.5v-462q0 -133 73 -183.5t267 -50.5q217 0 310.5 66.5 t133.5 248.5h78l-31 -403h-1271q-175 0 -332 61t-269.5 164.5t-178.5 247.5t-66 303zM383 770q0 -316 158 -500t428 -184q51 0 83.5 3t58.5 13t40 24t23 41.5t11.5 59.5t2.5 84v955q0 97 -19 145t-63.5 66t-136.5 18q-271 0 -428.5 -194.5t-157.5 -530.5z" />
<glyph unicode="&#x153;" horiz-adv-x="2127" d="M98 551q0 158 78 286t207.5 198.5t282.5 70.5q135 0 255.5 -57t200.5 -156q75 101 190.5 157t258.5 56q197 0 306.5 -108.5t109.5 -307.5q0 -27 -11 -34t-53 -7h-674q-8 -31 -8 -92v-6v-16q5 -204 103.5 -326.5t259.5 -122.5q85 0 160 39t151 123l63 -58 q-175 -210 -432 -210q-140 0 -251.5 53.5t-182.5 152.5q-80 -97 -197 -151.5t-249 -54.5q-153 0 -282.5 72t-207.5 204t-78 295zM330 549q0 -212 91 -338.5t245 -126.5q152 0 245.5 121.5t98.5 324.5v19q0 205 -94.5 332t-249.5 127q-152 0 -244 -126.5t-92 -332.5z M1264 743h376q82 0 102.5 10t20.5 48q0 94 -61 150.5t-164 56.5q-109 0 -178.5 -67t-95.5 -198z" />
<glyph unicode="&#x178;" horiz-adv-x="1433" d="M-39 1499v78h645v-78q-102 0 -144 -15.5t-42 -53.5q0 -40 47 -123l319 -543h7l231 389q121 204 121 277q0 38 -29.5 53.5t-103.5 15.5v78h469v-78q-45 0 -77 -12t-71 -51t-80.5 -100.5t-107.5 -172.5l-316 -532v-244q0 -71 2.5 -115.5t12 -81.5t23 -55.5t41 -32t60 -18 t85.5 -6.5v-78h-664v78q52 2 85 6.5t60 17.5t41 31.5t23.5 53.5t12.5 77.5t3 108.5v250l-409 700q-63 106 -111.5 141t-132.5 35zM518 1864q0 43 30 72.5t73 29.5q44 0 74 -29.5t30 -72.5q0 -44 -30 -74.5t-74 -30.5q-43 0 -73 30.5t-30 74.5zM891 1864q0 43 30 72.5 t74 29.5q43 0 73 -29.5t30 -72.5q0 -44 -30 -74.5t-73 -30.5q-44 0 -74 30.5t-30 74.5z" />
<glyph unicode="&#x2c6;" horiz-adv-x="753" d="M41 1333l244 264h184l244 -264h-92l-244 140l-244 -140h-92z" />
<glyph unicode="&#x2dc;" horiz-adv-x="780" d="M41 1352q17 103 77 168t138 65q57 0 176 -49q100 -45 150 -45q34 0 55.5 20t34.5 66h67q-11 -97 -65 -168q-55 -74 -137 -74q-46 0 -172 51q-126 48 -168 48q-34 0 -53 -18.5t-33 -63.5h-70z" />
<glyph unicode="&#x2000;" horiz-adv-x="983" />
<glyph unicode="&#x2001;" horiz-adv-x="1966" />
<glyph unicode="&#x2002;" horiz-adv-x="983" />
<glyph unicode="&#x2003;" horiz-adv-x="1966" />
<glyph unicode="&#x2004;" horiz-adv-x="655" />
<glyph unicode="&#x2005;" horiz-adv-x="491" />
<glyph unicode="&#x2006;" horiz-adv-x="327" />
<glyph unicode="&#x2007;" horiz-adv-x="327" />
<glyph unicode="&#x2008;" horiz-adv-x="245" />
<glyph unicode="&#x2009;" horiz-adv-x="393" />
<glyph unicode="&#x200a;" horiz-adv-x="109" />
<glyph unicode="&#x2010;" horiz-adv-x="632" d="M0 508v170h633v-170h-633z" />
<glyph unicode="&#x2011;" horiz-adv-x="632" d="M0 508v170h633v-170h-633z" />
<glyph unicode="&#x2012;" horiz-adv-x="632" d="M0 508v170h633v-170h-633z" />
<glyph unicode="&#x2013;" horiz-adv-x="1167" d="M0 508v170h1167v-170h-1167z" />
<glyph unicode="&#x2014;" horiz-adv-x="1964" d="M0 508v170h1962v-170h-1962z" />
<glyph unicode="&#x2018;" horiz-adv-x="618" d="M174 1337q0 104 52.5 182t191.5 181l47 -55q-93 -70 -133.5 -135.5t-40.5 -143.5q26 16 61 16q47 0 77 -31.5t30 -80.5q0 -56 -38.5 -90.5t-101.5 -34.5q-71 0 -108 49t-37 143z" />
<glyph unicode="&#x2019;" horiz-adv-x="618" d="M154 1200q93 70 133.5 135.5t40.5 143.5q-27 -17 -62 -17q-47 0 -76.5 31.5t-29.5 81.5q0 56 38 90.5t101 34.5q70 0 107.5 -49.5t37.5 -143.5q0 -104 -52 -181.5t-191 -180.5z" />
<glyph unicode="&#x201a;" horiz-adv-x="618" d="M154 -283q93 70 133.5 135.5t40.5 143.5q-26 -16 -62 -16q-47 0 -76.5 31t-29.5 81q0 56 38 90.5t101 34.5q71 0 108 -49t37 -143q0 -105 -52 -183t-191 -180z" />
<glyph unicode="&#x201c;" horiz-adv-x="1011" d="M174 1337q0 104 52.5 182t191.5 181l47 -55q-93 -70 -133.5 -135.5t-40.5 -143.5q26 16 61 16q47 0 77 -31.5t30 -80.5q0 -56 -38.5 -90.5t-101.5 -34.5q-71 0 -108 49t-37 143zM567 1337q0 104 52.5 182t191.5 181l47 -55q-93 -70 -133.5 -135.5t-40.5 -143.5 q26 16 61 16q47 0 77 -31.5t30 -80.5q0 -56 -38 -90.5t-101 -34.5q-71 0 -108.5 49.5t-37.5 142.5z" />
<glyph unicode="&#x201d;" horiz-adv-x="1011" d="M154 1200q93 70 133.5 135.5t40.5 143.5q-27 -17 -62 -17q-47 0 -76.5 31.5t-29.5 81.5q0 56 38 90.5t101 34.5q70 0 107.5 -49.5t37.5 -143.5q0 -104 -52 -181.5t-191 -180.5zM547 1200q93 70 133.5 135.5t40.5 143.5q-27 -17 -62 -17q-47 0 -76.5 31.5t-29.5 81.5 q0 56 38 90.5t101 34.5q71 0 108.5 -49.5t37.5 -143.5q0 -104 -52 -181.5t-192 -180.5z" />
<glyph unicode="&#x201e;" horiz-adv-x="1011" d="M154 -283q93 70 133.5 135.5t40.5 143.5q-26 -16 -62 -16q-47 0 -76.5 31t-29.5 81q0 56 38 90.5t101 34.5q71 0 108 -49t37 -143q0 -105 -52 -183t-191 -180zM547 -283q93 70 133.5 135.5t40.5 143.5q-26 -16 -62 -16q-47 0 -76.5 31t-29.5 81q0 56 38 90.5t101 34.5 q71 0 108.5 -49.5t37.5 -142.5q0 -104 -52.5 -182t-191.5 -181z" />
<glyph unicode="&#x2022;" horiz-adv-x="854" d="M102 756q0 130 94.5 220.5t225.5 90.5q127 0 219 -91t92 -220q0 -131 -94 -222.5t-227 -91.5q-124 0 -217 92.5t-93 221.5z" />
<glyph unicode="&#x2026;" horiz-adv-x="1327" d="M92 113q0 57 38.5 96t94.5 39q57 0 96 -39t39 -96q0 -56 -39 -94.5t-96 -38.5q-55 0 -94 39t-39 94zM535 113q0 57 38.5 96t94.5 39q57 0 96 -39t39 -96q0 -56 -39 -94.5t-96 -38.5q-56 0 -94.5 39t-38.5 94zM977 113q0 57 38.5 96t94.5 39q57 0 96 -39t39 -96 q0 -56 -39 -94.5t-96 -38.5q-56 0 -94.5 39t-38.5 94z" />
<glyph unicode="&#x202f;" horiz-adv-x="393" />
<glyph unicode="&#x2039;" horiz-adv-x="710" d="M223 537l348 325l41 -43l-202 -282l200 -283l-39 -41z" />
<glyph unicode="&#x203a;" horiz-adv-x="710" d="M98 819l41 43l348 -325l-348 -324l-39 41l201 283z" />
<glyph unicode="&#x205f;" horiz-adv-x="491" />
<glyph unicode="&#x20ac;" horiz-adv-x="1280" d="M-45 881v118h184q52 284 217 441t402 157q96 0 159.5 -24.5t147.5 -99.5l35 104h57v-442h-88q-34 178 -111 271t-192 93q-152 0 -247 -126.5t-124 -373.5h473v-118h-479q-4 -58 -4 -88q0 -42 2 -60h481v-119h-477q0 -238 100.5 -387t260.5 -149q139 0 235 120.5 t113 317.5h88v-516h-70l-24 141q-136 -161 -359 -161q-232 0 -395 171.5t-207 462.5h-176v119h166q-2 20 -2 62q0 43 6 86h-172z" />
<glyph unicode="&#x2122;" horiz-adv-x="1794" d="M143 1421v156h619l8 -156h-43q-6 64 -32 87.5t-89 23.5q-58 0 -75 -5.5t-17 -21.5v-418q0 -56 20 -76.5t87 -23.5v-41h-330v41q66 3 86 24t20 76v418q0 16 -15.5 21.5t-66.5 5.5q-32 0 -51 -3t-39 -13.5t-30 -33.5t-11 -61h-41zM811 946v41q59 2 74.5 22.5t15.5 96.5v311 q0 71 -14.5 93.5t-67.5 25.5v41h217l197 -463h2l203 463h204v-41q-53 -1 -67 -24.5t-14 -100.5v-299q0 -81 15.5 -102t74.5 -23v-41h-277v41q59 2 75 22.5t15 96.5v369h-8l-239 -537h-17l-235 537h-4v-363q0 -81 15.5 -102t74.5 -23v-41h-240z" />
<glyph unicode="&#x25fc;" horiz-adv-x="1085" d="M0 0v1085h1085v-1085h-1085z" />
<glyph unicode="&#xfb01;" horiz-adv-x="1361" d="M25 956v97h231v147q3 237 137.5 368.5t380.5 131.5q145 0 236.5 -36t91.5 -93q0 -41 -26 -68.5t-64 -27.5q-44 0 -133 61q-62 42 -95 54t-86 12q-151 0 -217 -125q-32 -68 -32 -265v-159h327l330 53v-774q0 -67 3.5 -108t12 -71.5t26.5 -45.5t42.5 -22t64.5 -9v-76h-526 v76q60 3 92.5 13t52.5 38t25.5 69.5t5.5 118.5v258q0 247 -14 299q-9 50 -47 67t-139 17h-256v-626q0 -153 34 -204t138 -54v-72h-521v72q44 3 69 9t44.5 19t27.5 41.5t11.5 67t3.5 104.5v643h-231z" />
<glyph unicode="&#xfb02;" horiz-adv-x="1386" d="M25 956v97h231v147q3 237 126.5 368.5t348.5 131.5q140 0 223 -47l176 47v-1381q0 -55 2.5 -90t10 -64.5t19.5 -45t34 -26.5t48.5 -15t68.5 -6v-72h-545v72q109 6 140.5 49t31.5 184v1151l-45 39q-70 62 -119 84.5t-106 22.5q-73 0 -117.5 -30.5t-71.5 -94.5 q-18 -41 -25 -96.5t-7 -168.5v-159h329v-97h-329v-626q0 -153 37.5 -204t154.5 -54v-72h-561v72q42 2 67.5 6t47 14.5t32 25t18 43t9.5 63t2 89.5v643h-231z" />
<glyph unicode="&#xfb03;" horiz-adv-x="2021" d="M25 956v97h231v65q3 237 126.5 368.5t350.5 131.5q152 0 268 -107q145 189 433 189q145 0 236 -36t91 -93q0 -41 -26 -68.5t-64 -27.5q-44 0 -133 61q-63 42 -95 54t-85 12q-156 0 -217 -125q-19 -38 -26 -97.5t-7 -167.5v-159h328l329 53v-774q0 -84 5 -129.5 t22.5 -75.5t45 -39.5t77.5 -11.5v-76h-526v76q60 3 92.5 13t52.5 38t25.5 69.5t5.5 118.5v258q0 243 -15 299q-9 50 -47 67t-139 17h-256v-657q3 -133 42 -178.5t150 -48.5v-72h-540v72q66 0 97.5 18.5t44.5 68.5t13 154v643h-466v-626q0 -153 37.5 -204t154.5 -54v-72h-541 v72q44 3 69 9t44.5 19t27.5 41.5t11.5 67t3.5 104.5v643h-231zM449 1053h466v319q-41 27 -102 80q-49 41 -82 54.5t-74 13.5q-123 0 -176 -125q-32 -68 -32 -265v-77z" />
<glyph unicode="&#xfb04;" horiz-adv-x="2045" d="M25 956v97h231v65q3 237 126.5 368.5t350.5 131.5q84 0 153 -28t111 -77q133 187 394 187q140 0 223 -47l176 47v-1381q0 -156 32 -199.5t150 -47.5v-72h-545v72q109 6 140.5 49t31.5 184v1151l-45 39q-70 62 -119 84.5t-106 22.5q-73 0 -117 -30.5t-71 -94.5 q-18 -42 -25.5 -97.5t-7.5 -167.5v-159h330v-97h-330v-626q0 -153 37.5 -204t154.5 -54v-72h-561v72q42 2 67.5 6t47 14.5t32 25t18 43t9.5 63t2 89.5v643h-466v-626q0 -153 37.5 -204t154.5 -54v-72h-541v72q44 3 69 9t44.5 19t27.5 41.5t11.5 67t3.5 104.5v643h-231z M449 1053h466v319q-41 27 -102 80q-49 41 -82 54.5t-74 13.5q-123 0 -176 -125q-32 -68 -32 -265v-77z" />
</font>
</defs>
</svg>
