<?xml version="1.0" standalone="no"?>
<!DOCTYPE svg PUBLIC "-//W3C//DTD SVG 1.1//EN" "http://www.w3.org/Graphics/SVG/1.1/DTD/svg11.dtd" >
<svg xmlns="http://www.w3.org/2000/svg">
<metadata></metadata>
<defs>
<font id="sani_trixie_sansregular" horiz-adv-x="1050" >
<font-face units-per-em="2048" ascent="1638" descent="-410" />
<missing-glyph horiz-adv-x="500" />
<glyph horiz-adv-x="0" />
<glyph horiz-adv-x="682" />
<glyph unicode=" "  horiz-adv-x="500" />
<glyph unicode="&#x09;" horiz-adv-x="500" />
<glyph unicode="&#xa0;" horiz-adv-x="500" />
<glyph unicode="!" horiz-adv-x="350" d="M75 0v200h200v-200h-200zM100 400v1000h150v-1000h-150z" />
<glyph unicode="&#x22;" horiz-adv-x="600" d="M100 1200v200h150v-200l-38 -200h-74zM350 1200v200h150v-200l-38 -200h-74z" />
<glyph unicode="#" horiz-adv-x="1400" d="M100 400v150h237l74 300h-211v150h249l99 400h152l-99 -400h348l99 400h152l-99 -400h199v-150h-237l-74 -300h211v-150h-249l-99 -400h-152l99 400h-348l-99 -400h-152l99 400h-199zM489 550h348l74 300h-348z" />
<glyph unicode="$" horiz-adv-x="1150" d="M50 325l124 89q32 -75 83 -128q116 -120 293 -134v482q-12 2 -25 4q-425 77 -425 362q0 180 125 290q112 99 325 109v201h100v-202q240 -15 399 -178l-106 -106q-116 120 -293 134v-481q12 -2 25 -4q425 -78 425 -363q0 -180 -125 -290q-112 -99 -325 -109v-201h-100v202 q-240 15 -399 178q-61 63 -101 145zM250 1000q0 -143 300 -213v461q-117 -8 -200 -58q-100 -60 -100 -190zM650 152q117 8 200 58q100 60 100 190q0 143 -300 214v-462z" />
<glyph unicode="%" horiz-adv-x="1400" d="M50 1100q0 124 88 212t212 88t212 -88t88 -212t-88 -212t-212 -88t-212 88t-88 212zM188 1100q0 -67 47.5 -114.5t114.5 -47.5t115 47.5t48 114.5t-48 115t-115 48t-114.5 -48t-47.5 -115zM350 0l542 1400h158l-542 -1400h-158zM750 300q0 124 88 212t212 88t212 -88 t88 -212t-88 -212t-212 -88t-212 88t-88 212zM888 300q0 -67 47.5 -114.5t114.5 -47.5t115 47.5t48 114.5t-48 115t-115 48t-114.5 -48t-47.5 -115z" />
<glyph unicode="&#x26;" horiz-adv-x="1350" d="M50 400q0 166 117 283q43 43 92 70q-32 20 -59 47q-100 100 -100 225q0 155 110 265t340 110q225 0 400 -180l-106 -106q-132 136 -294 136q-168 0 -234 -66t-66 -159t64 -157.5t152 -67.5h434v200h150v-200h200v-150h-200v-650h-150v200q-150 -200 -400 -200 q-200 0 -325 125t-125 275zM200 400q0 -88 81 -169t219 -81q250 0 400 200v300h-450q-104 0 -177 -73t-73 -177z" />
<glyph unicode="'" horiz-adv-x="350" d="M100 1200v200h150v-200l-38 -200h-74z" />
<glyph unicode="(" horiz-adv-x="500" d="M50 700q0 500 250 900h150q-250 -400 -250 -900t250 -900h-150q-250 400 -250 900z" />
<glyph unicode=")" horiz-adv-x="500" d="M50 -200q250 400 250 900t-250 900h150q250 -400 250 -900t-250 -900h-150z" />
<glyph unicode="*" horiz-adv-x="584" d="M50 1068l142 82l-142 82l50 86l142 -82v164h100v-164l142 82l50 -86l-142 -82l142 -82l-50 -86l-142 82v-164h-100v164l-142 -82z" />
<glyph unicode="+" horiz-adv-x="1000" d="M100 650v150h325v300h150v-300h325v-150h-325v-300h-150v300h-325z" />
<glyph unicode="," horiz-adv-x="400" d="M100 0v200h200v-200l-100 -200h-100l75 200h-75z" />
<glyph unicode="-" horiz-adv-x="800" d="M100 650v150h600v-150h-600z" />
<glyph unicode="." horiz-adv-x="400" d="M100 0v200h200v-200h-200z" />
<glyph unicode="/" horiz-adv-x="600" d="M0 -200l448 1800h152l-448 -1800h-152z" />
<glyph unicode="0" horiz-adv-x="1100" d="M40 700q0 340 136 520t364 180q229 0 364.5 -180t135.5 -520t-135.5 -520t-364.5 -180q-228 0 -364 180t-136 520zM190 700q0 -278 92 -414t258 -136q167 0 258.5 136t91.5 414t-91.5 414t-258.5 136q-166 0 -258 -136t-92 -414z" />
<glyph unicode="1" horiz-adv-x="550" d="M100 1250v100l200 50h150v-1400h-150v1250h-200z" />
<glyph unicode="2" horiz-adv-x="1100" d="M100 0v150q0 285 375 462q375 178 375 388q0 104 -88 177t-212 73q-166 0 -283 -73q-31 -19 -53 -41l-104 104q23 22 51 43q161 117 389 117q186 0 318 -117t132 -283q0 -300 -375 -478q-375 -177 -375 -372h750v-150h-900z" />
<glyph unicode="3" horiz-adv-x="1100" d="M50 325l124 89q32 -75 83 -128q132 -136 293 -136q188 0 269 81t81 169q0 104 -73 177t-177 73h-190l-10 150h175q93 0 159 66t66 159t-66 159t-234 66q-162 0 -294 -136l-106 106q175 180 400 180q230 0 340 -110t110 -265q0 -125 -100 -225q-27 -27 -60 -47 q50 -27 93 -70q117 -117 117 -283q0 -150 -125 -275t-375 -125q-224 0 -399 180q-61 63 -101 145z" />
<glyph unicode="4" horiz-adv-x="1200" d="M100 400v150l619 850h180l-1 -2l2 2v-850h200v-150h-200v-400h-150v400h-650zM280 550h470v645z" />
<glyph unicode="5" d="M50 325l124 89q32 -75 83 -128q132 -136 293 -136q134 0 217 73t83 227t-83 227t-217 73q-200 0 -300 -115l-150 100v665h850v-150h-700v-465q100 115 300 115q196 0 323 -117t127 -333t-127 -333t-323 -117q-224 0 -399 180q-61 63 -101 145z" />
<glyph unicode="6" d="M50 700q0 340 136 520t364 180q249 0 400 -200l-106 -106q-108 156 -294 156q-166 0 -253 -128.5t-96 -361.5q156 140 349 140q196 0 323 -117t127 -333t-127 -333t-323 -117q-228 0 -364 180t-136 520zM202 611q13 -212 97.5 -336.5t250.5 -124.5q134 0 217 73t83 227 t-83 227t-217 73q-192 0 -348 -139z" />
<glyph unicode="7" horiz-adv-x="1100" d="M100 1250v150h900v-150q-450 -600 -450 -1250h-150q0 650 430 1250h-730z" />
<glyph unicode="8" d="M50 400q0 166 117 283q43 43 92 70q-32 20 -59 47q-100 100 -100 225q0 155 110 265t315 110t315 -110t110 -265q0 -125 -100 -225q-27 -27 -60 -47q50 -27 93 -70q117 -117 117 -283q0 -150 -125 -275t-350 -125t-350 125t-125 275zM200 400q0 -88 81 -169t244 -81 t244 81t81 169q0 104 -73 177t-177 75v1h-150v-1q-104 -2 -177 -75t-73 -177zM250 1025q0 -93 64 -157.5t150 -71.5h121q86 7 150.5 71.5t64.5 157.5t-66 159t-209 66t-209 -66t-66 -159z" />
<glyph unicode="9" d="M50 950q0 216 127 333t323 117q228 0 364 -180t136 -520t-136 -520t-364 -180q-249 0 -400 200l106 106q108 -156 294 -156q166 0 253 128.5t96 361.5q-156 -140 -349 -140q-196 0 -323 117t-127 333zM200 950q0 -154 83 -227t217 -73q192 0 348 139q-13 212 -97.5 336.5 t-250.5 124.5q-134 0 -217 -73t-83 -227z" />
<glyph unicode=":" horiz-adv-x="400" d="M100 0v200h200v-200h-200zM100 800v200h200v-200h-200z" />
<glyph unicode=";" horiz-adv-x="400" d="M100 0v200h200v-200l-100 -200h-100l75 200h-75zM100 800v200h200v-200h-200z" />
<glyph unicode="&#x3c;" horiz-adv-x="1000" d="M100 610v180l800 310v-158l-625 -242l625 -242v-158z" />
<glyph unicode="=" horiz-adv-x="1000" d="M110 450v150h800v-150h-800zM110 850v150h800v-150h-800z" />
<glyph unicode="&#x3e;" horiz-adv-x="1000" d="M100 300v158l625 242l-625 242v158l800 -310v-180z" />
<glyph unicode="?" horiz-adv-x="990" d="M50 1240q23 22 51 43q161 117 389 117q186 0 318 -117t132 -283q0 -230 -225 -340t-225 -260h-150q0 230 225 340t225 260q0 104 -88 177t-212 73q-166 0 -283 -73q-31 -19 -53 -41zM315 0v200h200v-200h-200z" />
<glyph unicode="@" horiz-adv-x="1900" d="M50 500q0 373 263.5 636.5t636.5 263.5t636.5 -263.5t263.5 -636.5q0 -207 -124.5 -353.5t-300.5 -146.5q-83 0 -141 59q-48 47 -57 111l-19 -24q-117 -146 -283 -146q-197 0 -323.5 146t-126.5 354t126.5 354t323.5 146q166 0 283 -147q9 -11 17 -22v169h150v-800 q0 -21 14.5 -35.5t35.5 -14.5q114 0 194.5 102.5t80.5 247.5q0 311 -219.5 530.5t-530.5 219.5t-530.5 -219.5t-219.5 -530.5t219.5 -530.5t530.5 -219.5q238 0 422 128l107 -107q-229 -171 -529 -171q-373 0 -636.5 263.5t-263.5 636.5zM625 500q0 -146 82.5 -248 t217.5 -102q145 0 247 102q31 31 53 66v364q-22 35 -53 65q-102 103 -247 103q-135 0 -217.5 -102t-82.5 -248z" />
<glyph unicode="A" horiz-adv-x="1200" d="M0 0l492 1400h216l492 -1400h-158l-158 450h-568l-158 -450h-158zM369 600h462l-231 658z" />
<glyph unicode="B" horiz-adv-x="1150" d="M100 0v1400h575q155 0 265 -110t110 -265q0 -125 -100 -225q-27 -27 -60 -47q50 -27 93 -70q117 -117 117 -283q0 -180 -110 -290t-290 -110h-600zM250 150h450q118 0 184 66t66 184q0 104 -73 177t-177 73h-450v-500zM250 800h425q93 0 159 66t66 159t-66 159t-159 66 h-425v-450z" />
<glyph unicode="C" horiz-adv-x="1225" d="M50 700q0 340 175.5 520t424.5 180t424 -180q61 -63 101 -145l-124 -89q-32 75 -83 128q-132 136 -318 136t-318 -136t-132 -414t132 -414t318 -136t318 136q51 53 83 128l124 -89q-40 -82 -101 -145q-175 -180 -424 -180t-424.5 180t-175.5 520z" />
<glyph unicode="D" horiz-adv-x="1250" d="M100 0v1400h500q249 0 424.5 -180t175.5 -520t-175.5 -520t-424.5 -180h-500zM250 150h350q187 0 318.5 136t131.5 414t-131.5 414t-318.5 136h-350v-1100z" />
<glyph unicode="E" horiz-adv-x="1100" d="M100 0v1400h850v-150h-700v-450h600v-150h-600v-500h750v-150h-900z" />
<glyph unicode="F" horiz-adv-x="1100" d="M100 0v1400h850v-150h-700v-450h600v-150h-600v-650h-150z" />
<glyph unicode="G" horiz-adv-x="1300" d="M50 700q0 340 175.5 520t424.5 180t424 -180q61 -63 101 -145l-124 -89q-32 75 -83 128q-132 136 -318 136t-318 -136t-132 -414t132 -414t318 -136q207 0 354 161q25 28 46 58v281h-400v150h550v-476q-38 -63 -90 -119q-191 -205 -460 -205q-249 0 -424.5 180 t-175.5 520z" />
<glyph unicode="H" horiz-adv-x="1200" d="M100 0v1400h150v-600h700v600h150v-1400h-150v650h-700v-650h-150z" />
<glyph unicode="I" horiz-adv-x="350" d="M100 0v1400h150v-1400h-150z" />
<glyph unicode="J" horiz-adv-x="950" d="M50 200l106 106q108 -156 294 -156q110 0 180 70t70 180v1000h150v-1000q0 -180 -110 -290t-290 -110q-249 0 -400 200z" />
<glyph unicode="K" horiz-adv-x="1100" d="M100 0v1400h150v-782l570 782h180l-460 -631l560 -769h-180l-470 645l-200 -274v-371h-150z" />
<glyph unicode="L" horiz-adv-x="1100" d="M100 0v1400h150v-1250h750v-150h-900z" />
<glyph unicode="M" horiz-adv-x="1600" d="M100 0v1400h258l442 -1258l442 1258h258v-1400h-150v1258l-442 -1258h-216l-442 1258v-1258h-150z" />
<glyph unicode="N" horiz-adv-x="1200" d="M100 0v1400h170l680 -1147v1147h150v-1400h-170l-680 1147v-1147h-150z" />
<glyph unicode="O" horiz-adv-x="1300" d="M50 700q0 340 176 520t424 180q249 0 424.5 -180t175.5 -520t-175.5 -520t-424.5 -180q-248 0 -424 180t-176 520zM200 700q0 -278 132 -414t318 -136q187 0 318.5 136t131.5 414t-131.5 414t-318.5 136q-186 0 -318 -136t-132 -414z" />
<glyph unicode="P" horiz-adv-x="1150" d="M100 0v1400h625q155 0 265 -110t110 -265t-110 -265t-265 -110h-475v-650h-150zM250 800h475q93 0 159 66t66 159t-66 159t-159 66h-475v-450z" />
<glyph unicode="Q" horiz-adv-x="1300" d="M50 700q0 340 176 520t424 180q249 0 424.5 -180t175.5 -520q0 -294 -132 -469l182 -181l-100 -100l-180 180q-159 -130 -370 -130q-248 0 -424 180t-176 520zM200 700q0 -278 132 -414t318 -136q187 0 318.5 136t131.5 414t-131.5 414t-318.5 136q-186 0 -318 -136 t-132 -414z" />
<glyph unicode="R" horiz-adv-x="1150" d="M100 0v1400h625q155 0 265 -110t110 -265t-93 -248t-190 -117l283 -660h-165l-279 650h-406v-650h-150zM250 800h475q93 0 159 66t66 159t-66 159t-159 66h-475v-450z" />
<glyph unicode="S" horiz-adv-x="1150" d="M50 325l124 89q32 -75 83 -128q132 -136 343 -136q150 0 250 60t100 190q0 170 -425 238q-425 77 -425 362q0 180 125 290t375 110q274 0 449 -180l-106 -106q-132 136 -343 136q-150 0 -250 -60t-100 -190q0 -170 425 -237q425 -78 425 -363q0 -180 -125 -290t-375 -110 q-274 0 -449 180q-61 63 -101 145z" />
<glyph unicode="T" horiz-adv-x="1200" d="M100 1250v150h1000v-150h-425v-1250h-150v1250h-425z" />
<glyph unicode="U" horiz-adv-x="1200" d="M100 500v900h150v-900q0 -155 87.5 -252.5t262.5 -97.5t262.5 97.5t87.5 252.5v900h150v-900q0 -217 -121.5 -358.5t-378.5 -141.5t-378.5 141.5t-121.5 358.5z" />
<glyph unicode="V" horiz-adv-x="1200" d="M0 1400h158l442 -1258l442 1258h158l-492 -1400h-216z" />
<glyph unicode="W" horiz-adv-x="1700" d="M0 1400h152l298 -1199l298 1199h204l298 -1199l298 1199h152l-348 -1400h-204l-298 1199l-298 -1199h-204z" />
<glyph unicode="X" horiz-adv-x="1100" d="M0 0l463 700l-463 700h175l375 -568l375 568h175l-462 -700l462 -700h-175l-375 568l-375 -568h-175z" />
<glyph unicode="Y" horiz-adv-x="1100" d="M0 1400h175l375 -568l375 568h175l-475 -719v-681h-150v681z" />
<glyph unicode="Z" horiz-adv-x="1200" d="M100 0v76l779 1179l-7 -5h-722v150h950v-76l-780 -1180l9 6h771v-150h-1000z" />
<glyph unicode="[" horiz-adv-x="550" d="M100 -200v1800h350v-150h-200v-1500h200v-150h-350z" />
<glyph unicode="\" horiz-adv-x="600" d="M0 1600h152l448 -1800h-152z" />
<glyph unicode="]" horiz-adv-x="550" d="M100 -50h200v1500h-200v150h350v-1800h-350v150z" />
<glyph unicode="^" horiz-adv-x="1082" d="M50 850l401 550h180l401 -550h-180l-311 427l-311 -427h-180z" />
<glyph unicode="_" horiz-adv-x="600" d="M0 -250h600v-150h-600v150z" />
<glyph unicode="`" horiz-adv-x="400" d="M50 1350h200l100 -250h-125z" />
<glyph unicode="a" horiz-adv-x="1000" d="M50 300q0 124 102.5 212t247.5 88h350q0 103 -73.5 176.5t-176.5 73.5q-162 0 -294 -136l-106 106q175 180 400 180q165 0 282.5 -117.5t117.5 -282.5v-600h-150v172l-11 -11q-161 -161 -339 -161q-145 0 -247.5 88t-102.5 212zM200 300q0 -62 58.5 -106t141.5 -44 q155 0 300 117q28 22 50 46v137h-350q-83 0 -141.5 -44t-58.5 -106z" />
<glyph unicode="b" d="M100 0v1400h150v-569q8 11 17 23q117 146 283 146q197 0 323.5 -146t126.5 -354t-126.5 -354t-323.5 -146q-166 0 -283 147q-9 11 -17 22v-169h-150zM250 318q22 -35 53 -65q102 -103 247 -103q135 0 217.5 102t82.5 248t-82.5 248t-217.5 102q-145 0 -247 -102 q-31 -31 -53 -66v-364z" />
<glyph unicode="c" horiz-adv-x="971" d="M50 500q0 228 139 364t336 136q246 -2 396 -219l-106 -106q-107 172 -290 175q-135 0 -230 -92t-95 -258t95 -258t230 -92q183 3 290 175l106 -106q-150 -217 -396 -219q-197 0 -336 136t-139 364z" />
<glyph unicode="d" d="M50 500q0 208 126.5 354t323.5 146q166 0 283 -146q9 -12 17 -23v569h150v-1400h-150v169q-8 -11 -17 -22q-117 -147 -283 -147q-197 0 -323.5 146t-126.5 354zM200 500q0 -146 82.5 -248t217.5 -102q145 0 247 103q31 30 53 65v364q-22 35 -53 66q-102 102 -247 102 q-135 0 -217.5 -102t-82.5 -248z" />
<glyph unicode="e" horiz-adv-x="1000" d="M50 500q0 228 139 364t311 136q186 0 318 -132t132 -318l-40 -91l-706 -24q15 -120 91 -193q95 -92 230 -92q187 0 295 175l106 -106q-151 -219 -401 -219q-197 0 -336 136t-139 364zM205 574l592 21q-14 95 -85 167q-88 88 -212 88q-110 0 -205 -92q-73 -71 -90 -184z " />
<glyph unicode="f" horiz-adv-x="650" d="M50 850v150h200v150q0 250 250 250q50 0 100 -15v-140q-25 2 -50 3.5t-50 1.5q-100 0 -100 -100v-150h200v-150h-200v-850h-150v850h-200z" />
<glyph unicode="g" d="M50 500q0 208 126.5 354t323.5 146q166 0 283 -146q9 -12 17 -23v169h150v-1000q0 -176 -112 -288t-288 -112q-225 0 -400 180l106 106q132 -136 294 -136q114 0 182 68t68 182v169q-8 -11 -17 -22q-117 -147 -283 -147q-197 0 -323.5 146t-126.5 354zM200 500 q0 -146 82.5 -248t217.5 -102q145 0 247 103q31 30 53 65v364q-22 35 -53 66q-102 102 -247 102q-135 0 -217.5 -102t-82.5 -248z" />
<glyph unicode="h" d="M100 0v1400h150v-569q8 11 17 23q117 146 283 146t283 -117t117 -283v-600h-150v600q0 104 -73 177t-177 73q-145 0 -247 -102q-31 -31 -53 -66v-682h-150z" />
<glyph unicode="i" horiz-adv-x="350" d="M75 1200v200h200v-200h-200zM100 0v1000h150v-1000h-150z" />
<glyph unicode="j" horiz-adv-x="375" d="M-100 -245q25 -2 50 -3.5t50 -1.5q100 0 100 100v1150h150v-1150q0 -250 -250 -250q-50 0 -100 15v140zM75 1200v200h200v-200h-200z" />
<glyph unicode="k" horiz-adv-x="900" d="M100 0v1400h150v-908l370 508h180l-314 -431l414 -569h-180l-324 445l-146 -200v-245h-150z" />
<glyph unicode="l" horiz-adv-x="350" d="M100 0v1400h150v-1400h-150z" />
<glyph unicode="m" horiz-adv-x="1550" d="M100 0v1000h150v-150q75 150 250 150q146 0 216 -66.5t94 -111.5q145 178 290 178q146 0 248 -97t102 -253v-650h-150v650q0 94 -58 147t-142 53q-175 0 -250 -150v-700h-150v650q0 94 -58 147t-142 53q-175 0 -250 -150v-700h-150z" />
<glyph unicode="n" d="M100 0v1000h150v-169q8 11 17 23q117 146 283 146t283 -117t117 -283v-600h-150v600q0 104 -73 177t-177 73q-145 0 -247 -102q-31 -31 -53 -66v-682h-150z" />
<glyph unicode="o" d="M50 500q0 228 139 364t336 136t336 -136t139 -364q0 -218 -139 -359t-336 -141t-336 136t-139 364zM200 500q0 -166 95 -258t230 -92t230 92t95 258t-95 258t-230 92t-230 -92t-95 -258z" />
<glyph unicode="p" d="M100 -400v1400h150v-169q8 11 17 22q117 147 283 147q197 0 323.5 -146t126.5 -354t-126.5 -354t-323.5 -146q-166 0 -283 146q-9 12 -17 23v-569h-150zM250 318q22 -35 53 -66q102 -102 247 -102q135 0 217.5 102t82.5 248t-82.5 248t-217.5 102q-145 0 -247 -103 q-31 -30 -53 -65v-364z" />
<glyph unicode="q" d="M50 500q0 208 126.5 354t323.5 146q166 0 283 -147q9 -11 17 -22v169h150v-1400h-150v569q-8 -11 -17 -23q-117 -146 -283 -146q-197 0 -323.5 146t-126.5 354zM200 500q0 -146 82.5 -248t217.5 -102q145 0 247 102q31 31 53 66v364q-22 35 -53 65q-102 103 -247 103 q-135 0 -217.5 -102t-82.5 -248z" />
<glyph unicode="r" horiz-adv-x="700" d="M100 0v1000h150v-169q8 11 17 23q117 146 283 146q77 0 144 -25l-37 -148q-49 23 -107 23q-145 0 -247 -102q-31 -31 -53 -66v-682h-150z" />
<glyph unicode="s" horiz-adv-x="950" d="M50 219l106 106q108 -175 344 -175q124 0 187 41.5t63 108.5q0 85 -305 138q-345 62 -345 262q0 124 107 212t293 88q225 0 350 -150l-106 -106q-82 106 -244 106q-124 0 -187 -41.5t-63 -108.5q0 -85 305 -137q345 -63 345 -263q0 -124 -107 -212t-293 -88 q-299 0 -450 219z" />
<glyph unicode="t" horiz-adv-x="650" d="M50 850v150h200v200h150v-200h200v-150h-200v-600q0 -100 100 -100q25 0 50 1.5t50 3.5v-140q-50 -15 -100 -15q-250 0 -250 250v600h-200z" />
<glyph unicode="u" d="M100 400v600h150v-600q0 -104 73 -177t177 -73q145 0 247 102q31 31 53 66v682h150v-1000h-150v169q-8 -11 -17 -23q-117 -146 -283 -146t-283 117t-117 283z" />
<glyph unicode="v" horiz-adv-x="900" d="M0 1000h158l292 -831l292 831h158l-351 -1000h-198z" />
<glyph unicode="w" horiz-adv-x="1300" d="M0 1000h152l198 -797l198 797h204l198 -797l198 797h152l-249 -1000h-202l-199 799l-199 -799h-202z" />
<glyph unicode="x" horiz-adv-x="908" d="M0 0l364 500l-364 500h180l274 -376l274 376h180l-364 -500l364 -500h-180l-274 376l-274 -376h-180z" />
<glyph unicode="y" horiz-adv-x="900" d="M0 1000h158l292 -831l292 831h158l-351 -1000q-129 -400 -399 -400q-72 1 -144 23l35 141q54 -13 109 -14q141 0 220 195z" />
<glyph unicode="z" horiz-adv-x="1000" d="M100 0v74l568 780l-12 -4h-506v150h700v-143l-516 -708l4 1h562v-150h-800z" />
<glyph unicode="{" horiz-adv-x="750" d="M100 650v150h50q150 0 150 238v262q0 300 300 300h50v-150h-50q-150 0 -150 -150v-262q0 -247 -160 -314q160 -66 160 -312v-312q0 -150 150 -150h50v-150h-50q-300 0 -300 300v312q0 237 -150 237v1h-50z" />
<glyph unicode="|" horiz-adv-x="350" d="M100 -200v1800h150v-1800h-150z" />
<glyph unicode="}" horiz-adv-x="750" d="M100 -50h50q150 0 150 150v312q0 246 160 312q-160 67 -160 314v262q0 150 -150 150h-50v150h50q300 0 300 -300v-262q0 -238 150 -238h50v-150h-50v-1q-150 0 -150 -237v-312q0 -300 -300 -300h-50v150z" />
<glyph unicode="~" horiz-adv-x="1000" d="M50 600q0 300 250 300q100 0 210 -75q109 -75 190 -75q100 0 100 150h150q0 -300 -250 -300q-101 0 -210 75q-110 75 -190 75q-100 0 -100 -150h-150z" />
<glyph unicode="&#xa1;" horiz-adv-x="350" d="M75 800v200h200v-200h-200zM100 -400v1000h150v-1000h-150z" />
<glyph unicode="&#xa2;" horiz-adv-x="971" d="M50 700q0 228 139 364q121 119 287 134v202h100v-203q211 -22 345 -216l-106 -106q-92 147 -239 171v-692q147 24 239 171l106 -106q-134 -194 -345 -216v-203h-100v202q-166 15 -287 134q-139 136 -139 364zM200 700q0 -166 95 -258q77 -75 181 -89v694 q-104 -14 -181 -89q-95 -92 -95 -258z" />
<glyph unicode="&#xa3;" horiz-adv-x="1200" d="M50 100q100 80 175 189.5t75 235.5q0 57 -16 125h-184v100h154q-2 6 -4 13q-50 137 -50 237q0 166 117 283t283 117q249 0 424 -180l-106 -106q-132 136 -318 136q-104 0 -177 -73t-73 -177q0 -100 50 -237q2 -7 4 -13h496v-100h-466q16 -68 16 -125q0 -147 -91 -275 q124 -1 216 -50q95 -50 225 -50q83 0 141.5 73t58.5 177h150q0 -166 -102.5 -283t-247.5 -117q-130 0 -225 50t-225 50q-121 0 -200 -100z" />
<glyph unicode="&#xa4;" horiz-adv-x="2000" d="M100 650v100h200v650h258l228 -650h428l228 650h258v-650h200v-100h-200v-650h-150v650h-214l-228 -650h-216l-228 650h-214v-650h-150v650h-200zM450 750h178l-178 508v-508zM822 650l178 -508l178 508h-356zM1372 750h178v508z" />
<glyph unicode="&#xa5;" horiz-adv-x="1100" d="M0 1400h175l375 -568l375 568h175l-475 -719v-181h300v-100h-300v-100h300v-100h-300v-200h-150v200h-300v100h300v100h-300v100h300v181z" />
<glyph unicode="&#xa6;" horiz-adv-x="350" d="M100 -200v800h150v-800h-150zM100 800v800h150v-800h-150z" />
<glyph unicode="&#xa8;" horiz-adv-x="800" d="M100 1100v200h200v-200h-200zM500 1100v200h200v-200h-200z" />
<glyph unicode="&#xa9;" horiz-adv-x="1300" d="M50 700q0 249 175.5 424.5t424.5 175.5t424.5 -175.5t175.5 -424.5t-175.5 -424.5t-424.5 -175.5t-424.5 175.5t-175.5 424.5zM175 700q0 -197 139 -336t336 -139t336 139t139 336t-139 336t-336 139t-336 -139t-139 -336zM350 700q0 124 88 212t212 88t212 -88 q27 -27 46 -58l-112 -56q-10 14 -22 26q-52 51 -124 51q-73 0 -124 -51t-51 -124q0 -72 51 -123.5t124 -51.5q72 0 124 52q12 12 21 25l113 -56q-19 -31 -46 -58q-88 -88 -212 -88t-212 88t-88 212z" />
<glyph unicode="&#xab;" horiz-adv-x="921" d="M50 700l292 400h179l-291 -400l291 -400h-179zM400 700l292 400h179l-291 -400l291 -400h-179z" />
<glyph unicode="&#xac;" horiz-adv-x="1000" d="M100 650v150h800v-450h-150v300h-650z" />
<glyph unicode="&#xad;" horiz-adv-x="800" d="M100 650v150h600v-150h-600z" />
<glyph unicode="&#xae;" horiz-adv-x="1300" d="M50 700q0 249 175.5 424.5t424.5 175.5t424.5 -175.5t175.5 -424.5t-175.5 -424.5t-424.5 -175.5t-424.5 175.5t-175.5 424.5zM175 700q0 -197 139 -336t336 -139t336 139t139 336t-139 336t-336 139t-336 -139t-139 -336zM400 400v600h300q83 0 141.5 -58.5t58.5 -141.5 t-58 -141q-24 -24 -52 -38l110 -221h-125l-100 200h-150v-200h-125zM525 713h175q36 0 62 25.5t26 61.5t-26 62t-62 26h-175v-175z" />
<glyph unicode="&#xb0;" horiz-adv-x="700" d="M50 1100q0 124 88 212t212 88t212 -88t88 -212t-88 -212t-212 -88t-212 88t-88 212zM188 1100q0 -67 47.5 -114.5t114.5 -47.5t115 47.5t48 114.5t-48 115t-115 48t-114.5 -48t-47.5 -115z" />
<glyph unicode="&#xb1;" horiz-adv-x="1000" d="M100 0v150h800v-150h-800zM100 650v150h325v300h150v-300h325v-150h-325v-300h-150v300h-325z" />
<glyph unicode="&#xb4;" horiz-adv-x="400" d="M50 1100l100 250h200l-175 -250h-125z" />
<glyph unicode="&#xb5;" horiz-adv-x="1100" d="M100 -400v1400h150v-700q125 -150 300 -150t300 175v675h150v-1000h-150v175q-125 -175 -300 -175t-300 150v-550h-150z" />
<glyph unicode="&#xb6;" horiz-adv-x="1000" d="M50 1050q0 145 102.5 247.5t247.5 102.5h500v-1600h-150v1450h-150v-1450h-150v900h-50q-145 0 -247.5 102.5t-102.5 247.5z" />
<glyph unicode="&#xb7;" horiz-adv-x="400" d="M100 600v200h200v-200h-200z" />
<glyph unicode="&#xb8;" horiz-adv-x="500" d="M50 -249q84 -51 200 -51q41 0 70.5 22t29.5 53t-29.5 53t-70.5 22q-75 0 -100 -50l-67 67l67 133l50 100h100l-50 -100l-51 -101q42 26 101 26q50 0 100 -37.5t50 -112.5q0 -73 -58.5 -124t-141.5 -51q-116 0 -200 51v100z" />
<glyph unicode="&#xbb;" horiz-adv-x="921" d="M50 300l291 400l-291 400h179l292 -400l-292 -400h-179zM401 300l291 400l-291 400h179l292 -400l-292 -400h-179z" />
<glyph unicode="&#xbf;" horiz-adv-x="990" d="M50 0q0 230 225 340t225 260h150q0 -230 -225 -340t-225 -260q0 -104 88 -177t212 -73q166 0 283 73q31 19 53 41l104 -104q-23 -22 -51 -43q-161 -117 -389 -117q-186 0 -318 117t-132 283zM475 800v200h200v-200h-200z" />
<glyph unicode="&#xc0;" horiz-adv-x="1200" d="M0 0l492 1400h216l492 -1400h-158l-158 450h-568l-158 -450h-158zM350 1750h200l100 -250h-125zM369 600h462l-231 658z" />
<glyph unicode="&#xc1;" horiz-adv-x="1200" d="M0 0l492 1400h216l492 -1400h-158l-158 450h-568l-158 -450h-158zM369 600h462l-231 658zM550 1500l100 250h200l-175 -250h-125z" />
<glyph unicode="&#xc2;" horiz-adv-x="1200" d="M0 0l492 1400h216l492 -1400h-158l-158 450h-568l-158 -450h-158zM350 1500l167 250h166l167 -250h-125l-125 187l-125 -187h-125zM369 600h462l-231 658z" />
<glyph unicode="&#xc3;" horiz-adv-x="1200" d="M0 0l492 1400h216l492 -1400h-158l-158 450h-568l-158 -450h-158zM300 1500q0 214 171 214q77 0 133 -43t124 -43t68 86h103q0 -214 -171 -214q-77 0 -133 43q-55 43 -124 43q-68 0 -68 -86h-103zM369 600h462l-231 658z" />
<glyph unicode="&#xc4;" horiz-adv-x="1200" d="M0 0l492 1400h216l492 -1400h-158l-158 450h-568l-158 -450h-158zM300 1500v200h200v-200h-200zM369 600h462l-231 658zM700 1500v200h200v-200h-200z" />
<glyph unicode="&#xc5;" horiz-adv-x="1200" d="M0 0l492 1400h216l492 -1400h-158l-158 450h-568l-158 -450h-158zM369 600h462l-231 658zM400 1700q0 83 58.5 141.5t141.5 58.5t141.5 -58.5t58.5 -141.5t-58.5 -141.5t-141.5 -58.5t-141.5 58.5t-58.5 141.5zM501 1700q0 -41 29 -70t70 -29t71 29t30 70t-30 71t-71 30 t-70 -30t-29 -71z" />
<glyph unicode="&#xc6;" horiz-adv-x="1800" d="M0 0l492 1400h1158v-150h-700v-450h600v-150h-600v-500h750v-150h-900v450h-484l-158 -450h-158zM369 600h431v650h-203z" />
<glyph unicode="&#xc7;" horiz-adv-x="1225" d="M50 700q0 340 175.5 520t424.5 180t424 -180q61 -63 101 -145l-124 -89q-32 75 -83 128q-132 136 -318 136t-318 -136t-132 -414t132 -414t318 -136t318 136q51 53 83 128l124 -89q-40 -82 -101 -145q-157 -161 -373 -178l-1 -2l-51 -101q42 26 101 26q50 0 100 -37.5 t50 -112.5q0 -73 -58.5 -124t-141.5 -51q-116 0 -200 51v100q84 -51 200 -51q41 0 70.5 22t29.5 53t-29.5 53t-70.5 22q-75 0 -100 -50l-67 67l67 133l1 2q-218 16 -375 178q-176 180 -176 520z" />
<glyph unicode="&#xc8;" horiz-adv-x="1100" d="M100 0v1400h850v-150h-700v-450h600v-150h-600v-500h750v-150h-900zM300 1750h200l100 -250h-125z" />
<glyph unicode="&#xc9;" horiz-adv-x="1100" d="M100 0v1400h850v-150h-700v-450h600v-150h-600v-500h750v-150h-900zM500 1500l100 250h200l-175 -250h-125z" />
<glyph unicode="&#xca;" horiz-adv-x="1100" d="M100 0v1400h850v-150h-700v-450h600v-150h-600v-500h750v-150h-900zM300 1500l167 250h166l167 -250h-125l-125 187l-125 -187h-125z" />
<glyph unicode="&#xcb;" horiz-adv-x="1100" d="M100 0v1400h850v-150h-700v-450h600v-150h-600v-500h750v-150h-900zM250 1500v200h200v-200h-200zM650 1500v200h200v-200h-200z" />
<glyph unicode="&#xcc;" horiz-adv-x="350" d="M-75 1750h200l100 -250h-125zM100 0v1400h150v-1400h-150z" />
<glyph unicode="&#xcd;" horiz-adv-x="350" d="M100 0v1400h150v-1400h-150zM125 1500l100 250h200l-175 -250h-125z" />
<glyph unicode="&#xce;" horiz-adv-x="350" d="M-75 1500l167 250h166l167 -250h-125l-125 187l-125 -187h-125zM100 0v1400h150v-1400h-150z" />
<glyph unicode="&#xcf;" horiz-adv-x="350" d="M-125 1500v200h200v-200h-200zM100 0v1400h150v-1400h-150zM275 1500v200h200v-200h-200z" />
<glyph unicode="&#xd0;" horiz-adv-x="1250" d="M-100 650v100h200v650h500q249 0 424.5 -180t175.5 -520t-175.5 -520t-424.5 -180h-500v650h-200zM250 150h350q187 0 318.5 136t131.5 414t-131.5 414t-318.5 136h-350v-500h200v-100h-200v-500z" />
<glyph unicode="&#xd1;" horiz-adv-x="1200" d="M100 0v1400h170l680 -1147v1147h150v-1400h-170l-680 1147v-1147h-150zM300 1500q0 214 171 214q77 0 133 -43t124 -43t68 86h103q0 -214 -171 -214q-77 0 -133 43q-55 43 -124 43q-68 0 -68 -86h-103z" />
<glyph unicode="&#xd2;" horiz-adv-x="1300" d="M50 700q0 340 176 520t424 180q249 0 424.5 -180t175.5 -520t-175.5 -520t-424.5 -180q-248 0 -424 180t-176 520zM200 700q0 -278 132 -414t318 -136q187 0 318.5 136t131.5 414t-131.5 414t-318.5 136q-186 0 -318 -136t-132 -414zM400 1750h200l100 -250h-125z" />
<glyph unicode="&#xd3;" horiz-adv-x="1300" d="M50 700q0 340 176 520t424 180q249 0 424.5 -180t175.5 -520t-175.5 -520t-424.5 -180q-248 0 -424 180t-176 520zM200 700q0 -278 132 -414t318 -136q187 0 318.5 136t131.5 414t-131.5 414t-318.5 136q-186 0 -318 -136t-132 -414zM600 1500l100 250h200l-175 -250 h-125z" />
<glyph unicode="&#xd4;" horiz-adv-x="1300" d="M50 700q0 340 176 520t424 180q249 0 424.5 -180t175.5 -520t-175.5 -520t-424.5 -180q-248 0 -424 180t-176 520zM200 700q0 -278 132 -414t318 -136q187 0 318.5 136t131.5 414t-131.5 414t-318.5 136q-186 0 -318 -136t-132 -414zM400 1500l167 250h166l167 -250h-125 l-125 187l-125 -187h-125z" />
<glyph unicode="&#xd5;" horiz-adv-x="1300" d="M50 700q0 340 176 520t424 180q249 0 424.5 -180t175.5 -520t-175.5 -520t-424.5 -180q-248 0 -424 180t-176 520zM200 700q0 -278 132 -414t318 -136q187 0 318.5 136t131.5 414t-131.5 414t-318.5 136q-186 0 -318 -136t-132 -414zM350 1500q0 214 171 214 q77 0 133 -43t124 -43t68 86h103q0 -214 -171 -214q-77 0 -133 43q-55 43 -124 43q-68 0 -68 -86h-103z" />
<glyph unicode="&#xd6;" horiz-adv-x="1300" d="M50 700q0 340 176 520t424 180q249 0 424.5 -180t175.5 -520t-175.5 -520t-424.5 -180q-248 0 -424 180t-176 520zM200 700q0 -278 132 -414t318 -136q187 0 318.5 136t131.5 414t-131.5 414t-318.5 136q-186 0 -318 -136t-132 -414zM350 1500v200h200v-200h-200z M750 1500v200h200v-200h-200z" />
<glyph unicode="&#xd7;" horiz-adv-x="878" d="M50 442l283 283l-283 283l106 106l283 -283l283 283l106 -106l-283 -283l283 -283l-106 -106l-283 283l-283 -283z" />
<glyph unicode="&#xd8;" horiz-adv-x="1300" d="M-22 99l175 175q-103 166 -103 426q0 340 176 520t424 180q249 0 425 -180q6 -6 11 -13l165 165l71 -71l-175 -175q103 -166 103 -426q0 -340 -175.5 -520t-424.5 -180q-248 0 -424 180q-6 6 -12 13l-165 -165zM200 700q0 -192 63 -316l717 717q-5 7 -11 13 q-132 136 -319 136q-186 0 -318 -136t-132 -414zM320 299q6 -7 12 -13q132 -136 318 -136q187 0 318.5 136t131.5 414q0 192 -63 316z" />
<glyph unicode="&#xd9;" horiz-adv-x="1200" d="M100 500v900h150v-900q0 -155 87.5 -252.5t262.5 -97.5t262.5 97.5t87.5 252.5v900h150v-900q0 -217 -121.5 -358.5t-378.5 -141.5t-378.5 141.5t-121.5 358.5zM350 1750h200l100 -250h-125z" />
<glyph unicode="&#xda;" horiz-adv-x="1200" d="M100 500v900h150v-900q0 -155 87.5 -252.5t262.5 -97.5t262.5 97.5t87.5 252.5v900h150v-900q0 -217 -121.5 -358.5t-378.5 -141.5t-378.5 141.5t-121.5 358.5zM550 1500l100 250h200l-175 -250h-125z" />
<glyph unicode="&#xdb;" horiz-adv-x="1200" d="M100 500v900h150v-900q0 -155 87.5 -252.5t262.5 -97.5t262.5 97.5t87.5 252.5v900h150v-900q0 -217 -121.5 -358.5t-378.5 -141.5t-378.5 141.5t-121.5 358.5zM350 1500l167 250h166l167 -250h-125l-125 187l-125 -187h-125z" />
<glyph unicode="&#xdc;" horiz-adv-x="1200" d="M100 500v900h150v-900q0 -155 87.5 -252.5t262.5 -97.5t262.5 97.5t87.5 252.5v900h150v-900q0 -217 -121.5 -358.5t-378.5 -141.5t-378.5 141.5t-121.5 358.5zM300 1500v200h200v-200h-200zM700 1500v200h200v-200h-200z" />
<glyph unicode="&#xdd;" horiz-adv-x="1100" d="M0 1400h175l375 -568l375 568h175l-475 -719v-681h-150v681zM500 1500l100 250h200l-175 -250h-125z" />
<glyph unicode="&#xde;" horiz-adv-x="1150" d="M100 0v1400h150v-300h475q155 0 265 -110t110 -265t-110 -265t-265 -110h-475v-350h-150zM250 500h475q93 0 159 66t66 159t-66 159t-159 66h-475v-450z" />
<glyph unicode="&#xdf;" d="M100 0v1000q0 166 117 283t308 117t308 -117t117 -283q0 -124 -88 -212q-26 -26 -55 -44q40 -25 76 -61q117 -117 117 -283t-117 -283t-308 -117h-125v150h125q129 0 202 73t73 177t-73 177t-202 73h-125v150h175q87 0 131 58.5t44 141.5q0 104 -73 177t-202 73t-202 -73 t-73 -177v-1000h-150z" />
<glyph unicode="&#xe0;" horiz-adv-x="1000" d="M50 300q0 124 102.5 212t247.5 88h350q0 103 -73.5 176.5t-176.5 73.5q-162 0 -294 -136l-106 106q175 180 400 180q165 0 282.5 -117.5t117.5 -282.5v-600h-150v172l-11 -11q-161 -161 -339 -161q-145 0 -247.5 88t-102.5 212zM200 300q0 -62 58.5 -106t141.5 -44 q155 0 300 117q28 22 50 46v137h-350q-83 0 -141.5 -44t-58.5 -106zM225 1350h200l100 -250h-125z" />
<glyph unicode="&#xe1;" horiz-adv-x="1000" d="M50 300q0 124 102.5 212t247.5 88h350q0 103 -73.5 176.5t-176.5 73.5q-162 0 -294 -136l-106 106q175 180 400 180q165 0 282.5 -117.5t117.5 -282.5v-600h-150v172l-11 -11q-161 -161 -339 -161q-145 0 -247.5 88t-102.5 212zM200 300q0 -62 58.5 -106t141.5 -44 q155 0 300 117q28 22 50 46v137h-350q-83 0 -141.5 -44t-58.5 -106zM425 1100l100 250h200l-175 -250h-125z" />
<glyph unicode="&#xe2;" horiz-adv-x="1000" d="M50 300q0 124 102.5 212t247.5 88h350q0 103 -73.5 176.5t-176.5 73.5q-162 0 -294 -136l-106 106q175 180 400 180q165 0 282.5 -117.5t117.5 -282.5v-600h-150v172l-11 -11q-161 -161 -339 -161q-145 0 -247.5 88t-102.5 212zM200 300q0 -62 58.5 -106t141.5 -44 q155 0 300 117q28 22 50 46v137h-350q-83 0 -141.5 -44t-58.5 -106zM225 1100l167 250h166l167 -250h-125l-125 187l-125 -187h-125z" />
<glyph unicode="&#xe3;" horiz-adv-x="1000" d="M50 300q0 124 102.5 212t247.5 88h350q0 103 -73.5 176.5t-176.5 73.5q-162 0 -294 -136l-106 106q175 180 400 180q165 0 282.5 -117.5t117.5 -282.5v-600h-150v172l-11 -11q-161 -161 -339 -161q-145 0 -247.5 88t-102.5 212zM175 1100q0 214 171 214q77 0 133 -43 t124 -43t68 86h103q0 -214 -171 -214q-77 0 -133 43q-55 43 -124 43q-68 0 -68 -86h-103zM200 300q0 -62 58.5 -106t141.5 -44q155 0 300 117q28 22 50 46v137h-350q-83 0 -141.5 -44t-58.5 -106z" />
<glyph unicode="&#xe4;" horiz-adv-x="1000" d="M50 300q0 124 102.5 212t247.5 88h350q0 103 -73.5 176.5t-176.5 73.5q-162 0 -294 -136l-106 106q175 180 400 180q165 0 282.5 -117.5t117.5 -282.5v-600h-150v172l-11 -11q-161 -161 -339 -161q-145 0 -247.5 88t-102.5 212zM175 1100v200h200v-200h-200zM200 300 q0 -62 58.5 -106t141.5 -44q155 0 300 117q28 22 50 46v137h-350q-83 0 -141.5 -44t-58.5 -106zM575 1100v200h200v-200h-200z" />
<glyph unicode="&#xe5;" horiz-adv-x="1000" d="M50 300q0 124 102.5 212t247.5 88h350q0 103 -73.5 176.5t-176.5 73.5q-162 0 -294 -136l-106 106q175 180 400 180q165 0 282.5 -117.5t117.5 -282.5v-600h-150v172l-11 -11q-161 -161 -339 -161q-145 0 -247.5 88t-102.5 212zM200 300q0 -62 58.5 -106t141.5 -44 q155 0 300 117q28 22 50 46v137h-350q-83 0 -141.5 -44t-58.5 -106zM275 1300q0 83 58.5 141.5t141.5 58.5t141.5 -58.5t58.5 -141.5t-58.5 -141.5t-141.5 -58.5t-141.5 58.5t-58.5 141.5zM376 1300q0 -41 29 -70t70 -29t71 29t30 70t-30 71t-71 30t-70 -30t-29 -71z" />
<glyph unicode="&#xe6;" horiz-adv-x="1700" d="M50 300q0 124 102.5 212t247.5 88h350q0 103 -73.5 176.5t-176.5 73.5q-162 0 -294 -136l-106 106q175 180 400 180q165 0 283 -117q34 -35 58 -74q22 29 48 55q139 136 311 136q186 0 318 -132t132 -318l-40 -91l-706 -24q15 -120 91 -193q95 -92 230 -92q187 0 295 175 l106 -106q-151 -219 -401 -219q-197 0 -336 136q-36 36 -63 77q-176 -213 -426 -213q-145 0 -247.5 88t-102.5 212zM200 300q0 -62 58.5 -106t141.5 -44q200 0 350 163v137h-350q-83 0 -141.5 -44t-58.5 -106zM905 574l592 21q-14 95 -85 167q-88 88 -212 88 q-110 0 -205 -92q-73 -71 -90 -184z" />
<glyph unicode="&#xe7;" horiz-adv-x="971" d="M50 500q0 228 139 364t336 136q246 -2 396 -219l-106 -106q-107 172 -290 175q-135 0 -230 -92t-95 -258t95 -258t230 -92q183 3 290 175l106 -106q-142 -206 -371 -218v-1l-51 -101q42 26 101 26q50 0 100 -37.5t50 -112.5q0 -73 -58.5 -124t-141.5 -51q-116 0 -200 51 v100q84 -51 200 -51q41 0 70.5 22t29.5 53t-29.5 53t-70.5 22q-75 0 -100 -50l-67 67l67 133l2 5q-150 21 -263 131q-139 136 -139 364z" />
<glyph unicode="&#xe8;" horiz-adv-x="1000" d="M50 500q0 228 139 364t311 136q186 0 318 -132t132 -318l-40 -91l-706 -24q15 -120 91 -193q95 -92 230 -92q187 0 295 175l106 -106q-151 -219 -401 -219q-197 0 -336 136t-139 364zM205 574l592 21q-14 95 -85 167q-88 88 -212 88q-110 0 -205 -92q-73 -71 -90 -184z M250 1350h200l100 -250h-125z" />
<glyph unicode="&#xe9;" horiz-adv-x="1000" d="M50 500q0 228 139 364t311 136q186 0 318 -132t132 -318l-40 -91l-706 -24q15 -120 91 -193q95 -92 230 -92q187 0 295 175l106 -106q-151 -219 -401 -219q-197 0 -336 136t-139 364zM205 574l592 21q-14 95 -85 167q-88 88 -212 88q-110 0 -205 -92q-73 -71 -90 -184z M450 1100l100 250h200l-175 -250h-125z" />
<glyph unicode="&#xea;" horiz-adv-x="1000" d="M50 500q0 228 139 364t311 136q186 0 318 -132t132 -318l-40 -91l-706 -24q15 -120 91 -193q95 -92 230 -92q187 0 295 175l106 -106q-151 -219 -401 -219q-197 0 -336 136t-139 364zM205 574l592 21q-14 95 -85 167q-88 88 -212 88q-110 0 -205 -92q-73 -71 -90 -184z M250 1100l167 250h166l167 -250h-125l-125 187l-125 -187h-125z" />
<glyph unicode="&#xeb;" horiz-adv-x="1000" d="M50 500q0 228 139 364t311 136q186 0 318 -132t132 -318l-40 -91l-706 -24q15 -120 91 -193q95 -92 230 -92q187 0 295 175l106 -106q-151 -219 -401 -219q-197 0 -336 136t-139 364zM200 1100v200h200v-200h-200zM205 574l592 21q-14 95 -85 167q-88 88 -212 88 q-110 0 -205 -92q-73 -71 -90 -184zM600 1100v200h200v-200h-200z" />
<glyph unicode="&#xec;" horiz-adv-x="350" d="M-75 1350h200l100 -250h-125zM100 0v1000h150v-1000h-150z" />
<glyph unicode="&#xed;" horiz-adv-x="350" d="M100 0v1000h150v-1000h-150zM125 1100l100 250h200l-175 -250h-125z" />
<glyph unicode="&#xee;" horiz-adv-x="350" d="M-75 1100l167 250h166l167 -250h-125l-125 187l-125 -187h-125zM100 0v1000h150v-1000h-150z" />
<glyph unicode="&#xef;" horiz-adv-x="350" d="M-125 1100v200h200v-200h-200zM100 0v1000h150v-1000h-150zM275 1100v200h200v-200h-200z" />
<glyph unicode="&#xf0;" d="M50 500q0 208 126.5 354t323.5 146q166 0 283 -146q9 -12 17 -23v269h-200v100h200v200h150v-200h200v-100h-200v-1100h-150v169q-8 -11 -17 -22q-117 -147 -283 -147q-197 0 -323.5 146t-126.5 354zM200 500q0 -146 82.5 -248t217.5 -102q145 0 247 103q31 30 53 65v364 q-22 35 -53 66q-102 102 -247 102q-135 0 -217.5 -102t-82.5 -248z" />
<glyph unicode="&#xf1;" d="M100 0v1000h150v-169q8 11 17 23q117 146 283 146t283 -117t117 -283v-600h-150v600q0 104 -73 177t-177 73q-145 0 -247 -102q-31 -31 -53 -66v-682h-150zM225 1100q0 214 171 214q77 0 133 -43t124 -43t68 86h103q0 -214 -171 -214q-77 0 -133 43q-55 43 -124 43 q-68 0 -68 -86h-103z" />
<glyph unicode="&#xf2;" d="M50 500q0 228 139 364t336 136t336 -136t139 -364q0 -218 -139 -359t-336 -141t-336 136t-139 364zM200 500q0 -166 95 -258t230 -92t230 92t95 258t-95 258t-230 92t-230 -92t-95 -258zM275 1350h200l100 -250h-125z" />
<glyph unicode="&#xf3;" d="M50 500q0 228 139 364t336 136t336 -136t139 -364q0 -218 -139 -359t-336 -141t-336 136t-139 364zM200 500q0 -166 95 -258t230 -92t230 92t95 258t-95 258t-230 92t-230 -92t-95 -258zM475 1100l100 250h200l-175 -250h-125z" />
<glyph unicode="&#xf4;" d="M50 500q0 228 139 364t336 136t336 -136t139 -364q0 -218 -139 -359t-336 -141t-336 136t-139 364zM200 500q0 -166 95 -258t230 -92t230 92t95 258t-95 258t-230 92t-230 -92t-95 -258zM275 1100l167 250h166l167 -250h-125l-125 187l-125 -187h-125z" />
<glyph unicode="&#xf5;" d="M50 500q0 228 139 364t336 136t336 -136t139 -364q0 -218 -139 -359t-336 -141t-336 136t-139 364zM200 500q0 -166 95 -258t230 -92t230 92t95 258t-95 258t-230 92t-230 -92t-95 -258zM226 1100q0 214 171 214q77 0 133 -43t124 -43t68 86h103q0 -214 -171 -214 q-77 0 -133 43q-55 43 -124 43q-68 0 -68 -86h-103z" />
<glyph unicode="&#xf6;" d="M50 500q0 228 139 364t336 136t336 -136t139 -364q0 -218 -139 -359t-336 -141t-336 136t-139 364zM200 500q0 -166 95 -258t230 -92t230 92t95 258t-95 258t-230 92t-230 -92t-95 -258zM225 1100v200h200v-200h-200zM625 1100v200h200v-200h-200z" />
<glyph unicode="&#xf7;" horiz-adv-x="1000" d="M100 650v150h800v-150h-800zM400 250v200h200v-200h-200zM400 1000v200h200v-200h-200z" />
<glyph unicode="&#xf8;" d="M-5 40l148 148q-93 125 -93 312q0 228 139 364t336 136q182 0 314 -116l146 146l70 -70l-148 -148q93 -125 93 -312q0 -218 -139 -359t-336 -141q-182 0 -314 116l-146 -146zM200 500q0 -122 51 -204l482 482q-88 72 -208 72q-135 0 -230 -92t-95 -258zM317 222 q88 -72 208 -72q135 0 230 92t95 258q0 122 -51 204z" />
<glyph unicode="&#xf9;" d="M100 400v600h150v-600q0 -104 73 -177t177 -73q145 0 247 102q31 31 53 66v682h150v-1000h-150v169q-8 -11 -17 -23q-117 -146 -283 -146t-283 117t-117 283zM275 1350h200l100 -250h-125z" />
<glyph unicode="&#xfa;" d="M100 400v600h150v-600q0 -104 73 -177t177 -73q145 0 247 102q31 31 53 66v682h150v-1000h-150v169q-8 -11 -17 -23q-117 -146 -283 -146t-283 117t-117 283zM475 1100l100 250h200l-175 -250h-125z" />
<glyph unicode="&#xfb;" d="M100 400v600h150v-600q0 -104 73 -177t177 -73q145 0 247 102q31 31 53 66v682h150v-1000h-150v169q-8 -11 -17 -23q-117 -146 -283 -146t-283 117t-117 283zM275 1100l167 250h166l167 -250h-125l-125 187l-125 -187h-125z" />
<glyph unicode="&#xfc;" d="M100 400v600h150v-600q0 -104 73 -177t177 -73q145 0 247 102q31 31 53 66v682h150v-1000h-150v169q-8 -11 -17 -23q-117 -146 -283 -146t-283 117t-117 283zM225 1100v200h200v-200h-200zM625 1100v200h200v-200h-200z" />
<glyph unicode="&#xfd;" horiz-adv-x="900" d="M0 1000h158l292 -831l292 831h158l-351 -1000q-129 -400 -399 -400q-72 1 -144 23l35 141q54 -13 109 -14q141 0 220 195zM400 1100l100 250h200l-175 -250h-125z" />
<glyph unicode="&#xfe;" d="M100 -400v1800h150v-600q125 200 300 200q197 0 323.5 -146t126.5 -354t-126.5 -354t-323.5 -146q-175 0 -300 200v-600h-150zM250 350q125 -200 300 -200q135 0 217.5 102t82.5 248t-82.5 248t-217.5 102q-175 0 -300 -200v-300z" />
<glyph unicode="&#xff;" horiz-adv-x="900" d="M0 1000h158l292 -831l292 831h158l-351 -1000q-129 -400 -399 -400q-72 1 -144 23l35 141q54 -13 109 -14q141 0 220 195zM150 1100v200h200v-200h-200zM550 1100v200h200v-200h-200z" />
<glyph unicode="&#x152;" horiz-adv-x="2100" d="M50 700q0 340 176 520t424 180q249 0 424 -180l26 -28v208h850v-150h-700v-450h600v-150h-600v-500h750v-150h-900v208l-26 -28q-175 -180 -424 -180q-248 0 -424 180t-176 520zM200 700q0 -278 132 -414t318 -136q187 0 318.5 136t131.5 414t-131.5 414t-318.5 136 q-186 0 -318 -136t-132 -414z" />
<glyph unicode="&#x153;" horiz-adv-x="1800" d="M50 500q0 228 139 364t336 136t336 -136q37 -36 64 -79q27 43 64 79q139 136 311 136q186 0 318 -132t132 -318l-40 -91l-706 -24q15 -120 91 -193q95 -92 230 -92q187 0 295 175l106 -106q-151 -219 -401 -219q-197 0 -336 136q-39 37 -67 82q-26 -41 -61 -77 q-139 -141 -336 -141t-336 136t-139 364zM200 500q0 -166 95 -258t230 -92t230 92t95 258t-95 258t-230 92t-230 -92t-95 -258zM1005 574l592 21q-14 95 -85 167q-88 88 -212 88q-110 0 -205 -92q-73 -71 -90 -184z" />
<glyph unicode="&#x178;" horiz-adv-x="1100" d="M0 1400h175l375 -568l375 568h175l-475 -719v-681h-150v681zM250 1500v200h200v-200h-200zM650 1500v200h200v-200h-200z" />
<glyph unicode="&#x2c6;" horiz-adv-x="600" d="M50 1100l167 250h166l167 -250h-125l-125 187l-125 -187h-125z" />
<glyph unicode="&#x2dc;" horiz-adv-x="699" d="M50 1100q0 214 171 214q77 0 133 -43t124 -43t68 86h103q0 -214 -171 -214q-77 0 -133 43q-55 43 -124 43q-68 0 -68 -86h-103z" />
<glyph unicode="&#x2000;" horiz-adv-x="950" />
<glyph unicode="&#x2001;" horiz-adv-x="1900" />
<glyph unicode="&#x2002;" horiz-adv-x="950" />
<glyph unicode="&#x2003;" horiz-adv-x="1900" />
<glyph unicode="&#x2004;" horiz-adv-x="633" />
<glyph unicode="&#x2005;" horiz-adv-x="475" />
<glyph unicode="&#x2006;" horiz-adv-x="316" />
<glyph unicode="&#x2007;" horiz-adv-x="316" />
<glyph unicode="&#x2008;" horiz-adv-x="237" />
<glyph unicode="&#x2009;" horiz-adv-x="380" />
<glyph unicode="&#x200a;" horiz-adv-x="105" />
<glyph unicode="&#x2010;" horiz-adv-x="800" d="M100 650v150h600v-150h-600z" />
<glyph unicode="&#x2011;" horiz-adv-x="800" d="M100 650v150h600v-150h-600z" />
<glyph unicode="&#x2012;" horiz-adv-x="800" d="M100 650v150h600v-150h-600z" />
<glyph unicode="&#x2013;" horiz-adv-x="800" d="M100 650v150h600v-150h-600z" />
<glyph unicode="&#x2014;" horiz-adv-x="1200" d="M100 650v150h1000v-150h-1000z" />
<glyph unicode="&#x2018;" horiz-adv-x="400" d="M100 1000v200l100 200h100l-75 -200h75v-200h-200z" />
<glyph unicode="&#x2019;" horiz-adv-x="400" d="M100 1000l75 200h-75v200h200v-200l-100 -200h-100z" />
<glyph unicode="&#x201a;" horiz-adv-x="400" d="M100 0v200h200v-200l-100 -200h-100l75 200h-75z" />
<glyph unicode="&#x201c;" horiz-adv-x="700" d="M100 1000v200l100 200h100l-75 -200h75v-200h-200zM400 1000v200l100 200h100l-75 -200h75v-200h-200z" />
<glyph unicode="&#x201d;" horiz-adv-x="700" d="M100 1000l75 200h-75v200h200v-200l-100 -200h-100zM400 1000l75 200h-75v200h200v-200l-100 -200h-100z" />
<glyph unicode="&#x201e;" horiz-adv-x="700" d="M100 0v200h200v-200l-100 -200h-100l75 200h-75zM400 0v200h200v-200l-100 -200h-100l75 200h-75z" />
<glyph unicode="&#x2022;" horiz-adv-x="600" d="M100 700q0 83 58.5 141.5t141.5 58.5t141.5 -58.5t58.5 -141.5t-58.5 -141.5t-141.5 -58.5t-141.5 58.5t-58.5 141.5z" />
<glyph unicode="&#x2026;" horiz-adv-x="1200" d="M100 0v200h200v-200h-200zM500 0v200h200v-200h-200zM900 0v200h200v-200h-200z" />
<glyph unicode="&#x202f;" horiz-adv-x="380" />
<glyph unicode="&#x2039;" horiz-adv-x="571" d="M50 700l292 400h179l-291 -400l291 -400h-179z" />
<glyph unicode="&#x203a;" horiz-adv-x="571" d="M50 300l291 400l-291 400h179l292 -400l-292 -400h-179z" />
<glyph unicode="&#x205f;" horiz-adv-x="475" />
<glyph unicode="&#x20ac;" horiz-adv-x="1475" d="M100 550v100h201q-1 25 -1 50t1 50h-201v100h210q31 232 166 370q175 180 424 180t424 -180q61 -63 101 -145l-124 -89q-32 75 -83 128q-132 136 -318 136t-318 -136q-94 -96 -121 -264h577l-25 -100h-562q-1 -24 -1 -50t1 -50h537l-25 -100h-502q27 -168 121 -264 q132 -136 318 -136t318 136q51 53 83 128l124 -89q-40 -82 -101 -145q-175 -180 -424 -180t-424 180q-135 138 -166 370h-210z" />
<glyph unicode="&#x2122;" d="M50 1300v100h400v-100h-150v-400h-100v400h-150zM500 900v500h150l100 -370l100 370h150v-500h-100v370l-100 -370h-100l-100 370v-370h-100z" />
<glyph unicode="&#x25fc;" horiz-adv-x="1000" d="M0 0v1000h1000v-1000h-1000z" />
</font>
</defs>
</svg>
